<ttFont>
          <CharString index="0">
            -4 -5 -4 -19 vhcurveto
            -22 -15 -13 -19 hhcurveto
            -5 0 22 0 hvcurveto
            28 26 43 15 8 -4 20 18 vvcurveto
            5 2 18 38 9 0 -9 -12 vhcurveto
            -4 vlineto
            -18 1 -72 12 -38 vhcurveto
            121 -447 rmoveto
            39 107 32 24 2 -26 36 -4 22 hvcurveto
            -2 11 -1 7 4 vvcurveto
            4 -11 callsubr
            vhcurveto
            20 -61 -15 32 20 31 9 64 callsubr
            -22 65 -31 305 27 4 -20 -2 9 66 21 77 7 vvcurveto
            11 -60 25 -75 -18 -25 -1 -3 -13 vhcurveto
            -9 -2 -155 -78 -14 -8 13 -44 -6 return
          </CharString>
          <CharString index="1">
            17 -3 19 -33 callgsubr
            11 33 21 11 callsubr
            8 2 8 7 7 -2 -6 vhcurveto
            0 -9 -24 -15 vvcurveto
            -4 0 -3 2 -2 vhcurveto
            0 19 -10 -10 vvcurveto
            -2 -1 -3 -44 callsubr
            161 -294 rmoveto
            -11 callsubr
            3 3 19 -8 40 19 vvcurveto
            5 vlineto
            5 -20 8 -7 -3 -12 -16 0 vhcurveto
            -27 -27 -51 -9 0 vvcurveto
            -3 -13 -13 -1 -11 hhcurveto
            -24 -18 27 callgsubr
            105 15 21 20 hvcurveto
            21 21 26 42 65 vvcurveto
            2 -1 0 -2 vhcurveto
            -5 -9 -4 -8 hhcurveto
            -7 -5 3 10 4 4 13 3 3 hvcurveto
            6 5 24 11 0 vvcurveto
            return
          </CharString>
          <CharString index="2">
            -27 -76 -16 0 hvcurveto
            -16 -7 -89 -81 -9 -5 7 -8 -3 -25 callgsubr
            -6 callgsubr
            -92 15 -57 callsubr
            -20 -17 -4 vvcurveto
            -7 51 -50 37 -11 vhcurveto
            -30 callgsubr
            10 10 -5 22 23 hhcurveto
            0 5 1 6 6 6 -1 -3 2 callgsubr
            hlineto
            7 28 19 25 26 hvcurveto
            endchar
          </CharString>
          <CharString index="3">
            3 -4 0 -5 -5 vvcurveto
            -5 0 -4 -45 callsubr
            -3 3 16 -5 15 hhcurveto
            16 33 12 7 10 hvcurveto
            0 21 16 45 vvcurveto
            return
          </CharString>
          <CharString index="4">
            0 4 -36 -36 vvcurveto
            -26 -2 -27 -7 -14 17 callgsubr
            -7 25 -7 -12 -17 -24 -9 -5 vvcurveto
            -6 1 -84 3 -6 vhcurveto
            -16 9 28 -43 6 hhcurveto
            0 38 -6 14 -19 vhcurveto
            -1 -11 callsubr
            4 hhcurveto
            24 73 12 13 5 hvcurveto
            0 33 66 20 vhcurveto
            2 hlineto
            5 14 -1 -6 hvcurveto
            -8 -24 -42 -9 vvcurveto
            -8 48 -46 49 6 26 10 14 14 vhcurveto
            12 12 37 3 7 vvcurveto
            endchar
          </CharString>
          <CharString index="5">
            -77 callsubr
            -43 callsubr
            -27 callgsubr
            6 21 27 10 hhcurveto
            3 7 5 5 5 hvcurveto
            return
          </CharString>
          <CharString index="6">
            -66 callsubr
            hintmask 11011000
            -76 callsubr
            -18 -58 -66 -17 hvcurveto
            -6 32 -14 -33 -11 -18 -8 -7 vvcurveto
            -21 18 -17 -4 callgsubr
            -7 1 -9 -11 vvcurveto
            -27 -5 -36 -19 -19 vhcurveto
            -3 -3 -3 0 -4 hhcurveto
            -12 -15 8 0 hvcurveto
            -10 10 -14 28 15 vvcurveto
            hintmask 11100100
            -90 callsubr
            4 5 28 0 5 -25 33 -10 3 hvcurveto
            3 -9 -40 20 -5 hhcurveto
            -105 callsubr
          </CharString>
          <CharString index="7">
            54 18 141 7 14 vhcurveto
            11 5 52 19 23 hhcurveto
            36 20 -15 -16 hvcurveto
            -17 -36 6 -9 0 22 -120 -17 -31 -7 -30 -4 vvcurveto
            -10 61 -40 47 vhcurveto
            return
          </CharString>
          <CharString index="8">
            -79 callsubr
            47 callsubr
            47 callgsubr
            6 6 50 2 24 32 14 -19 7 hhcurveto
            18 41 107 35 8 -7 1 -24 hvcurveto
            -26 -90 -9 -47 hhcurveto
            -18 -12 1 4 14 7 21 16 5 hvcurveto
            13 4 4 3 5 vvcurveto
            3 vlineto
            -2 9 -3 36 30 vvcurveto
            20 2 18 4 4 vhcurveto
            return
          </CharString>
          <CharString index="9">
            -5 2 -7 0 14 vvcurveto
            3 17 12 41 callgsubr
            3 5 vvcurveto
            24 -7 64 -5 5 vhcurveto
            -12 8 rlineto
            19 -6 -25 47 -5 -16 -29 7 -16 hhcurveto
            -5 -3 0 -2 -2 hvcurveto
            -5 -5 -11 -1 -10 hhcurveto
            -7 -6 1 0 hvcurveto
            -8 -32 -31 -8 -7 hvcurveto
            -8 -10 -13 -25 -3 -6 8 -8 -4 0 -20 -39 -7 0 2 -32 -30 vvcurveto
            -21 -1 -20 -3 -7 vhcurveto
            0 6 -22 4 -12 callgsubr
            18 -12 19 -46 vhcurveto
            return
          </CharString>
          <CharString index="10">
            8 7 -36 -1 -16 -42 -42 -2 -2 hvcurveto
            -63 callsubr
            -2 -3 vvcurveto
            -9 5 -16 13 21 36 3 4 4 vhcurveto
            return
          </CharString>
          <CharString index="11">
            -69 callgsubr
            vvcurveto
            hintmask 11000100
            -46 callgsubr
            11 -13 0 6 -55 callsubr
            vvcurveto
            hintmask 11010000
            -40 -10 -41 -24 vvcurveto
            hintmask 11001000
            15 callgsubr
            vvcurveto
            hintmask 11100000
            67 callsubr
            -35 -6 -45 -3 -33 vhcurveto
            -95 callsubr
          </CharString>
          <CharString index="12">
            0 -6 -7 -1 -7 vhcurveto
            -2 -7 -9 -84 -8 vvcurveto
            -16 134 -17 28 11 17 18 15 20 vhcurveto
            12 10 15 7 7 1 -1 0 1 vvcurveto
            -8 17 -18 42 53 vvcurveto
            endchar
          </CharString>
          <CharString index="13">
            390 rmoveto
            7 20 47 6 hvcurveto
            1 vlineto
            -1 1 0 1 3 10 6 20 7 vvcurveto
            2 0 -45 callsubr
            -4 2 -8 1 14 vvcurveto
            3 18 11 77 callsubr
            2 3 vvcurveto
            22 -8 70 -5 4 vhcurveto
            -2 3 -10 6 0 vvcurveto
            19 -5 -26 47 -5 -16 -29 7 -16 hhcurveto
            -5 -3 0 -2 -2 hvcurveto
            -5 -5 -16 -1 -10 hhcurveto
            -8 hlineto
            -8 -32 -30 -8 -7 hvcurveto
            -8 -10 -13 -25 -3 -6 9 -9 -3 0 -20 -39 -7 0 2 -32 -30 vvcurveto
            -21 -1 -20 -3 -7 vhcurveto
            0 5 -22 4 -12 callgsubr
            18 -12 19 -46 vhcurveto
            0 22 -21 48 vhcurveto
            0 4 5 13 vhcurveto
            6 hlineto
            0 37 1 9 9 vhcurveto
            0 6 23 5 5 vhcurveto
            0 7 5 11 vhcurveto
            return
          </CharString>
          <CharString index="14">
            0 -19 -12 -3 -62 10 -53 -29 vvcurveto
            -10 -2 -8 -3 -3 vhcurveto
            -6 -7 -7 -50 -23 vvcurveto
            0 16 -1 4 -15 callgsubr
            32 -14 38 vhcurveto
            25 53 35 15 hhcurveto
            2 0 1 3 hvcurveto
            9 -6 22 25 vvcurveto
            17 2 31 2 2 vhcurveto
            1 2 -17 9 4 -27 callsubr
            5 1 32 19 19 vhcurveto
            0 4 4 11 vvcurveto
            8 -2 11 -6 17 vhcurveto
            0 -7 31 16 vvcurveto
            34 55 74 18 vhcurveto
            0 24 -10 -7 0 -28 -66 -16 -18 21 -28 -12 -9 -11 -13 -13 -35 -6 -56 -4 vvcurveto
            -5 18 2 10 -10 vhcurveto
            0 2 -7 -7 vvcurveto
            -4 -1 -4 82 callgsubr
            -23 -17 -2 vvcurveto
            0 3 -72 6 -7 vhcurveto
            -8 8 53 -13 15 hhcurveto
            endchar
          </CharString>
          <CharString index="15">
            -47 callgsubr
            -104 callsubr
            -83 callgsubr
            return
          </CharString>
          <CharString index="16">
            -20 -14 -3 -7 0 7 -64 -55 vvcurveto
            -26 -2 -23 -4 -15 -34 callgsubr
            -93 callgsubr
          </CharString>
          <CharString index="17">
            2 11 47 0 vhcurveto
            16 -29 13 0 vhcurveto
            64 5 41 5 11 vhcurveto
            9 18 54 58 13 7 rrcurveto
            21 12 63 3 0 vvcurveto
            return
          </CharString>
          <CharString index="18">
            -92 callsubr
            -73 callsubr
            7 callsubr
            vhcurveto
            -29 callgsubr
            return
          </CharString>
          <CharString index="19">
            -16 -9 -16 -19 -2 -4 rrcurveto
            -63 callsubr
            -6 -8 vvcurveto
            return
          </CharString>
          <CharString index="20">
            -1 6 0 8 9 vvcurveto
            53 12 102 0 vhcurveto
            12 -92 5 0 -22 -75 -51 -7 -14 17 -79 -33 callgsubr
            -13 -14 -4 return
          </CharString>
          <CharString index="21">
            -16 callsubr
            -16 callgsubr
            -78 callgsubr
            -61 callsubr
            return
          </CharString>
          <CharString index="22">
            -17 -51 -36 -20 -10 -62 21 -5 hhcurveto
            -4 -12 -34 -14 0 62 -47 12 hvcurveto
            0 101 34 10 vhcurveto
            10 44 -22 5 hhcurveto
            5 13 25 23 hvcurveto
            return
          </CharString>
          <CharString index="23">
            343 401 rmoveto
            -1 -5 callgsubr
            -107 callsubr
            return
          </CharString>
          <CharString index="24">
            3 3 1 2 1 hvcurveto
            6 8 13 -2 callgsubr
            14 3 -7 22 callsubr
            1 5 -1 5 hhcurveto
            13 21 5 0 hvcurveto
            24 16 30 11 vvcurveto
            23 -6 15 0 vhcurveto
            -11 -34 6 -23 hhcurveto
            -10 -8 -2 -3 -3 hvcurveto
            -3 -2 -14 -1 -17 hhcurveto
            -9 -9 0 1 -10 hvcurveto
            return
          </CharString>
          <CharString index="25">
            rmoveto
            -21 callsubr
            -64 callsubr
            return
          </CharString>
          <CharString index="26">
            -67 callsubr
            10 -1 7 -1 -16 -12 11 0 22 27 17 0 vhcurveto
            hintmask 11001000
            8 callsubr
            vvcurveto
            hintmask 11010000
            0 7 -64 -55 vvcurveto
            -26 -2 -23 -4 -15 -34 callgsubr
            hintmask 11100000
            -93 callgsubr
          </CharString>
          <CharString index="27">
            0 22 1 23 22 vhcurveto
            2 2 9 5 3 vvcurveto
            return
          </CharString>
          <CharString index="28">
            13 13 39 138 7 vvcurveto
            22 -50 43 -10 -4 -27 -62 -30 -30 vhcurveto
            -12 -12 -25 -2 -16 hhcurveto
            -42 -24 5 13 -13 hvcurveto
            return
          </CharString>
          <CharString index="29">
            0 60 13 65 22 15 -4 -18 vhcurveto
            -5 -28 0 -3 -26 -9 -34 -7 vvcurveto
            0 1 -1 0 vhcurveto
            -2 18 32 -20 12 hhcurveto
            12 72 14 12 hvcurveto
            5 -14 23 14 0 0 13 13 vvcurveto
            13 0 14 2 1 vhcurveto
            0 34 8 2 6 vhcurveto
            return
          </CharString>
          <CharString index="30">
            -5 -6 -31 -21 -8 1 -7 2 -2 hvcurveto
            return
          </CharString>
          <CharString index="31">
            -56 callgsubr
            10 -58 1 -27 vhcurveto
            -14 hlineto
            return
          </CharString>
          <CharString index="32">
            9 29 21 15 15 -23 12 11 -27 callsubr
            3 23 2 34 26 vvcurveto
            20 -1 17 -1 4 vhcurveto
            5 14 9 9 vhcurveto
            0 42 -11 20 -38 vhcurveto
            18 -33 -11 -94 21 -36 rrcurveto
            1 -3 1 -4 -5 -32 -28 -65 -6 vvcurveto
            0 4 -17 14 -15 callgsubr
            21 -11 -19 -18 -29 -2 -9 0 4 -20 -23 vvcurveto
            -24 -4 -27 -16 -16 vhcurveto
            -40 -166 rmoveto
            28 67 36 30 44 hvcurveto
            26 18 46 54 8 6 -19 6 17 vvcurveto
            24 41 7 0 vhcurveto
            return
          </CharString>
          <CharString index="33">
            56 21 55 19 vvcurveto
            8 -55 23 -4 callgsubr
            74 callsubr
            -8 -5 -5 22 callsubr
            -2 -3 -1 -3 return
          </CharString>
          <CharString index="34">
            8 6 -12 callsubr
            15 -51 12 0 return
          </CharString>
          <CharString index="35">
            rmoveto
            10 10 2 36 0 12 -31 14 7 vvcurveto
            9 5 -12 callsubr
            18 -59 17 0 -9 -13 -4 0 vhcurveto
            -5 -5 -35 -31 -14 hhcurveto
            -9 -9 -46 -28 -10 1 -7 3 -3 hvcurveto
            0 34 -30 17 -6 vhcurveto
            return
          </CharString>
          <CharString index="36">
            -5 -31 -45 -16 vhcurveto
            0 -19 2 -16 -9 -7 0 82 callgsubr
            -25 -33 -40 vvcurveto
            0 8 -15 2 callgsubr
            hlineto
            0 27 10 21 vhcurveto
            4 3 -12 2 hhcurveto
            0 34 -4 3 -12 callgsubr
            21 -27 -9 vvcurveto
            -35 -14 -13 -22 -11 vhcurveto
            0 0 -7 -4 vvcurveto
            0 -7 -4 -14 vhcurveto
            -33 -35 40 -3 hhcurveto
            -3 -33 -31 -7 -11 11 -64 12 hvcurveto
            7 hlineto
            9 19 0 -6 19 hvcurveto
            0 36 -8 21 vhcurveto
            return
          </CharString>
          <CharString index="37">
            -100 callgsubr
            -65 callsubr
            return
          </CharString>
          <CharString index="38">
            -71 callgsubr
            -10 -9 -22 -31 -18 hhcurveto
            -27 -42 46 37 hvcurveto
            return
          </CharString>
          <CharString index="39">
            158 317 rmoveto
            9 3 2 3 4 hvcurveto
            17 17 34 -2 5 2 7 3 41 38 8 11 rrcurveto
            6 9 7 54 39 vvcurveto
            3 -7 0 -7 -6 -5 12 0 6 16 13 18 callsubr
            -26 48 -56 -1 0 1 1 4 4 8 0 vhcurveto
            4 4 6 1 6 hhcurveto
            9 9 -2 0 hvcurveto
            1 hlineto
            8 42 66 19 3 -9 9 0 hvcurveto
            5 -8 51 -8 9 vhcurveto
            return
          </CharString>
          <CharString index="40">
            rmoveto
            -18 callgsubr
            2 vvcurveto
            15 -20 44 -21 callgsubr
            9 -1 22 27 54 5 75 33 vvcurveto
            return
          </CharString>
          <CharString index="41">
            rmoveto
            26 26 22 30 11 28 16 39 20 5 -20 6 20 vvcurveto
            return
          </CharString>
          <CharString index="42">
            0 105 10 14 11 vhcurveto
            0 70 52 52 9 59 86 49 vhcurveto
            return
          </CharString>
          <CharString index="43">
            73 callsubr
            -87 callgsubr
            39 callgsubr
            return
          </CharString>
          <CharString index="44">
            -1 -1 0 return
          </CharString>
          <CharString index="45">
            11 25 28 0 vhcurveto
            18 -6 27 0 vhcurveto
            -2 8 0 14 16 50 6 74 4 vvcurveto
            return
          </CharString>
          <CharString index="46">
            0 38 -42 -3 vvcurveto
            -2 3 -2 20 vhcurveto
            return
          </CharString>
          <CharString index="47">
            7 8 21 11 0 vvcurveto
            39 3 64 3 15 vhcurveto
            11 1 -74 68 -19 hhcurveto
            -47 -53 -21 0 hvcurveto
            -15 -15 -40 -70 -5 callsubr
            -1 -1 -4 -10 6 0 25 9 72 0 vhcurveto
            6 -53 20 -7 -28 -89 -46 -10 vhcurveto
            -5 24 -49 -72 -48 -7 -38 -4 vvcurveto
            -5 18 -7 4 -5 vhcurveto
            0 1 -4 -5 vvcurveto
            return
          </CharString>
          <CharString index="48">
            -75 -126 -12 -16 hvcurveto
            -99 38 -39 -18 -27 -20 1 -7 -12 7 -49 -51 vvcurveto
            return
          </CharString>
          <CharString index="49">
            11 -27 11 11 21 30 21 8 3 -16 37 6 vvcurveto
            return
          </CharString>
          <CharString index="50">
            -88 11 vhcurveto
            0 27 5 8 vhcurveto
            0 13 -7 -11 -12 return
          </CharString>
          <CharString index="51">
            -83 callgsubr
            -73 callsubr
            7 callsubr
            vhcurveto
            -4 -5 -37 -58 callgsubr
            return
          </CharString>
          <CharString index="52">
            20 22 68 21 vvcurveto
            24 -97 16 -12 -28 -85 -55 -10 vhcurveto
            -14 25 -50 -31 return
          </CharString>
          <CharString index="53">
            1 1 1 return
          </CharString>
          <CharString index="54">
            -1 8 -1 8 8 51 23 54 40 vvcurveto
            10 -93 4 0 return
          </CharString>
          <CharString index="55">
            21 hlineto
            7 17 29 0 hvcurveto
            8 -4 7 5 9 callgsubr
            39 56 2 vvcurveto
            3 -26 28 -36 vhcurveto
            -8 -20 -40 -27 hhcurveto
            0 -6 -2 -18 vvcurveto
            0 -29 -38 -5 -8 -16 24 18 5 -15 2 -2 1 vhcurveto
            0 -38 42 9 callsubr
            return
          </CharString>
          <CharString index="56">
            -3 -15 -17 -19 vhcurveto
            -5 -9 13 -6 hhcurveto
            return
          </CharString>
          <CharString index="57">
            97 -25 -21 49 -21 275 133 164 212 return
          </CharString>
          <CharString index="58">
            11 4 156 0 48 -41 131 -11 23 return
          </CharString>
          <CharString index="59">
            28 -34 4 20 19 31 13 6 vvcurveto
            14 -8 2 -3 15 vhcurveto
            return
          </CharString>
          <CharString index="60">
            -1 1 2 -1 3 hhcurveto
            return
          </CharString>
          <CharString index="61">
            0 3 6 12 vhcurveto
            2 3 -1 3 hhcurveto
            0 37 1 10 11 callsubr
            5 22 6 6 vhcurveto
            0 6 4 11 vhcurveto
            return
          </CharString>
          <CharString index="62">
            1 -1 vhcurveto
            return
          </CharString>
          <CharString index="63">
            -2 -2 vhcurveto
            return
          </CharString>
          <CharString index="64">
            0 29 -25 14 -5 vhcurveto
            return
          </CharString>
          <CharString index="65">
            679 -42 callgsubr
            -66 callgsubr
            return
          </CharString>
          <CharString index="66">
            -12 -14 -23 -3 -22 hhcurveto
            -29 -27 6 0 hvcurveto
            -11 -10 -19 -6 0 vvcurveto
            -10 -9 18 4 hvcurveto
            13 9 10 21 vvcurveto
            9 -25 5 -9 9 vhcurveto
            -6 6 -2 15 0 5 21 18 7 vvcurveto
            1 -1 1 0 vhcurveto
            return
          </CharString>
          <CharString index="67">
            rmoveto
            -7 -8 -15 -2 0 vvcurveto
            -8 -16 8 0 hvcurveto
            -4 5 -4 18 0 return
          </CharString>
          <CharString index="68">
            -14 -20 -3 -2 -1 hvcurveto
            return
          </CharString>
          <CharString index="69">
            -2 -3 -17 -13 -4 hhcurveto
            return
          </CharString>
          <CharString index="70">
            5 8 -2 0 hvcurveto
            3 -3 2 -17 10 callgsubr
            1 6 -1 6 30 29 -7 27 hhcurveto
            16 17 2 3 18 hvcurveto
            175 159 rmoveto
            -27 -4 -8 -14 -15 -61 -27 -10 hvcurveto
            -34 -10 -18 -30 return
          </CharString>
          <CharString index="71">
            hstemhm
            154 131 78 154 -154 215 -215 247 return
          </CharString>
          <CharString index="72">
            0 -20 15 23 vvcurveto
            13 33 13 0 return
          </CharString>
          <CharString index="73">
            -9 -8 -16 -1 0 vvcurveto
            -20 -4 7 0 hvcurveto
            2 -2 -5 1 -7 hhcurveto
            -18 -28 -5 0 hvcurveto
            -24 -22 -30 -11 vvcurveto
            -23 8 -15 0 vhcurveto
            15 45 -6 31 hhcurveto
            14 12 2 3 3 hvcurveto
            return
          </CharString>
          <CharString index="74">
            0 19 -6 6 vhcurveto
            5 33 12 8 hhcurveto
            8 140 -5 0 0 48 0 9 8 hvcurveto
            0 18 42 56 vvcurveto
            3 -8 2 -10 -8 -8 -1 -4 -6 vhcurveto
            -1 -1 -13 0 -17 hhcurveto
            return
          </CharString>
          <CharString index="75">
            832 -88 callgsubr
            -38 callgsubr
            return
          </CharString>
          <CharString index="76">
            rmoveto
            3 -2 43 39 vvcurveto
            23 0 21 3 12 vhcurveto
            return
          </CharString>
          <CharString index="77">
            0 4 -4 8 7 9 3 13 13 vhcurveto
            return
          </CharString>
          <CharString index="78">
            19 -19 -67 17 -26 hhcurveto
            -4 -3 -1 -1 -2 hvcurveto
            -14 -7 -65 -5 0 vvcurveto
            -9 -38 -76 -5 -6 24 -29 13 hvcurveto
            0 22 29 8 6 vhcurveto
            0 26 13 20 43 5 -39 -11 return
          </CharString>
          <CharString index="79">
            10 -22 7 6 vvcurveto
            return
          </CharString>
          <CharString index="80">
            vvcurveto
            1 vlineto
            return
          </CharString>
          <CharString index="81">
            0 -1 -85 -8 -21 -34 callgsubr
            -11 60 -33 21 vhcurveto
            0 54 7 19 18 vhcurveto
            endchar
          </CharString>
          <CharString index="82">
            -2 10 -69 -34 vvcurveto
            -10 -1 -6 82 callgsubr
            -32 -10 -4 -3 vhcurveto
            -6 -7 -29 -77 -20 vvcurveto
            -3 0 -1 3 2 3 1 1 5 vhcurveto
            0 36 4 29 vhcurveto
            return
          </CharString>
          <CharString index="83">
            49 callsubr
            -47 callsubr
            6 hlineto
            return
          </CharString>
          <CharString index="84">
            -2 -2 -1 -8 -8 vvcurveto
            -13 2 -16 0 vhcurveto
            return
          </CharString>
          <CharString index="85">
            9 4 -3 callsubr
            return
          </CharString>
          <CharString index="86">
            -6 28 -34 0 14 7 -5 -5 -10 -3 -11 0 vhcurveto
            -5 30 -48 7 -6 vhcurveto
            -2 1 5 0 6 hhcurveto
            14 21 3 2 1 hvcurveto
            2 2 18 13 3 hhcurveto
            return
          </CharString>
          <CharString index="87">
            38 callgsubr
            44 -86 68 -18 18 vhcurveto
            9 -9 -42 2 -43 hhcurveto
            -50 -50 -3 0 hvcurveto
            -8 -7 -17 0 hvcurveto
            -55 -125 -111 -11 -8 hvcurveto
            return
          </CharString>
          <CharString index="88">
            -7 15 6 -16 -16 -19 -6 -4 vvcurveto
            -84 31 -68 9 18 24 -58 0 vhcurveto
            -12 11 52 -35 19 hhcurveto
            3 9 11 1 3 hvcurveto
            1 -18 callgsubr
            hhcurveto
            return
          </CharString>
          <CharString index="89">
            21 callsubr
            7 -31 6 -3 -15 -43 -13 0 vhcurveto
            -88 callsubr
            return
          </CharString>
          <CharString index="90">
            -2 2 3 -50 callgsubr
            return
          </CharString>
          <CharString index="91">
            7 20 40 27 hhcurveto
            return
          </CharString>
          <CharString index="92">
            37 callgsubr
            -87 callsubr
            return
          </CharString>
          <CharString index="93">
            20 16 -2 -6 -33 -38 7 -9 -8 hvcurveto
            -2 -2 -1 -7 -8 -25 8 -46 -34 vvcurveto
            -24 -4 -18 -14 -1 0 -1 -3 vhcurveto
            -15 11 -53 -49 vvcurveto
            return
          </CharString>
          <CharString index="94">
            -78 -22 138 -123 -21 36 108 return
          </CharString>
          <CharString index="95">
            9 0 vhcurveto
            return
          </CharString>
          <CharString index="96">
            1 2 0 return
          </CharString>
          <CharString index="97">
            -9 -30 -55 -30 vvcurveto
            -8 62 -5 36 15 11 1 2 10 42 10 9 9 vhcurveto
            0 38 44 11 0 -9 20 54 vvcurveto
            2 -24 2 -3 return
          </CharString>
          <CharString index="98">
            rmoveto
            -4 -4 -10 -2 -11 hhcurveto
            -18 -22 5 4 3 12 43 13 23 hvcurveto
            return
          </CharString>
          <CharString index="99">
            0 3 -9 -7 vvcurveto
            -4 -1 -3 -44 callsubr
            -8 -8 -10 2 -6 vvcurveto
            return
          </CharString>
          <CharString index="100">
            164 -124 124 hstemhm
            return
          </CharString>
          <CharString index="101">
            0 -1 -45 callsubr
            return
          </CharString>
          <CharString index="102">
            10 callgsubr
            -1 return
          </CharString>
          <CharString index="103">
            -20 hstemhm
            28 223 -203 186 -186 203 -203 215 77 171 -158 178 -178 199 hintmask 1100101000000000
            return
          </CharString>
          <CharString index="104">
            10 0 vhcurveto
            return
          </CharString>
          <CharString index="105">
            -61 callgsubr
            12 -54 callgsubr
            -8 13 0 vhcurveto
            return
          </CharString>
          <CharString index="106">
            622 -88 callgsubr
            return
          </CharString>
          <CharString index="107">
            -30 callsubr
            endchar
          </CharString>
          <CharString index="108">
            124 -124 164 1 -20 hstemhm
            return
          </CharString>
          <CharString index="109">
            -6 19 -68 -35 -5 -8 -15 -7 vvcurveto
            -7 11 -6 4 -12 callgsubr
            7 -59 -4 vvcurveto
            -4 25 -8 6 6 39 15 8 vhcurveto
            return
          </CharString>
          <CharString index="110">
            0 37 -9 -30 -16 -38 -15 -11 -25 callgsubr
            0 5 -43 -41 vvcurveto
            -20 -1 -20 -4 -14 17 callgsubr
            -5 6 -7 44 vhcurveto
            return
          </CharString>
          <CharString index="111">
            -32 callsubr
            -37 callgsubr
            return
          </CharString>
          <CharString index="112">
            hstemhm
            5 179 71 138 -138 162 -162 181 return
          </CharString>
          <CharString index="113">
            14 -29 0 15 vvcurveto
            20 25 21 0 vhcurveto
            38 12 68 0 vhcurveto
            return
          </CharString>
          <CharString index="114">
            -8 -10 -4 0 return
          </CharString>
          <CharString index="115">
            -53 callsubr
            -26 -82 -55 -7 vhcurveto
            -20 23 -35 -32 -20 -14 -3 -7 return
          </CharString>
          <CharString index="116">
            3 vvcurveto
            2 -4 2 -19 vhcurveto
            return
          </CharString>
          <CharString index="117">
            16 0 vhcurveto
            return
          </CharString>
          <CharString index="118">
            10 vhcurveto
            0 return
          </CharString>
          <CharString index="119">
            -14 17 -62 -12 -14 -23 -43 -11 vvcurveto
            -10 17 2 13 -13 vhcurveto
            0 5 -13 -9 vvcurveto
            -3 -1 -2 -1 -2 vhcurveto
            return
          </CharString>
          <CharString index="120">
            5 62 22 11 20 50 -36 17 hhcurveto
            17 64 41 9 hvcurveto
            return
          </CharString>
          <CharString index="121">
            170 -170 190 -190 218 return
          </CharString>
          <CharString index="122">
            2 -1 2 17 callsubr
            return
          </CharString>
          <CharString index="123">
            18 62 26 14 1 1 return
          </CharString>
          <CharString index="124">
            -1 1 vhcurveto
            return
          </CharString>
          <CharString index="125">
            0 vhcurveto
            3 return
          </CharString>
          <CharString index="126">
            -8 12 -2 39 31 vvcurveto
            22 1 18 0 vhcurveto
            6 -30 -7 18 vvcurveto
            18 76 callsubr
            -1 1 0 return
          </CharString>
          <CharString index="127">
            0 -40 -41 -42 -10 -11 13 8 vhcurveto
            4 29 17 24 2 -1 2 2 vvcurveto
            -5 27 -2 34 31 vvcurveto
            return
          </CharString>
          <CharString index="128">
            36 callgsubr
            -22 callsubr
            return
          </CharString>
          <CharString index="129">
            0 hvcurveto
            -2 return
          </CharString>
          <CharString index="130">
            -20 hstemhm
            30 169 -153 153 74 148 -148 167 -167 185 hintmask 11101100
            return
          </CharString>
          <CharString index="131">
            -7 -7 -15 -2 -17 hhcurveto
            -30 -34 7 0 hvcurveto
            -3 hlineto
            -17 -26 -29 -7 hhcurveto
            -8 -7 18 5 return
          </CharString>
          <CharString index="132">
            vvcurveto
            -10 32 9 26 -26 vhcurveto
            0 14 -2 17 19 22 2 12 12 vhcurveto
            0 44 13 12 vvcurveto
            return
          </CharString>
          <CharString index="133">
            6 107 8 11 vvcurveto
            10 66 51 17 vhcurveto
            hintmask 11101000
            14 77 101 28 hvcurveto
            3 vlineto
            endchar
          </CharString>
          <CharString index="134">
            14 4 4 4 5 vvcurveto
            2 vlineto
            -2 9 -3 39 30 vvcurveto
            19 1 16 4 4 vhcurveto
            8 return
          </CharString>
          <CharString index="135">
            hstemhm
            154 127 49 166 -133 154 -154 215 -215 247 return
          </CharString>
          <CharString index="136">
            0 -23 0 -11 -12 vhcurveto
            -14 -17 -24 -43 -12 vvcurveto
            -1 -6 callsubr
            10 -10 return
          </CharString>
          <CharString index="137">
            42 vvcurveto
            7 17 10 18 callsubr
            17 -6 4 hhcurveto
            7 24 45 11 hvcurveto
            1 vlineto
            return
          </CharString>
          <CharString index="138">
            -7 -21 38 -21 26 -21 22 -21 789 -20 hstemhm
            14 95 43 110 -88 88 return
          </CharString>
          <CharString index="139">
            -15 -15 15 -51 -17 hhcurveto
            -49 return
          </CharString>
          <CharString index="140">
            -54 callsubr
            2 return
          </CharString>
          <CharString index="141">
            hstemhm
            21 210 -196 196 -183 155 -135 163 hintmask 11100000
            return
          </CharString>
          <CharString index="142">
            vvcurveto
            -10 -1 -9 -1 -7 vhcurveto
            0 -6 -24 -16 vvcurveto
            -5 1 -4 1 -3 vhcurveto
            return
          </CharString>
          <CharString index="143">
            5 0 hvcurveto
            -4 hlineto
            -12 return
          </CharString>
          <CharString index="144">
            -2 -3 -10 -4 -3 vvcurveto
            return
          </CharString>
          <CharString index="145">
            206 -134 134 return
          </CharString>
          <CharString index="146">
            -31 callsubr
            1 5 -28 -2 25 return
          </CharString>
          <CharString index="147">
            -162 185 -164 141 hintmask 11100000
            return
          </CharString>
          <CharString index="148">
            -11 -3 -21 -18 vvcurveto
            return
          </CharString>
          <CharString index="149">
            2 4 23 19 9 -27 callsubr
            -1 4 0 6 4 vvcurveto
            7 vlineto
            return
          </CharString>
          <CharString index="150">
            211 321 rmoveto
            5 3 40 53 7 hhcurveto
            3 20 -8 -7 hvcurveto
            return
          </CharString>
          <CharString index="151">
            187 319 rmoveto
            -5 -23 9 -14 hhcurveto
            -4 -3 -1 -2 -2 hvcurveto
            return
          </CharString>
          <CharString index="152">
            hstemhm
            47 165 -138 138 -98 121 -121 133 return
          </CharString>
          <CharString index="153">
            hhcurveto
            -63 callsubr
            -1 -1 hvcurveto
            return
          </CharString>
          <CharString index="154">
            -11 11 -3 61 49 vvcurveto
            return
          </CharString>
          <CharString index="155">
            rmoveto
            8 -64 42 -17 vhcurveto
            return
          </CharString>
          <CharString index="156">
            -15 1 -21 3 -2 vhcurveto
            return
          </CharString>
          <CharString index="157">
            hstemhm
            5 164 -164 return
          </CharString>
          <CharString index="158">
            8 callgsubr
            2 return
          </CharString>
          <CharString index="159">
            28 -15 -15 -28 -30 -11 -6 vvcurveto
            -11 19 -74 42 -66 vhcurveto
            return
          </CharString>
          <CharString index="160">
            rmoveto
            -1 0 1 -1 hhcurveto
            -2 -1 hlineto
            195 -426 rmoveto
            return
          </CharString>
          <CharString index="161">
            -19 19 -55 28 -7 1 rrcurveto
            -3 hlineto
            -7 -5 -2 -3 -60 return
          </CharString>
          <CharString index="162">
            9 9 113 25 27 26 rrcurveto
            44 44 30 55 5 return
          </CharString>
          <CharString index="163">
            46 callgsubr
            2 16 1 21 return
          </CharString>
          <CharString index="164">
            -131 -51 -36 0 hvcurveto
            -69 -69 -45 -150 -12 vvcurveto
            return
          </CharString>
          <CharString index="165">
            -20 hstemhm
            20 217 -192 158 -135 154 return
          </CharString>
          <CharString index="166">
            -40 -4 -63 -25 vvcurveto
            -8 vlineto
            -8 1 -48 -43 -24 hhcurveto
            return
          </CharString>
          <CharString index="167">
            -20 65 callgsubr
            return
          </CharString>
          <CharString index="168">
            -57 vvcurveto
            -2 9 -2 10 8 8 1 3 5 vhcurveto
            1 return
          </CharString>
          <CharString index="169">
            9 vvcurveto
            12 -15 7 -3 9 vhcurveto
            return
          </CharString>
          <CharString index="170">
            50 callsubr
            193 return
          </CharString>
          <CharString index="171">
            7 -27 callsubr
            return
          </CharString>
          <CharString index="172">
            hvcurveto
            0 19 17 13 3 3 -1 -2 2 vhcurveto
            0 return
          </CharString>
          <CharString index="173">
            hstemhm
            28 224 -206 188 -188 206 return
          </CharString>
          <CharString index="174">
            -11 10 -75 -109 vvcurveto
            return
          </CharString>
          <CharString index="175">
            -4 -15 callgsubr
            return
          </CharString>
          <CharString index="176">
            -5 5 152 -137 -21 776 -20 hstemhm
            return
          </CharString>
          <CharString index="177">
            2 2 0 6 9 vvcurveto
            20 -3 31 0 vhcurveto
            return
          </CharString>
          <CharString index="178">
            75 callsubr
            15 callsubr
            return
          </CharString>
          <CharString index="179">
            hstemhm
            5 172 89 127 return
          </CharString>
          <CharString index="180">
            4 18 -15 0 hvcurveto
            return
          </CharString>
          <CharString index="181">
            -2 -1 0 -2 hhcurveto
            return
          </CharString>
          <CharString index="182">
            9 19 32 14 vvcurveto
            return
          </CharString>
          <CharString index="183">
            26 21 0 vhcurveto
            return
          </CharString>
          <CharString index="184">
            -4 callgsubr
            1 return
          </CharString>
          <CharString index="185">
            hintmask 11100000
            62 852 rmoveto
            -12 -40 -22 -9 return
          </CharString>
          <CharString index="186">
            8 5 12 104 9 vvcurveto
            10 -82 11 -41 return
          </CharString>
          <CharString index="187">
            178 -160 121 -121 180 return
          </CharString>
          <CharString index="188">
            185 -185 209 -189 177 return
          </CharString>
        <CharString name=".notdef">
          -285 endchar
        </CharString>
        <CharString name="A">
          -50 callsubr
          -36 callsubr
          hintmask 11111001
          -84 callsubr
          vvcurveto
          hintmask 11111010
          50 callgsubr
          hintmask 11111100
          -95 callgsubr
        </CharString>
        <CharString name="AE">
          327 -23 -21 28 146 -114 114 128 134 -41 114 91 212 -160 160 -102 83 -83 102 2 -20 hstemhm
          153 131 46 240 -208 242 -228 194 hintmask 1101000010100100
          319 392 rmoveto
          -21 -15 -13 -20 hhcurveto
          -4 0 21 0 hvcurveto
          29 25 43 14 9 -4 20 18 vvcurveto
          hintmask 1011010000101000
          5 3 18 37 10 0 -10 -11 vhcurveto
          -11 vlineto
          -25 1 -62 12 -35 vhcurveto
          -1 -5 callgsubr
          -4 -5 -3 -20 vhcurveto
          42 376 rmoveto
          -19 -24 -1 -3 -14 hvcurveto
          -9 -2 -154 -78 -14 -9 12 -43 -7 -45 -46 22 callgsubr
          21 -18 -13 vvcurveto
          -7 -29 -30 -18 vhcurveto
          0 -29 -84 -15 -20 17 callgsubr
          -2 0 -3 3 -12 callgsubr
          51 -34 20 50 91 26 9 55 19 141 6 13 vhcurveto
          11 6 52 19 23 hhcurveto
          35 20 -14 -17 hvcurveto
          -17 -36 6 -8 vvcurveto
          hintmask 1100100010110000
          0 22 -120 -17 -32 -7 -30 -4 vvcurveto
          -10 61 -39 47 40 101 11 24 1 -8 14 -1 14 vhcurveto
          -1 24 18 -7 12 14 -4 4 62 25 21 -6 11 hhcurveto
          3 3 -54 callsubr
          hvcurveto
          14 14 38 138 7 vvcurveto
          21 -49 44 -11 -4 -26 -62 -30 -30 vhcurveto
          -12 -13 -25 -2 -16 hhcurveto
          -42 -24 4 13 -13 hvcurveto
          hintmask 1101001000110000
          -11 11 -3 64 52 vvcurveto
          37 2 30 2 3 vhcurveto
          6 6 50 1 24 32 14 -18 7 hhcurveto
          18 41 98 35 8 -7 0 -24 hvcurveto
          -26 -86 58 callgsubr
          27 callsubr
          8 43 15 14 hhcurveto
          hintmask 1101000101110000
          72 -2 -58 14 35 callgsubr
          hintmask 1101000010110000
          -69 -60 -19 -22 -18 4 21 -24 hhcurveto
          -38 -54 -7 -9 -31 hvcurveto
          hintmask 1101010000110000
          6 -16 -32 8 -28 hhcurveto
          endchar
        </CharString>
        <CharString name="Aacute">
          97 -25 -21 49 -21 408 164 212 194 28 callsubr
          hintmask 1111101000000000
          428 917 rmoveto
          -107 callgsubr
          -85 -516 rmoveto
          -1 -5 callgsubr
          -4 -5 -4 -19 vhcurveto
          -22 -15 -13 -19 hhcurveto
          -5 0 22 0 hvcurveto
          28 26 43 15 8 -4 20 18 vvcurveto
          5 2 18 38 9 0 -9 -12 vhcurveto
          hintmask 1111110000000000
          -4 vlineto
          -18 1 -72 12 -38 vhcurveto
          121 -447 rmoveto
          hintmask 1111101000000000
          39 107 32 24 2 -26 36 -4 22 hvcurveto
          -2 11 -1 7 4 vvcurveto
          hintmask 1111100100000000
          4 -11 callsubr
          vhcurveto
          hintmask 1111100010000000
          20 -61 -15 32 20 31 9 64 callsubr
          -22 65 -31 305 27 4 -20 -2 9 vvcurveto
          hintmask 1111110000000000
          -79 callgsubr
        </CharString>
        <CharString name="Acircumflex">
          -50 callsubr
          74 124 -36 callsubr
          hintmask 1111110010000000
          478 4 callsubr
          -39 callsubr
          -38 callsubr
          -74 callgsubr
          -75 callgsubr
          -92 callgsubr
          -86 callsubr
          -80 callsubr
          -135 -431 rmoveto
          hintmask 1111110100000000
          -1 -5 callgsubr
          hintmask 1111111000000000
          -107 callsubr
          -46 -47 22 callgsubr
          22 -18 -13 vvcurveto
          -7 -29 -30 -19 vhcurveto
          0 -28 -83 -16 -20 17 callgsubr
          -2 0 -4 3 -12 callgsubr
          52 -34 20 49 92 26 10 -100 callsubr
          endchar
        </CharString>
        <CharString name="Adieresis">
          -50 callsubr
          177 -20 hstemhm
          154 131 68 134 -134 142 -142 164 -164 225 hintmask 1111111000000000
          281 889 rmoveto
          6 -19 16 0 vhcurveto
          -66 callgsubr
          -89 callsubr
          hintmask 1111110001000000
          -77 callsubr
          -43 callsubr
          hintmask 1111110010000000
          -27 callgsubr
          hintmask 1111110100000000
          6 21 27 10 hhcurveto
          3 7 5 5 5 hvcurveto
          -151 -437 rmoveto
          -1 -5 callgsubr
          -107 callsubr
          -46 -47 22 callgsubr
          22 -18 -13 vvcurveto
          -7 -29 -30 -19 vhcurveto
          0 -28 -83 -16 -20 17 callgsubr
          -2 0 -4 3 -12 callgsubr
          52 -34 20 49 92 26 10 -100 callsubr
          endchar
        </CharString>
        <CharString name="Agrave">
          -50 callsubr
          192 -20 28 callsubr
          hintmask 1111110100000000
          404 835 rmoveto
          -19 19 -44 91 51 callsubr
          -50 10 -5 1 rrcurveto
          -23 -54 -30 -5 hvcurveto
          -3 39 -38 -2 vvcurveto
          1 hlineto
          2 7 1 5 hhcurveto
          4 2 0 -2 2 hvcurveto
          2 -2 1 -5 -5 vvcurveto
          -10 vlineto
          -3 0 -2 1 vhcurveto
          8 47 -45 9 hhcurveto
          39 28 20 7 hvcurveto
          -61 -433 rmoveto
          -1 -5 callgsubr
          -4 -5 -4 -19 vhcurveto
          -22 -15 -13 -19 hhcurveto
          -5 0 22 0 hvcurveto
          28 26 43 15 8 -4 20 18 vvcurveto
          5 2 18 38 9 0 -9 -12 vhcurveto
          hintmask 1111111000000000
          -4 vlineto
          -18 1 -72 12 -38 vhcurveto
          121 -447 rmoveto
          hintmask 1111110100000000
          39 107 32 24 2 -26 36 -4 22 hvcurveto
          -2 11 -1 7 4 vvcurveto
          hintmask 1111110010000000
          4 -11 callsubr
          vhcurveto
          hintmask 1111110001000000
          20 -61 -15 32 20 31 9 64 callsubr
          -22 65 -31 305 27 4 -20 -2 9 vvcurveto
          hintmask 1111111000000000
          -79 callgsubr
        </CharString>
        <CharString name="Aring">
          -50 callsubr
          200 -20 -36 callsubr
          hintmask 1111110010000000
          338 860 -40 callsubr
          -103 callgsubr
          67 -397 rmoveto
          hintmask 1111110100000000
          -1 -5 callgsubr
          hintmask 1111111000000000
          -107 callsubr
          -46 -47 22 callgsubr
          22 -18 -13 vvcurveto
          -7 -29 -30 -19 vhcurveto
          0 -28 -83 -16 -20 17 callgsubr
          -2 0 -4 3 -12 callgsubr
          52 -34 20 49 92 26 10 -100 callsubr
          endchar
        </CharString>
        <CharString name="Atilde">
          -50 callsubr
          63 73 -36 callsubr
          hintmask 1111110010000000
          -84 callsubr
          -46 -47 22 callgsubr
          22 -18 -13 vvcurveto
          -7 -29 -30 -19 vhcurveto
          0 -28 -83 -16 -20 17 callgsubr
          -2 0 -4 3 -12 callgsubr
          52 -34 20 vhcurveto
          hintmask 1111110100000000
          49 92 26 10 hvcurveto
          hintmask 1111111000000000
          -100 callsubr
          5 889 -39 callgsubr
          13 callsubr
          endchar
        </CharString>
        <CharString name="B">
          54 -11 -21 27 -21 665 138 9 -20 hstemhm
          41 210 -184 184 -166 166 76 68 -68 167 -167 195 -170 202 hintmask 1010010010000000
          324 520 rmoveto
          hintmask 1010100000100000
          -27 -46 -8 -9 vvcurveto
          -7 -31 -10 0 -6 -8 17 8 vhcurveto
          8 18 25 8 31 -5 44 11 vvcurveto
          2 vlineto
          hintmask 1010100010000000
          5 1 21 21 21 hhcurveto
          14 24 -36 -18 hvcurveto
          -3 -11 -23 -13 -15 8 -1 -10 vvcurveto
          28 -311 rmoveto
          -9 -18 -44 -14 -14 vhcurveto
          hintmask 1010100000100000
          -9 -10 -40 -8 -8 hhcurveto
          -8 -9 23 26 19 3 23 1 14 hvcurveto
          9 vlineto
          hintmask 1010100100000000
          22 -3 13 8 vvcurveto
          5 23 42 18 3 38 -14 -18 vhcurveto
          -10 -8 -15 -9 -13 32 -20 -21 vvcurveto
          hintmask 1010100001000000
          91 -189 rmoveto
          22 15 43 39 10 vvcurveto
          hintmask 1001010100000000
          2 -14 14 15 vvcurveto
          11 17 11 5 3 vhcurveto
          4 2 19 2 1 10 rrcurveto
          hintmask 1010100100000000
          2 21 12 35 35 vvcurveto
          93 -79 84 -9 vhcurveto
          -28 -24 -23 -9 hhcurveto
          hintmask 1010001100000000
          -6 -4 15 0 35 50 16 31 31 hvcurveto
          25 25 21 45 71 7 -39 -4 19 21 26 13 5 vvcurveto
          25 -91 54 -37 vhcurveto
          -50 -84 -59 -7 -10 -25 68 -17 hhcurveto
          -23 -44 -22 0 hvcurveto
          -28 -73 -43 -17 hvcurveto
          -6 47 -63 -24 -16 -26 -17 -18 -11 15 -14 -11 vvcurveto
          hintmask 0110100100000000
          -14 vlineto
          -29 3 -52 -46 vvcurveto
          -32 -2 -28 -5 -16 -34 callgsubr
          -8 33 -12 -25 -22 -30 -4 -4 -18 2 -14 -13 -96 -27 -35 -11 vvcurveto
          -14 90 -62 49 vhcurveto
          17 22 37 8 11 66 -31 33 hhcurveto
          30 70 35 11 17 hvcurveto
          endchar
        </CharString>
        <CharString name="C">
          19 -23 149 -107 -21 657 117 hstemhm
          26 81 callsubr
          99 155 -139 181 hintmask 10100101
          519 153 rmoveto
          4 -27 48 -6 6 vhcurveto
          54 callsubr
          -69 -68 -14 -45 -39 67 20 hvcurveto
          2 vlineto
          2 11 0 16 16 vvcurveto
          48 vlineto
          20 0 17 3 12 vhcurveto
          1 5 -26 9 17 vvcurveto
          hintmask 10101010
          15 32 10 21 vvcurveto
          hintmask 10110010
          21 -24 7 11 45 14 35 14 2 -1 1 1 vvcurveto
          hintmask 10100110
          -1 3 0 3 3 vvcurveto
          32 41 45 33 67 callgsubr
          hintmask 10110001
          -10 17 -4 -20 vvcurveto
          hintmask 10110010
          -21 -3 -50 -13 -14 vhcurveto
          -1 0 -1 -1 -5 10 -13 6 55 42 14 0 hvcurveto
          14 5 43 48 7 10 rrcurveto
          11 17 2 26 16 vvcurveto
          10 -1 6 0 vhcurveto
          10 -33 10 17 20 20 16 5 vvcurveto
          7 -48 74 62 callgsubr
          -35 -4 11 -22 -12 -34 -22 -48 -47 -12 5 -53 -31 vvcurveto
          -8 0 -6 -1 -4 vhcurveto
          hintmask 10100110
          -1 -6 52 callsubr
          -32 21 96 -58 28 75 57 38 14 hhcurveto
          hintmask 01110001
          15 6 -17 7 hhcurveto
          18 105 100 55 hvcurveto
          endchar
        </CharString>
        <CharString name="Ccedilla">
          19 -186 50 155 -21 657 117 hstemhm
          25 81 callsubr
          -21 131 -11 155 -139 181 hintmask 1110001010000000
          228 -21 rmoveto
          -10 -13 -17 -32 -12 vvcurveto
          -3 1 -1 2 15 53 -15 -2 2 vhcurveto
          0 1 -2 -3 vvcurveto
          -8 -3 -16 -6 -15 callgsubr
          -8 -4 -15 -7 -10 1 3 -10 vhcurveto
          -1 hlineto
          -6 -15 -25 -11 -2 1 -1 1 -1 hvcurveto
          0 36 -14 26 7 7 1 3 5 vhcurveto
          0 28 16 14 17 vhcurveto
          13 15 0 15 22 vvcurveto
          5 vlineto
          20 -50 15 -13 5 vhcurveto
          -3 1 -1 3 3 vvcurveto
          10 14 10 callsubr
          10 53 23 24 12 15 6 -17 7 hhcurveto
          18 105 100 55 5 -27 47 -6 6 hvcurveto
          54 callsubr
          -70 -68 -13 hvcurveto
          hintmask 1110010100000000
          -45 -39 67 20 hvcurveto
          2 vlineto
          1 10 1 13 14 18 -1 20 19 vvcurveto
          18 1 17 3 11 vhcurveto
          1 5 -26 9 17 vvcurveto
          hintmask 1110100100000000
          15 32 11 20 vvcurveto
          hintmask 1111000100000000
          21 -24 8 11 44 14 35 15 2 -1 1 1 vvcurveto
          -1 3 -1 4 3 vvcurveto
          31 43 44 32 67 callgsubr
          hintmask 1111000010000000
          -10 17 -3 -20 vvcurveto
          -22 -3 -50 -14 -13 17 callgsubr
          -6 10 -13 6 55 42 15 0 vhcurveto
          14 4 43 48 7 10 rrcurveto
          11 18 1 27 17 vvcurveto
          14 vlineto
          hintmask 1111000100000000
          10 -33 9 18 19 20 16 5 vvcurveto
          8 -48 73 62 callgsubr
          -34 -4 11 -23 -11 -34 -22 -49 -47 -12 5 -53 -30 vvcurveto
          -8 0 -6 -1 -4 vhcurveto
          hintmask 1110010100000000
          -1 -7 52 callsubr
          18 -29 98 -49 36 -10 rrcurveto
          endchar
        </CharString>
        <CharString name="D">
          50 -15 121 -104 -21 33 -21 785 29 callgsubr
          hintmask 1001100100000000
          hintmask 1001010010000000
          322 147 rmoveto
          hintmask 0101100100000000
          20 callsubr
          38 4 34 5 13 vhcurveto
          8 19 1 33 0 vvcurveto
          hintmask 1001100010000000
          10 -26 7 18 -75 callsubr
          hintmask 1001001100000000
          8 4 9 64 0 vvcurveto
          39 15 13 0 vhcurveto
          2 1 1 3 5 9 -3 16 19 7 2 44 31 10 -1 9 5 vvcurveto
          -1 17 -8 50 -3 16 rrcurveto
          -3 19 -37 6 15 vvcurveto
          hintmask 0011100100000000
          -51 callgsubr
          -28 vlineto
          -52 -1 -108 -9 -38 vhcurveto
          hintmask 0101100100000000
          -1 vlineto
          -10 36 -10 -26 -22 -31 -3 -7 12 callgsubr
          -13 -1 -69 -16 -24 vhcurveto
          -63 callsubr
          -1 vvcurveto
          -6 9 -13 6 -12 callgsubr
          74 -19 54 vhcurveto
          22 70 8 4 11 0 -12 6 hhcurveto
          endchar
        </CharString>
        <CharString name="E">
          -36 callgsubr
          2 60 callsubr
          hintmask 1001001010000000
          451 11 rmoveto
          -79 callsubr
          hintmask 1001100010000000
          47 callsubr
          hintmask 1001010110000000
          47 callgsubr
          6 6 50 2 24 32 14 -19 7 hhcurveto
          18 41 107 35 8 -7 1 -24 hvcurveto
          -26 -90 -9 -47 hhcurveto
          -18 -12 1 4 14 7 21 16 5 hvcurveto
          13 4 4 3 5 vvcurveto
          3 vlineto
          hintmask 1001100000100000
          -2 9 -3 36 30 vvcurveto
          20 2 18 4 4 vhcurveto
          hintmask 1001100001000000
          9 8 43 14 14 48 callgsubr
          31 5 7 6 hvcurveto
          hintmask 0101100010000000
          7 7 23 83 42 vvcurveto
          76 callgsubr
          1 callgsubr
          hintmask 0011100010000000
          -75 -126 -12 -16 hvcurveto
          -99 38 -39 -18 -27 -20 1 -7 -12 7 -49 -51 vvcurveto
          -96 callgsubr
        </CharString>
        <CharString name="Eacute">
          71 callgsubr
          129 213 0 123 0 142 0 163 -105 83 22 191 66 callgsubr
          hintmask 0100101001000000
          350 917 rmoveto
          -107 callgsubr
          101 -906 rmoveto
          -79 callsubr
          47 callsubr
          47 callgsubr
          hintmask 0010101001000000
          6 6 50 2 24 32 14 -19 7 hhcurveto
          18 41 107 35 8 -7 1 -24 hvcurveto
          -26 -90 -9 -47 hhcurveto
          -18 -12 1 4 14 7 21 16 5 hvcurveto
          13 4 4 3 5 vvcurveto
          3 vlineto
          -2 9 -3 36 30 vvcurveto
          20 2 18 4 4 vhcurveto
          9 8 43 14 14 hhcurveto
          hintmask 1000101000100000
          25 callgsubr
          hintmask 1000101000010000
          1 callgsubr
          hintmask 1000101000100000
          18 callgsubr
          hintmask 1000101001000000
          -2 vlineto
          -5 5 -5 -17 -33 -18 -64 -7 vvcurveto
          hintmask 1000100111000000
          -7 36 -5 -29 vvcurveto
          -19 -26 -5 1 -5 vhcurveto
          2 -7 0 -8 -8 -44 -21 -53 -8 vvcurveto
          hintmask 1000010111000000
          -10 43 -8 14 vhcurveto
          36 23 14 53 hhcurveto
          hintmask 0011010111000000
          21 12 -5 9 hhcurveto
          5 4 1 5 5 hvcurveto
          5 4 4 12 10 14 12 -12 12 14 10 5 61 26 20 -6 11 hhcurveto
          4 3 0 2 1 hvcurveto
          endchar
        </CharString>
        <CharString name="Ecircumflex">
          -36 callgsubr
          33 164 -124 124 65 callgsubr
          hintmask 1001100101000000
          415 4 callsubr
          hintmask 1001001011000000
          -39 callsubr
          hintmask 1001100101000000
          -38 callsubr
          -74 callgsubr
          -75 callgsubr
          -92 callgsubr
          -16 callsubr
          hintmask 1001010101000000
          -16 callgsubr
          0 30 38 5 vhcurveto
          hintmask 1001100100010000
          8 16 -24 -18 -5 15 -2 2 -1 hvcurveto
          0 38 -42 -3 vvcurveto
          hintmask 1001100100100000
          -2 3 -2 20 vhcurveto
          -80 callsubr
          36 -821 rmoveto
          hintmask 0101100101000000
          -99 callsubr
          9 8 43 14 14 25 callgsubr
          1 callgsubr
          -59 callsubr
          hintmask 0011100101000000
          -96 callgsubr
        </CharString>
        <CharString name="Edieresis">
          -36 callgsubr
          176 60 callsubr
          -22 38 callsubr
          -134 146 hintmask 1001100100010000
          214 -18 callsubr
          49 callsubr
          hintmask 1001001110000100
          -47 callsubr
          hintmask 1001100110001000
          6 hlineto
          -47 callgsubr
          -104 callsubr
          213 -51 rmoveto
          hintmask 1001010110001000
          -28 callgsubr
          -28 callsubr
          hintmask 1001100100101000
          -73 callsubr
          7 callsubr
          vhcurveto
          hintmask 1001100101001000
          -29 callgsubr
          -77 callsubr
          -43 callsubr
          hintmask 0101100110001000
          -27 callgsubr
          6 21 27 10 hhcurveto
          3 7 5 5 5 hvcurveto
          24 -827 rmoveto
          -99 callsubr
          9 8 43 14 14 -40 callgsubr
          hintmask 0011100110001000
          76 callgsubr
          1 callgsubr
          -75 -126 -12 -16 hvcurveto
          -99 38 -39 -18 -27 -20 1 -7 -12 7 -49 -51 vvcurveto
          -96 callgsubr
        </CharString>
        <CharString name="Egrave">
          71 callgsubr
          342 123 142 163 -105 83 -83 143 151 -20 66 callgsubr
          hintmask 0101100110000000
          352 835 rmoveto
          -19 19 -44 91 51 callsubr
          -50 10 -5 1 rrcurveto
          -23 -54 -30 -5 hvcurveto
          -3 39 -38 -2 vvcurveto
          1 hlineto
          2 7 1 5 hhcurveto
          4 2 0 -2 2 hvcurveto
          2 -2 1 -5 -5 vvcurveto
          -10 vlineto
          -3 0 -2 1 vhcurveto
          8 47 -45 9 hhcurveto
          39 28 20 7 hvcurveto
          99 -823 rmoveto
          -99 callsubr
          hintmask 0011100110000000
          9 8 43 14 14 hhcurveto
          hintmask 1001100101000000
          25 callgsubr
          hintmask 1001100100100000
          1 callgsubr
          hintmask 1001100101000000
          18 callgsubr
          hintmask 1001100110000000
          -2 vlineto
          -5 5 -5 -17 -33 -18 -64 -7 vvcurveto
          hintmask 1001010110000000
          -7 36 -5 -29 vvcurveto
          -19 -26 -5 1 -5 vhcurveto
          2 -7 0 -8 -8 -44 -21 -53 -8 vvcurveto
          hintmask 1001100110000000
          -10 43 -8 14 vhcurveto
          36 23 14 53 hhcurveto
          hintmask 1001001110000000
          21 12 -5 9 hhcurveto
          5 4 1 5 5 hvcurveto
          5 4 4 12 10 14 12 -12 12 14 10 5 61 26 20 -6 11 hhcurveto
          4 3 0 2 1 hvcurveto
          endchar
        </CharString>
        <CharString name="Eth">
          50 -15 121 -104 -21 33 -21 325 112 348 29 callgsubr
          hintmask 1001110010000000
          hintmask 1001101001000000
          322 147 rmoveto
          hintmask 0101110010000000
          20 callsubr
          21 1 20 2 16 vhcurveto
          14 -2 3 -6 0 vvcurveto
          hintmask 1001110001000000
          -17 callsubr
          30 10 vvcurveto
          24 -9 19 callgsubr
          -15 -32 6 -23 hhcurveto
          -2 3 -2 4 5 -75 callsubr
          hintmask 1001100110000000
          8 4 9 64 0 vvcurveto
          39 15 13 0 vhcurveto
          2 1 1 3 5 9 -3 16 19 7 2 44 31 10 -1 9 5 vvcurveto
          -1 17 -8 50 -3 16 rrcurveto
          -3 19 -37 6 15 vvcurveto
          hintmask 0011110010000000
          -51 callgsubr
          -13 vlineto
          -14 -25 -1 -7 -7 hvcurveto
          hintmask 0101110010000000
          0 -18 -41 -57 vvcurveto
          -2 8 46 callgsubr
          9 1 13 hhcurveto
          -1 -43 -3 -44 -5 -21 rrcurveto
          -1 vlineto
          -10 36 -10 -26 -22 -31 -3 -7 12 callgsubr
          -13 -1 -69 -16 -24 vhcurveto
          -63 callsubr
          -1 vvcurveto
          -6 9 -13 6 -12 callgsubr
          74 -19 54 vhcurveto
          22 70 8 4 11 0 -12 6 hhcurveto
          endchar
        </CharString>
        <CharString name="Euro">
          69 -21 133 -114 -21 43 -21 225 116 75 121 -108 108 117 106 -106 124 -1 -20 hstemhm
          91 200 -171 171 hintmask 1001101001000000
          537 145 rmoveto
          -6 -13 -17 -5 -9 hvcurveto
          -8 -13 -31 -3 -28 hhcurveto
          -31 -29 3 4 -3 hvcurveto
          hintmask 1001100011000000
          -6 6 -10 19 0 vvcurveto
          -10 11 -23 -10 -14 14 rrcurveto
          -18 18 -2 30 12 vvcurveto
          5 vlineto
          8 57 1 0 vhcurveto
          5 23 -9 14 hhcurveto
          hintmask 1001101001000000
          4 3 1 2 2 hvcurveto
          9 8 16 -2 callgsubr
          20 4 -13 22 callsubr
          2 3 -1 4 hhcurveto
          10 14 5 0 hvcurveto
          24 21 36 11 vvcurveto
          23 -8 15 0 vhcurveto
          2 -2 -33 4 -26 hhcurveto
          -15 -12 -1 -4 -4 hvcurveto
          -3 -3 -21 -1 -23 hhcurveto
          -31 -34 2 4 -4 hvcurveto
          -2 2 -1 8 10 vvcurveto
          23 4 34 0 vhcurveto
          6 22 10 callsubr
          17 10 -21 5 hhcurveto
          70 hlineto
          40 25 0 -3 8 hvcurveto
          1 hlineto
          hintmask 1001010101000000
          11 9 50 0 hvcurveto
          hintmask 1001101000100000
          27 -20 40 -4 4 vhcurveto
          2 -2 -19 1 -23 hhcurveto
          hintmask 0111101001000000
          -32 -38 -2 -4 -4 hvcurveto
          -2 -2 -8 -1 -10 hhcurveto
          -18 -24 4 8 9 9 39 0 hvcurveto
          47 47 67 19 10 hhcurveto
          41 59 -23 0 hvcurveto
          7 37 27 0 hvcurveto
          11 callgsubr
          2 3 vvcurveto
          21 -17 71 0 vhcurveto
          20 -21 -100 1 -16 hhcurveto
          -2 hlineto
          -6 -2 -17 -16 hhcurveto
          -10 -20 18 0 hvcurveto
          -83 -74 -33 0 hvcurveto
          -53 -32 -12 -75 -32 -12 -9 -4 3 -76 -6 -6 rrcurveto
          -2 -2 -5 -1 -8 -9 -12 1 -9 hhcurveto
          -7 -5 0 -2 -3 hvcurveto
          0 -38 -63 -32 vvcurveto
          0 11 -23 6 vhcurveto
          1 hlineto
          0 40 11 20 7 4 -2 -12 callgsubr
          -3 -80 -5 vvcurveto
          0 -48 0 -9 -8 vhcurveto
          0 -18 -47 -56 vvcurveto
          -2 9 -3 10 7 9 2 3 5 vhcurveto
          -54 callsubr
          3 hhcurveto
          15 44 -8 -11 hvcurveto
          -29 -25 -1 -8 vvcurveto
          -13 27 -96 25 15 28 -59 -15 33 vhcurveto
          -5 12 59 -4 44 hhcurveto
          25 19 1 3 4 hvcurveto
          0 19 16 9 vhcurveto
          16 3 -22 12 hhcurveto
          0 78 3 14 14 vhcurveto
          0 41 103 21 vvcurveto
          8 -34 19 -7 vhcurveto
          endchar
        </CharString>
        <CharString name="F">
          -21 7 -21 360 131 174 84 -84 108 7 -20 21 -20 hstemhm
          20 211 -187 187 -187 205 hintmask 1110010010000000
          246 44 rmoveto
          2 1 1 2 2 vvcurveto
          hintmask 1101001000000000
          11 -18 29 51 37 6 82 3 vvcurveto
          17 -2 4 -2 vhcurveto
          -1 hlineto
          -1 -7 -6 -1 -5 hhcurveto
          -16 -9 6 7 16 22 36 98 56 20 -9 -5 12 hvcurveto
          1 1 -1 1 hhcurveto
          1 hlineto
          13 32 69 59 6 -1 8 -2 2 hvcurveto
          1 -1 -8 1 -12 -35 -71 -4 -42 hhcurveto
          -19 -13 1 2 -2 hvcurveto
          -5 5 -2 20 20 vvcurveto
          22 2 21 0 vhcurveto
          5 8 5 7 17 -21 5 7 vvcurveto
          11 60 30 41 48 4 -42 -12 vhcurveto
          -3 vlineto
          -11 38 -1 0 15 17 5 3 3 vhcurveto
          13 13 20 77 4 16 rrcurveto
          2 vlineto
          2 11 2 19 13 vvcurveto
          7 -1 5 -1 2 vhcurveto
          hintmask 1110011000000000
          -3 2 -51 10 0 vvcurveto
          hintmask 1101001000000000
          -13 -10 -8 -16 hhcurveto
          hintmask 1110101000000000
          -63 -42 -24 -33 hhcurveto
          -12 1 16 3 -4 hvcurveto
          7 -7 -76 5 -6 hhcurveto
          -5 -5 -3 0 hvcurveto
          -13 -122 -1 -14 vvcurveto
          hintmask 1110010100000000
          -17 11 -67 13 -8 vhcurveto
          2 -2 7 -4 -5 -11 -12 -8 -3 -13 3 -46 -51 vvcurveto
          -28 -4 -31 -1 -10 vhcurveto
          -1 -4 31 -4 -19 -18 -32 -17 -5 -5 7 -24 -35 -6 -1 -6 -6 vvcurveto
          -4 vlineto
          -1 -20 -1 -18 -15 -25 1 -17 -8 vvcurveto
          -4 vlineto
          -5 -13 -20 -20 -11 20 -3 -10 -41 -21 -28 -17 vvcurveto
          -6 47 -24 45 41 59 47 11 26 vhcurveto
          endchar
        </CharString>
        <CharString name="G">
          29 5 -21 660 118 hstemhm
          10 205 -180 180 -180 207 28 240 -188 188 -169 169 -169 187 hintmask 1110010000000000
          519 107 rmoveto
          38 -9 22 84 16 18 35 27 11 -29 2 13 vvcurveto
          29 22 11 6 5 vhcurveto
          -54 callsubr
          4 6 vvcurveto
          19 -5 35 -5 5 vhcurveto
          -7 7 -54 -2 callgsubr
          -49 -8 -6 -2 -2 hvcurveto
          -8 -8 -16 -2 -16 -10 -9 1 -8 hhcurveto
          hintmask 1110000010000000
          -8 -6 0 -3 -3 hvcurveto
          -11 -11 -34 -60 -46 vvcurveto
          -2 2 -1 4 vhcurveto
          9 16 4 12 hhcurveto
          3 2 0 -1 2 hvcurveto
          5 -1 16 -11 -20 -20 -19 -11 -4 -40 17 -8 -12 vvcurveto
          -34 -33 -52 -13 -5 -20 4 3 -3 vhcurveto
          -19 19 -4 24 17 vvcurveto
          11 2 8 0 vhcurveto
          7 -20 10 -7 7 vhcurveto
          -2 2 0 15 21 vvcurveto
          50 4 85 4 13 vhcurveto
          3 6 10 15 16 7 -33 8 11 vvcurveto
          4 6 9 3 4 vhcurveto
          5 4 17 6 5 vvcurveto
          34 14 47 5 5 vhcurveto
          hintmask 1110010000000000
          23 23 48 16 9 hhcurveto
          51 15 -38 -10 10 hvcurveto
          -1 1 3 -1 4 hhcurveto
          10 14 3 4 4 hvcurveto
          4 5 21 50 8 39 rrcurveto
          2 9 0 9 8 vvcurveto
          11 -1 7 -3 3 vhcurveto
          hintmask 1110000100000000
          9 -9 -71 11 -5 hhcurveto
          hintmask 1100101000000000
          -57 -85 -18 -16 -6 -10 11 -5 hhcurveto
          -37 -140 -153 -33 hvcurveto
          -19 2 -35 -31 vvcurveto
          hintmask 1101010000000000
          -26 -1 -24 -5 -10 vhcurveto
          -10 -21 -11 -17 -26 -5 30 -12 -27 -25 -27 -6 -6 -25 callgsubr
          15 -30 0 -139 9 -9 11 -10 20 -6 5 -4 10 -10 6 -16 8 -7 rrcurveto
          -12 12 84 -51 37 88 48 73 20 hhcurveto
          hintmask 1110010000000000
          21 26 -37 8 hhcurveto
          13 38 14 20 20 hvcurveto
          2 3 5 11 39 vvcurveto
          endchar
        </CharString>
        <CharString name="H">
          77 -11 -21 31 -21 355 116 337 -20 hstemhm
          33 224 -198 150 -140 172 108 161 -141 141 -141 161 hintmask 1011100100000000
          579 59 rmoveto
          -23 24 -13 48 3 3 -33 -2 17 24 27 12 8 -27 callsubr
          -5 14 -4 139 46 vvcurveto
          14 vlineto
          2 5 5 7 3 8 rrcurveto
          2 5 0 8 9 vvcurveto
          14 -2 14 -2 -13 -18 18 10 18 28 11 -1 6 vhcurveto
          hintmask 1011100001000000
          8 -2 34 18 vvcurveto
          88 24 56 -4 callgsubr
          vlineto
          15 -70 23 -26 -34 -84 -61 -13 -34 callgsubr
          hintmask 1011001100000000
          4 -15 5 -73 -32 vvcurveto
          -92 -9 -23 -8 -9 vhcurveto
          -13 -14 -32 -5 -22 hhcurveto
          -11 -8 1 2 -2 hvcurveto
          -1 1 -1 12 12 vvcurveto
          17 1 18 0 vhcurveto
          hintmask 1011100100000000
          30 15 14 5 22 -22 12 18 vvcurveto
          5 5 6 2 5 vhcurveto
          2 5 12 96 9 vvcurveto
          9 -69 20 -14 -27 -113 -64 -15 -34 callgsubr
          -1 1 -1 -2 vvcurveto
          4 -18 12 -66 -52 vvcurveto
          -16 -1 -15 -3 -11 vhcurveto
          hintmask 1011001100000000
          -1 -6 24 -6 -17 -18 -31 -13 -5 vvcurveto
          -4 vlineto
          -9 1 -21 15 -15 vhcurveto
          hintmask 1011010010000000
          0 5 -51 -49 vvcurveto
          -168 -18 -75 -20 -33 vhcurveto
          -63 callsubr
          -1 vvcurveto
          -17 94 -29 25 40 73 52 2 1 vhcurveto
          -54 callsubr
          3 5 vvcurveto
          12 -3 19 -3 12 vhcurveto
          -5 20 -2 29 31 47 5 40 14 vvcurveto
          3 0 1 17 callsubr
          -6 callsubr
          -3 -5 -2 -6 hhcurveto
          -7 -14 2 10 25 43 37 76 7 0 -1 -2 3 hvcurveto
          4 -4 3 -38 -25 -37 -10 -23 -9 -8 34 7 -20 -29 -35 -5 -6 vvcurveto
          0 2 -90 4 -6 vhcurveto
          hintmask 0111100100000000
          -8 5 71 -51 31 hhcurveto
          38 95 60 18 1 0 1 -1 1 hvcurveto
          endchar
        </CharString>
        <CharString name="I">
          -237 0 -21 794 58 callsubr
          hintmask 11010000
          231 150 -69 callgsubr
          -48 callsubr
          hintmask 11100000
          -1 6 0 9 11 vvcurveto
          59 11 114 0 vhcurveto
          hintmask 11010000
          11 -13 0 6 vvcurveto
          hintmask 11001000
          -55 callsubr
          -40 -10 -41 -24 vvcurveto
          hintmask 11100000
          15 callgsubr
          67 callsubr
          hintmask 11010000
          -35 -6 -45 -3 -33 vhcurveto
          hintmask 11001000
          -95 callsubr
        </CharString>
        <CharString name="Iacute">
          -237 0 -21 794 187 34 callsubr
          235 917 rmoveto
          -107 callgsubr
          hintmask 11001000
          -4 -767 -96 callsubr
        </CharString>
        <CharString name="Icircumflex">
          -237 0 -21 821 -7 callsubr
          20 229 -204 158 -158 192 -169 154 hintmask 11010000
          297 4 callsubr
          -39 callsubr
          -38 callsubr
          -74 callgsubr
          hintmask 10101000
          -21 hlineto
          -7 -18 -29 0 hvcurveto
          hintmask 11000100
          -8 4 -7 -5 vvcurveto
          hintmask 11001000
          -92 callgsubr
          -16 callsubr
          -16 callgsubr
          hintmask 11000010
          -78 callgsubr
          hintmask 11010000
          0 38 -42 -3 vvcurveto
          hintmask 11001000
          -2 3 -2 20 vhcurveto
          -80 callsubr
          -66 -682 -69 callgsubr
          -46 callgsubr
          hintmask 11000010
          11 -13 0 6 -55 callsubr
          -40 -10 -41 -24 15 callgsubr
          67 callsubr
          -35 -6 -45 -3 -33 vhcurveto
          -95 callsubr
        </CharString>
        <CharString name="Idieresis">
          -237 0 -21 964 58 callsubr
          -123 38 callsubr
          hintmask 11000100
          99 36 callgsubr
          hintmask 11000010
          -22 callsubr
          hintmask 11010000
          7 -31 6 -3 -15 -43 -13 0 vhcurveto
          hintmask 11100000
          -88 callsubr
          -24 callsubr
          -47 callgsubr
          -104 callsubr
          213 -51 rmoveto
          -28 callgsubr
          vvcurveto
          hintmask 11010000
          -28 callsubr
          -73 callsubr
          vhcurveto
          hintmask 11001000
          7 callsubr
          hvcurveto
          hintmask 11100000
          -29 callgsubr
          -77 callsubr
          hintmask 11010000
          -43 callsubr
          -27 callgsubr
          6 21 27 10 hhcurveto
          3 7 5 5 5 hvcurveto
          -81 -688 rmoveto
          34 2 19 0 vhcurveto
          7 -18 3 -9 9 vhcurveto
          -3 3 0 3 4 vvcurveto
          7 vlineto
          hintmask 11001000
          7 27 15 3 2 callgsubr
          2 3 20 0 -46 callgsubr
          11 -13 0 6 -55 callsubr
          -40 -10 -41 -24 15 callgsubr
          67 callsubr
          -35 -6 -45 -3 -33 vhcurveto
          -95 callsubr
        </CharString>
        <CharString name="Igrave">
          -237 0 -21 988 -20 34 callsubr
          238 844 rmoveto
          -19 19 -44 91 51 callsubr
          -50 10 -5 1 rrcurveto
          -23 -54 -30 -5 hvcurveto
          -3 39 -38 -2 vvcurveto
          1 hlineto
          2 7 1 5 hhcurveto
          4 2 0 -2 2 hvcurveto
          2 -2 1 -5 -5 vvcurveto
          -10 vlineto
          -3 0 -2 1 vhcurveto
          8 47 -45 9 hhcurveto
          39 28 20 7 hvcurveto
          hintmask 11001000
          -7 -693 -96 callsubr
        </CharString>
        <CharString name="J">
          -3 -33 125 547 140 hstemhm
          6 177 -177 199 78 173 -173 209 -185 149 -149 166 hintmask 11100001
          399 32 rmoveto
          19 47 72 28 6 hvcurveto
          1 6 1 9 11 37 -6 61 42 vvcurveto
          70 vlineto
          49 2 40 16 28 vhcurveto
          -18 callgsubr
          11 -30 25 17 15 28 14 10 15 -24 7 14 11 32 52 27 vvcurveto
          21 -3 43 -3 3 vhcurveto
          2 -2 -6 1 -7 hhcurveto
          hintmask 11101000
          -21 -37 -7 -11 hhcurveto
          -2 -1 1 0 hvcurveto
          -3 5 -7 5 0 vvcurveto
          -62 -111 -41 -8 -9 hvcurveto
          -8 -9 -18 -77 -9 vvcurveto
          -11 33 -25 7 vhcurveto
          7 14 40 46 hhcurveto
          10 12 -13 -12 hvcurveto
          hintmask 11100100
          -3 -34 -21 -10 -25 callgsubr
          5 -16 2 -44 -46 -63 -3 -67 -4 -6 27 -1 -24 -17 -30 -10 -6 vvcurveto
          -8 vlineto
          -12 0 -20 4 -4 vhcurveto
          4 -4 2 -15 -19 vvcurveto
          -30 -5 -38 -10 -10 vhcurveto
          0 -25 -23 -14 -17 -33 30 17 vhcurveto
          7 22 21 23 7 -24 3 22 18 16 37 9 vvcurveto
          hintmask 11100010
          1 -1 1 0 vhcurveto
          4 -4 -33 13 -32 hhcurveto
          -33 -89 -73 -12 hvcurveto
          hintmask 11011000
          -13 13 -30 -10 0 -12 -58 -30 vvcurveto
          -8 1 -7 2 -2 vhcurveto
          4 -4 14 -3 2 -2 rrcurveto
          -18 17 77 -68 74 hhcurveto
          20 100 27 24 25 hvcurveto
          15 15 4 9 6 5 24 -10 3 hhcurveto
          endchar
        </CharString>
        <CharString name="K">
          49 -3 -21 34 -21 803 -20 hstemhm
          30 188 -173 173 -150 170 73 173 hintmask 10101010
          218 657 rmoveto
          10 15 81 7 vvcurveto
          8 -45 6 -33 callgsubr
          -35 2 -21 -26 -86 -54 -11 vhcurveto
          -28 25 -24 -59 -12 -15 1 -4 vvcurveto
          -15 2 -57 10 -16 vhcurveto
          0 -12 -92 -78 -10 38 -8 -24 -15 -33 -7 -9 -19 3 -34 -33 vvcurveto
          -10 0 -10 -1 -9 vhcurveto
          0 -13 -107 -7 vvcurveto
          -14 65 -30 35 28 14 21 11 33 vhcurveto
          27 9 16 8 6 0 -4 46 33 vvcurveto
          12 1 10 1 6 vhcurveto
          1 vlineto
          8 -17 6 5 vvcurveto
          0 0 18 7 7 vhcurveto
          0 17 9 16 6 -14 1 21 vvcurveto
          4 vlineto
          9 1 23 6 14 vhcurveto
          -11 callsubr
          1 2 14 -25 11 6 vvcurveto
          8 17 29 9 37 32 -46 -18 vhcurveto
          -3 vlineto
          -2 -5 0 -6 -7 -23 7 -29 -38 vvcurveto
          hintmask 10110010
          -4 vlineto
          -8 1 -16 5 vhcurveto
          2 hlineto
          7 19 -1 -15 hvcurveto
          -23 -24 -4 -6 -25 callgsubr
          0 6 -77 11 -11 vhcurveto
          -10 11 58 -19 15 hhcurveto
          19 114 46 14 12 -44 61 0 hvcurveto
          25 -4 90 -6 7 vhcurveto
          -2 2 -30 5 12 vvcurveto
          8 9 17 0 vhcurveto
          7 7 2 6 7 13 -8 15 20 92 -119 10 15 vvcurveto
          10 50 79 0 vhcurveto
          18 31 45 42 7 7 -11 4 15 vvcurveto
          8 21 11 0 2 11 -3 0 vhcurveto
          15 6 18 6 3 hvcurveto
          5 9 34 30 7 vvcurveto
          5 -42 26 -5 vhcurveto
          -5 -9 -3 -10 -9 -4 10 -5 hhcurveto
          -12 -100 -34 -7 -1 hvcurveto
          -7 -33 -37 -67 0 -63 callsubr
          -1 -6 9 -13 -7 vvcurveto
          -7 -6 -11 0 vhcurveto
          hintmask 10100110
          -7 -7 -21 4 -6 -6 -10 -8 -26 -87 -7 -7 rrcurveto
          -1 0 -1 -1 hhcurveto
          hintmask 01101010
          -7 -14 13 0 hvcurveto
          -4 4 -2 32 0 vvcurveto
          22 vlineto
          11 callgsubr
          2 vvcurveto
          2 24 9 42 1 8 rrcurveto
          6 vlineto
          4 -4 4 -5 2 vhcurveto
          endchar
        </CharString>
        <CharString name="L">
          69 callsubr
          32 170 -170 225 -214 171 -142 130 -130 165 hintmask 10110000
          487 105 rmoveto
          -9 callgsubr
          24 callsubr
          hvcurveto
          hintmask 10100001
          25 35 35 0 vhcurveto
          70 callsubr
          hintmask 10101000
          23 21 15 62 callsubr
          hintmask 10100001
          -1 5 -1 13 16 vvcurveto
          59 8 111 -4 callgsubr
          vlineto
          hintmask 10100100
          10 -31 12 72 callgsubr
          79 callsubr
          -35 -74 -64 -7 vhcurveto
          12 callsubr
          hintmask 10110000
          -13 -14 -8 -3 -4 -50 9 -67 -43 35 callsubr
          hintmask 10100010
          3 callsubr
          hintmask 01110000
          -14 callgsubr
          endchar
        </CharString>
        <CharString name="Lslash">
          69 callsubr
          26 176 -159 159 -159 171 -171 215 -186 130 -130 170 hintmask 1010000010000000
          239 432 rmoveto
          6 49 10 6 vvcurveto
          7 25 0 0 vhcurveto
          16 -5 47 6 callgsubr
          -3 -3 -2 -5 -2 vhcurveto
          1 18 2 16 0 -27 callsubr
          hintmask 1010010000000000
          10 -31 12 72 callgsubr
          hintmask 1010001000000000
          79 callsubr
          vhcurveto
          hintmask 1011000000000000
          -35 -74 -64 -7 hvcurveto
          hintmask 1010100000000000
          12 callsubr
          -13 -14 -8 -3 -4 vvcurveto
          -13 vlineto
          -10 -3 -9 -2 0 vvcurveto
          0 -36 -13 -4 -9 vhcurveto
          -4 vlineto
          -11 1 -40 13 -34 vhcurveto
          -1 2 0 1 6 15 5 8 6 vhcurveto
          1 1 9 4 11 3 rrcurveto
          1 -23 2 -11 -17 35 callsubr
          hintmask 1010000100000000
          3 callsubr
          hintmask 0111000000000000
          -14 callgsubr
          -9 callgsubr
          hintmask 1011000000000000
          24 callsubr
          25 35 35 0 hvcurveto
          70 callsubr
          23 21 15 62 callsubr
          -1 5 -1 13 16 vvcurveto
          15 0 7 1 19 vhcurveto
          endchar
        </CharString>
        <CharString name="M">
          296 0 -21 31 -21 795 -20 hstemhm
          27 161 -139 139 -139 153 362 171 -148 176 hintmask 01101010
          759 667 rmoveto
          -1 0 1 3 18 19 73 0 hvcurveto
          hintmask 01110010
          17 -123 5 0 -22 -134 -31 -12 -12 vhcurveto
          -4 -4 -23 -73 -5 -5 20 -10 -16 vvcurveto
          -16 -30 -16 0 vhcurveto
          -7 -8 -11 -110 0 vvcurveto
          -15 -15 1 -49 -10 hhcurveto
          -5 -12 4 7 -4 hvcurveto
          -5 7 -10 101 0 7 -28 3 10 25 26 18 8 vvcurveto
          -19 20 -5 101 16 vvcurveto
          13 -66 13 -5 1 vhcurveto
          3 -2 -101 -2 0 vvcurveto
          hintmask 01100110
          0 -21 11 -4 -6 -100 -36 -9 vhcurveto
          -4 4 -36 -35 vvcurveto
          -21 -1 -21 -5 -14 vhcurveto
          -3 -2 31 -12 -22 -21 -26 -9 -4 vvcurveto
          -49 vlineto
          -57 0 -88 3 -17 vhcurveto
          0 -21 -93 -12 -6 22 -7 -3 -84 -29 -79 -9 vvcurveto
          -13 81 -23 7 18 64 33 1 6 vhcurveto
          4 1 2 3 10 vvcurveto
          7 -1 9 -3 13 vhcurveto
          -1 3 0 4 4 8 1 10 7 vvcurveto
          4 -1 4 -1 2 vhcurveto
          hintmask 01110010
          -6 5 -13 5 6 vvcurveto
          4 vlineto
          7 3 14 21 15 vhcurveto
          -18 callgsubr
          3 vvcurveto
          8 -3 18 -8 25 vhcurveto
          0 -3 79 68 vvcurveto
          49 2 45 5 5 vhcurveto
          0 7 6 5 vhcurveto
          1 0 -1 1 hhcurveto
          0 46 -182 -74 -13 41 8 -20 -21 -29 -5 -3 0 9 -36 -11 vvcurveto
          -12 93 -25 20 vhcurveto
          hintmask 10110001
          49 53 86 2 hvcurveto
          hintmask 01110010
          6 -18 10 12 vvcurveto
          0 1 12 4 4 vhcurveto
          7 7 22 14 7 11 -10 15 6 vvcurveto
          9 46 198 5 5 vhcurveto
          0 11 8 6 7 4 -141 -14 vhcurveto
          0 -12 -27 -13 -4 23 -2 -23 -16 -25 -16 -5 0 4 -119 -7 -7 -16 -73 -6 vvcurveto
          -11 78 -30 14 49 100 40 11 vhcurveto
          0 -28 64 27 0 -29 2 15 10 27 21 6 vvcurveto
          11 vlineto
          11 -1 17 -4 9 vhcurveto
          0 -1 27 37 vvcurveto
          60 2 86 8 37 vhcurveto
          1 vlineto
          10 -30 16 4 32 33 4 7 vvcurveto
          18 vlineto
          34 -1 71 -8 vhcurveto
          endchar
        </CharString>
        <CharString name="N">
          99 -2 -21 33 -21 811 -20 hstemhm
          31 184 -157 143 -124 124 121 250 -156 156 -137 133 hintmask 1011000010000000
          569 158 rmoveto
          11 9 9 0 vhcurveto
          33 callsubr
          2 vvcurveto
          13 -34 22 0 vhcurveto
          18 25 25 0 vhcurveto
          -2 11 -1 30 34 vvcurveto
          69 3 88 18 callsubr
          -6 16 8 5 27 22 7 vvcurveto
          hintmask 1011000100000000
          12 -20 22 0 vhcurveto
          57 22 143 0 vhcurveto
          10 -65 2 0 -39 -74 -47 -3 vhcurveto
          -6 11 -30 -9 -8 -15 -20 -11 vvcurveto
          -2 0 -2 2 -2 vhcurveto
          19 -19 6 -22 0 -10 -20 -18 -8 vvcurveto
          hintmask 1011000010000000
          16 -18 0 -114 -35 vvcurveto
          -9 vlineto
          -4 -2 -1 -3 vhcurveto
          hintmask 1010100100000000
          -6 -8 5 0 hvcurveto
          -6 6 -52 139 19 9 4 18 8 20 -47 -4 11 vvcurveto
          25 20 10 callsubr
          2 vlineto
          13 -18 65 0 vhcurveto
          14 -14 -66 3 -41 hhcurveto
          -20 -14 -1 0 hvcurveto
          -7 -10 -41 -1 -15 hhcurveto
          -5 hlineto
          -13 -58 -38 -6 hvcurveto
          -9 38 -108 -14 -13 -16 -12 -4 0 9 -47 -14 0 -5 -36 -20 vvcurveto
          -6 1 -5 -45 callsubr
          hintmask 1010011000000000
          6 -6 23 -17 -10 -23 -24 -8 -4 0 -1 -16 -16 vvcurveto
          -13 1 -13 2 -2 vhcurveto
          hintmask 1010101000000000
          2 -2 1 -13 -17 -38 -4 -62 -24 vvcurveto
          -6 0 -3 -45 callsubr
          hintmask 1011001000000000
          0 -24 -68 -58 vvcurveto
          -6 70 -26 21 2 2 0 1 1 vhcurveto
          0 65 35 21 6 vhcurveto
          0 16 7 10 11 -14 46 28 0 -31 0 14 vvcurveto
          4 8 22 10 11 vhcurveto
          0 1 6 9 vvcurveto
          hintmask 0110101000000000
          31 -2 69 52 vvcurveto
          35 1 28 3 3 vhcurveto
          0 19 -2 6 -6 vhcurveto
          0 42 -138 -35 vvcurveto
          5 -5 27 -9 -11 -22 -15 -10 -4 vvcurveto
          6 -11 rlineto
          12 -28 15 -70 -38 vvcurveto
          -11 121 -16 4 57 88 52 10 vhcurveto
          1 vlineto
          0 -23 47 59 vvcurveto
          endchar
        </CharString>
        <CharString name="Ntilde">
          99 -2 -21 33 -21 840 73 hstemhm
          58 143 -124 124 234 137 hintmask 01110100
          469 843 -39 callgsubr
          13 callsubr
          100 -685 rmoveto
          -59 23 -47 0 -34 callgsubr
          -10 -88 -52 -57 -4 -121 16 11 38 -15 70 -12 28 vhcurveto
          -6 11 rlineto
          4 15 10 22 vvcurveto
          11 -27 9 -5 5 vhcurveto
          35 -42 138 0 vhcurveto
          -6 6 -19 2 0 vvcurveto
          -3 -3 -1 -28 -35 -52 2 -69 -31 vvcurveto
          -9 -1 -6 0 vhcurveto
          -10 -11 -8 -22 -4 vvcurveto
          -14 31 0 0 vhcurveto
          -28 14 -46 -11 vvcurveto
          -10 -16 -7 0 vhcurveto
          -21 -6 -65 -35 -5 callsubr
          -2 0 -2 hhcurveto
          -21 -70 26 6 58 24 68 0 hvcurveto
          -1 1 0 3 6 24 4 62 38 vvcurveto
          hintmask 10110100
          17 -1 13 -2 2 vhcurveto
          -2 2 -1 13 13 vvcurveto
          16 1 10 callsubr
          4 24 8 23 vvcurveto
          10 -23 17 -6 6 vhcurveto
          hintmask 01101100
          -1 1 -1 5 6 vvcurveto
          20 5 36 0 vhcurveto
          14 -9 47 0 vhcurveto
          4 16 12 13 14 -38 108 9 vvcurveto
          6 58 38 13 vhcurveto
          5 hlineto
          15 41 1 7 10 hvcurveto
          hintmask 01110100
          0 14 1 20 41 66 -3 -14 14 vhcurveto
          0 18 -65 -13 12 callgsubr
          0 -20 -16 -25 -11 47 4 -20 -8 -4 -18 -9 vvcurveto
          -19 52 -139 6 -6 vhcurveto
          0 8 -5 6 3 2 1 4 vhcurveto
          9 vlineto
          35 0 114 -16 18 vhcurveto
          8 20 18 10 vvcurveto
          0 -6 22 -19 19 vhcurveto
          -2 2 0 2 2 11 15 20 8 9 -11 30 6 vvcurveto
          3 74 47 39 vhcurveto
          0 65 -2 -10 0 -22 -143 -57 0 20 -22 -12 -7 -27 -22 -5 -8 6 -16 -3 0 -3 -88 -69 vvcurveto
          -34 1 -30 2 -11 vhcurveto
          0 -25 -25 -18 0 34 -22 -13 vvcurveto
          -2 -1 -2 -1 -1 vhcurveto
          0 -9 -9 -11 vvcurveto
          endchar
        </CharString>
        <CharString name="O">
          75 2 -21 796 59 callgsubr
          96 191 -170 14 callsubr
          hintmask 1110000100000000
          346 306 -71 callgsubr
          hintmask 1101010000000000
          -10 -9 -22 -31 -18 hhcurveto
          -27 -42 46 37 hvcurveto
          75 callsubr
          hintmask 1110000100000000
          15 callsubr
          -45 callgsubr
          -43 callgsubr
          -9 31 -10 -17 0 5 -56 -41 vvcurveto
          hintmask 1110001000000000
          -20 -1 -17 68 callsubr
          -22 -25 -2 -11 vhcurveto
          hintmask 1101000010000000
          0 51 callgsubr
          hintmask 1110010000000000
          -22 callgsubr
          32 callgsubr
          -35 callsubr
          -49 callsubr
          vhcurveto
          -2 3 22 22 0 vvcurveto
          -100 callgsubr
          hintmask 1100100100000000
          -65 callsubr
          endchar
        </CharString>
        <CharString name="OE">
          334 -8 138 -129 -21 26 124 221 114 201 83 -83 102 11 59 callgsubr
          101 231 -210 210 hintmask 1001010100010000
          351 309 rmoveto
          5 -5 11 -7 -4 -24 -21 -43 -16 vvcurveto
          hintmask 1001010010100000
          -13 18 -30 -9 vvcurveto
          hintmask 0111010100100000
          -3 -33 -41 -17 -27 -42 47 37 vhcurveto
          hintmask 1001101010100000
          8 19 33 13 vvcurveto
          15 callsubr
          -9 10 -15 12 13 vvcurveto
          51 23 111 0 vhcurveto
          11 -27 12 10 22 29 20 8 4 -16 37 6 vvcurveto
          25 44 43 22 vhcurveto
          0 36 -19 -13 0 -14 -34 -32 vvcurveto
          hintmask 1001010100100000
          -8 31 -11 -16 0 5 -56 -41 vvcurveto
          -20 -1 -17 68 callsubr
          -24 -27 -10 vvcurveto
          5 -7 3 -7 -13 12 callgsubr
          -3 51 callgsubr
          18 -299 rmoveto
          -4 14 22 -14 13 7 53 14 53 20 12 -5 9 hhcurveto
          5 4 1 5 5 hvcurveto
          5 5 4 12 9 15 12 -12 12 14 10 4 61 26 21 -6 11 hhcurveto
          3 2 1 1 2 hvcurveto
          13 14 38 138 7 vvcurveto
          21 -49 44 -10 -4 -27 -62 -30 -30 vhcurveto
          -12 -12 -26 -2 -15 hhcurveto
          -43 -23 4 13 -13 hvcurveto
          -11 11 -4 64 53 vvcurveto
          36 2 30 3 3 vhcurveto
          6 6 50 1 24 32 14 -18 6 hhcurveto
          18 42 98 35 8 -8 0 -23 hvcurveto
          -26 -87 58 callgsubr
          hintmask 1001010010100000
          27 callsubr
          9 43 15 14 71 -1 -58 13 35 callgsubr
          -69 -59 -19 -23 -17 4 21 -25 hhcurveto
          -33 -46 -3 -7 -27 hvcurveto
          15 -15 -41 4 -43 hhcurveto
          -55 -57 -7 0 hvcurveto
          -8 -7 -16 0 hvcurveto
          -55 -125 -112 -11 -8 hvcurveto
          -3 -4 0 -17 -21 -36 2 -45 -6 -8 -24 -25 -8 0 -12 -100 -36 vvcurveto
          0 14 -142 11 callsubr
          4 1 6 12 17 -3 -20 vhcurveto
          hintmask 0111010001100000
          -21 -9 -12 -7 vvcurveto
          -7 84 -136 95 vhcurveto
          0 111 12 15 18 vhcurveto
          endchar
        </CharString>
        <CharString name="Oacute">
          75 2 -21 796 183 -3 callgsubr
          401 917 rmoveto
          -107 callgsubr
          -55 -611 -69 callsubr
          hintmask 1110000010000000
          71 callsubr
          hintmask 1100100100000000
          -45 callgsubr
          hintmask 1110000010000000
          -43 callgsubr
          -9 31 -10 -17 0 5 -56 -41 vvcurveto
          -20 -1 -17 68 callsubr
          -22 -25 -2 -11 vhcurveto
          0 51 callgsubr
          -22 callgsubr
          32 callgsubr
          hintmask 1100101000000000
          -35 callsubr
          vhcurveto
          hintmask 1101000010000000
          -49 callsubr
          hvcurveto
          -20 callsubr
          hintmask 1110000010000000
          56 callgsubr
          vvcurveto
          hintmask 1100100010000000
          -82 callgsubr
          -6 84 -137 95 vhcurveto
          -65 callsubr
          endchar
        </CharString>
        <CharString name="Ocircumflex">
          75 2 -21 819 164 -124 124 -31 callgsubr
          117 14 callsubr
          hintmask 1101000010000000
          462 -32 callsubr
          hintmask 1010100100000000
          -37 callgsubr
          -39 callsubr
          -38 callsubr
          hintmask 1101001000000000
          -74 callgsubr
          -75 callgsubr
          -92 callgsubr
          -16 callsubr
          -16 callgsubr
          0 30 38 5 vhcurveto
          hintmask 1100100010000000
          8 16 -24 -18 -5 15 -2 2 -1 hvcurveto
          hintmask 1101000010000000
          -61 callsubr
          -80 callsubr
          -116 -526 -69 callsubr
          71 callsubr
          -45 callgsubr
          -43 callgsubr
          -9 31 -10 -17 0 5 -56 -41 vvcurveto
          -20 -1 -17 68 callsubr
          -22 -25 -2 -11 vhcurveto
          0 51 callgsubr
          -22 callgsubr
          32 callgsubr
          -35 callsubr
          -49 callsubr
          vhcurveto
          38 callgsubr
          hintmask 1100010100000000
          -70 callsubr
          endchar
        </CharString>
        <CharString name="Odieresis">
          75 2 -21 962 59 callgsubr
          20 38 callsubr
          -109 14 callsubr
          hintmask 1110010000000000
          265 -18 callsubr
          hintmask 1110001000000000
          -24 callsubr
          hintmask 1101000010000000
          -92 callsubr
          hintmask 1110001000000000
          -73 callsubr
          vhcurveto
          hintmask 1110000010000000
          7 callsubr
          hvcurveto
          hintmask 1110000100000000
          -29 callgsubr
          -77 callsubr
          -43 callsubr
          -27 callgsubr
          hintmask 1101000001000000
          6 21 27 10 hhcurveto
          3 7 5 5 5 hvcurveto
          -132 -532 -69 callsubr
          71 callsubr
          -45 callgsubr
          -43 callgsubr
          vvcurveto
          hintmask 1110010000000000
          -9 31 -10 -17 0 5 -56 -41 vvcurveto
          -20 -1 -17 68 callsubr
          -22 -25 -2 -11 vhcurveto
          0 51 callgsubr
          -22 callgsubr
          hintmask 1100100010000000
          32 callgsubr
          -35 callsubr
          -49 callsubr
          vhcurveto
          -2 3 22 22 0 vvcurveto
          -70 callsubr
          endchar
        </CharString>
        <CharString name="Ograve">
          75 2 -21 977 -20 -3 callgsubr
          393 835 rmoveto
          -19 19 -44 91 51 callsubr
          -50 10 -5 1 rrcurveto
          -23 -54 -30 -5 hvcurveto
          -3 39 -38 -2 vvcurveto
          1 hlineto
          2 7 1 5 hhcurveto
          4 2 0 -2 2 hvcurveto
          2 -2 1 -5 -5 vvcurveto
          -10 vlineto
          -3 0 -2 1 vhcurveto
          8 47 -45 9 hhcurveto
          39 28 20 7 hvcurveto
          -47 -528 -69 callsubr
          hintmask 1110000010000000
          71 callsubr
          hintmask 1100100100000000
          -45 callgsubr
          hintmask 1110000010000000
          -43 callgsubr
          -9 31 -10 -17 0 5 -56 -41 vvcurveto
          -20 -1 -17 68 callsubr
          -22 -25 -2 -11 vhcurveto
          0 51 callgsubr
          -22 callgsubr
          32 callgsubr
          hintmask 1100101000000000
          -35 callsubr
          vhcurveto
          hintmask 1101000010000000
          -49 callsubr
          hvcurveto
          -20 callsubr
          hintmask 1110000010000000
          56 callgsubr
          vvcurveto
          hintmask 1100100010000000
          -82 callgsubr
          -6 84 -137 95 vhcurveto
          -65 callsubr
          endchar
        </CharString>
        <CharString name="Oslash">
          75 -16 -21 39 -21 796 -20 hstemhm
          44 190 -190 204 114 170 -170 190 hintmask 10101010
          346 306 rmoveto
          5 -5 11 -8 -3 -25 -21 -43 -15 vvcurveto
          hintmask 10110010
          -15 23 -25 -8 vvcurveto
          -1 -63 callsubr
          vhcurveto
          -10 -9 -22 -31 -18 hhcurveto
          -23 -33 32 33 -10 hvcurveto
          14 22 24 36 7 vvcurveto
          1 -1 1 0 vhcurveto
          -1 1 0 1 2 vvcurveto
          16 37 49 17 21 vhcurveto
          -22 callgsubr
          -3 51 callgsubr
          -84 53 rmoveto
          -1 -9 -13 -18 -12 hvcurveto
          6 55 15 73 0 -43 callgsubr
          vvcurveto
          -9 26 -9 4 -14 vhcurveto
          -9 -18 rlineto
          -17 -11 -12 -35 -9 hhcurveto
          -10 -28 -61 -29 -18 hvcurveto
          -1 hlineto
          290 -170 rmoveto
          -35 callsubr
          -49 callsubr
          vhcurveto
          38 callgsubr
          9 -4 11 -6 10 vhcurveto
          4 6 rlineto
          42 callsubr
          hintmask 10101010
          24 callgsubr
          -9 -8 -12 -14 -4 -12 -14 13 -13 10 -5 6 rrcurveto
          9 -9 -42 2 -43 hhcurveto
          -50 -50 -3 0 hvcurveto
          -8 -7 -17 0 hvcurveto
          -55 -125 -111 -11 -8 hvcurveto
          hintmask 10101100
          -35 callgsubr
          vvcurveto
          hintmask 01101010
          -8 -24 -26 -7 -82 callgsubr
          -2 8 -14 13 -19 vhcurveto
          -1 -6 -2 -6 -2 -2 rrcurveto
          -3 -6 -21 -38 0 0 -32 -42 -11 vvcurveto
          -10 34 -5 27 16 14 2 3 3 vhcurveto
          2 2 14 14 11 vvcurveto
          2 11 15 5 8 vhcurveto
          -22 27 32 -17 34 hhcurveto
          -65 callsubr
          endchar
        </CharString>
        <CharString name="Otilde">
          75 2 -21 848 73 -31 callgsubr
          96 191 -170 14 callsubr
          hintmask 1110000100000000
          346 306 -69 callsubr
          71 callsubr
          -45 callgsubr
          -58 callsubr
          hintmask 1101010000000000
          -57 callgsubr
          vvcurveto
          hintmask 1110000100000000
          -9 31 -10 -17 0 5 -56 -41 vvcurveto
          -20 -1 -17 68 callsubr
          -22 -25 -2 -11 vhcurveto
          0 51 callgsubr
          -22 callgsubr
          32 callgsubr
          -35 callsubr
          vhcurveto
          hintmask 1110001000000000
          -49 callsubr
          hvcurveto
          hintmask 1101000010000000
          38 callgsubr
          hintmask 1110010000000000
          -70 callsubr
          -93 654 -39 callgsubr
          hintmask 1100100100000000
          13 callsubr
          endchar
        </CharString>
        <CharString name="P">
          9 0 -21 801 -20 hstemhm
          23 210 -181 181 68 78 callgsubr
          540 rmoveto
          -9 26 -14 -4 -97 -25 -10 -4 -6 12 -7 -6 vvcurveto
          -12 -43 -16 -12 -12 -15 17 18 callsubr
          6 0 11 11 15 -1 16 13 vvcurveto
          9 1 6 2 3 vhcurveto
          2 1 0 2 2 vvcurveto
          9 -15 19 callgsubr
          -2 2 0 2 2 vvcurveto
          hintmask 11100100
          12 19 17 0 vhcurveto
          -72 callgsubr
          -15 52 -10 9 hvcurveto
          -4 5 -65 7 0 vvcurveto
          20 callgsubr
          hintmask 11011000
          0 -12 -36 -14 vvcurveto
          -44 callgsubr
          54 18 11 0 -21 62 115 26 callsubr
        </CharString>
        <CharString name="Q">
          85 -62 -21 83 -21 681 124 hstemhm
          10 217 -183 183 -144 160 100 220 -201 156 -141 157 -157 204 hintmask 1110101000000000
          307 213 rmoveto
          -3 21 -47 7 -9 vhcurveto
          1 -1 rlineto
          -7 -36 -7 0 -20 -30 29 -33 callgsubr
          -23 46 38 5 24 24 8 vvcurveto
          8 -18 29 0 vhcurveto
          -2 2 -1 7 8 32 13 65 28 vvcurveto
          hintmask 1110010100000000
          6 0 4 -2 2 vhcurveto
          hintmask 1111001000000000
          -2 2 0 2 3 vvcurveto
          hintmask 1111000010000000
          16 22 33 15 9 -20 13 20 vvcurveto
          11 41 56 10 16 54 -43 -20 -2 -1 -2 -44 callsubr
          -5 -5 -12 -88 -21 0 16 -6 -14 vvcurveto
          hintmask 1111001000000000
          -36 -15 -64 -42 0 34 -18 -24 0 -70 -50 -10 vvcurveto
          283 -194 rmoveto
          hintmask 1111000010000000
          2 -75 49 -12 54 vhcurveto
          hintmask 1111001000000000
          4 60 49 32 vvcurveto
          hintmask 1111000001000000
          3 -29 8 25 vvcurveto
          hintmask 1110010100000000
          18 29 4 callgsubr
          6 3 12 60 22 vvcurveto
          36 -24 64 0 vhcurveto
          5 26 2 22 17 vvcurveto
          hintmask 1110101000000000
          24 -3 19 callgsubr
          hintmask 1111001000000000
          -12 12 -31 -8 13 vvcurveto
          27 25 17 0 vhcurveto
          30 -59 78 0 vhcurveto
          14 -13 -83 39 -18 hhcurveto
          -155 -88 -61 0 hvcurveto
          -40 -39 -30 -80 0 -13 26 -15 -9 vvcurveto
          -23 -39 -2 -33 callgsubr
          -34 -123 -118 -14 34 -51 -41 vvcurveto
          hintmask 1110101000000000
          -15 -15 -17 -33 callgsubr
          13 -53 11 -13 vhcurveto
          0 117 -118 113 vhcurveto
          0 59 51 32 vhcurveto
          0 23 -10 -17 -6 -23 -10 -3 vvcurveto
          0 3 -40 16 -16 vhcurveto
          0 35 -11 28 8 7 1 2 6 vhcurveto
          0 113 63 36 vvcurveto
          endchar
        </CharString>
        <CharString name="R">
          70 -10 -21 30 -21 33 -21 786 -20 hstemhm
          41 199 -186 186 -186 198 -180 168 93 144 -144 168 -168 198 -155 138 hintmask 0011010010000000
          327 476 rmoveto
          -8 -56 -49 -16 -8 -8 10 -4 callgsubr
          4 0 5 7 vvcurveto
          28 -6 47 0 2 16 16 2 29 -11 37 -8 11 vhcurveto
          1 vlineto
          7 45 32 20 vhcurveto
          0 35 -22 -83 -8 -20 -17 -11 -10 14 -17 -11 vvcurveto
          29 -460 rmoveto
          hintmask 1001001000100000
          -17 17 72 -9 48 hhcurveto
          15 72 65 11 hvcurveto
          1 vlineto
          -57 57 -9 93 52 vvcurveto
          hintmask 0011100000010000
          23 2 19 callgsubr
          hintmask 0011100000100000
          21 -69 51 -48 -1 -1 1 1 4 5 -3 callsubr
          65 34 49 50 0 vvcurveto
          8 8 7 51 39 vvcurveto
          22 -2 18 -5 5 vhcurveto
          -1 -1 1 -1 -5 -8 -2 -9 hhcurveto
          -11 -11 2 11 16 24 18 0 hvcurveto
          40 -50 49 0 vhcurveto
          hintmask 0011100010000000
          10 -10 -32 2 -33 hhcurveto
          -46 -49 -5 0 hvcurveto
          hintmask 0011100001000000
          -6 -2 -56 -54 0 vvcurveto
          hintmask 0011010000010000
          -2 74 callsubr
          -5 -4 4 0 16 -14 51 -12 -66 -98 -56 -12 hvcurveto
          hintmask 0011100010000000
          -6 39 -54 -46 vvcurveto
          -9 -19 -5 1 -4 vhcurveto
          19 -64 -14 -137 13 -14 rrcurveto
          3 -3 1 -4 -5 -20 -17 -43 -87 -9 31 -1 -13 vvcurveto
          hintmask 0101000110000000
          -21 -33 -12 -3 vvcurveto
          0 -2 -97 -16 -31 vhcurveto
          0 42 -42 20 vhcurveto
          28 32 -9 3 40 35 44 40 hhcurveto
          2 0 3 5 hvcurveto
          17 -7 40 28 vvcurveto
          4 -11 12 -5 vhcurveto
          11 vlineto
          16 1 34 12 61 vhcurveto
          0 -24 31 8 vvcurveto
          hintmask 1001100000010000
          0 39 30 17 vhcurveto
          0 35 -23 6 -28 vhcurveto
          0 12 -84 -36 -10 38 9 -17 vvcurveto
          -22 -29 -9 1 -5 vhcurveto
          5 -17 0 -52 3 -3 rrcurveto
          endchar
        </CharString>
        <CharString name="S">
          55 callgsubr
          11 -20 hstemhm
          307 196 hintmask 01110100
          318 -10 rmoveto
          hintmask 10001100
          -73 callgsubr
          vhcurveto
          hintmask 10010100
          -25 -17 27 0 hvcurveto
          57 callsubr
          hintmask 01110100
          81 callgsubr
          -68 callgsubr
        </CharString>
        <CharString name="Scaron">
          55 callgsubr
          34 1 callsubr
          307 196 hintmask 10010101
          118 931 rmoveto
          hintmask 01111011
          -21 callsubr
          73 callsubr
          -3 2 16 0 14 hhcurveto
          hintmask 10011011
          -52 callsubr
          39 callgsubr
          37 callsubr
          200 -941 rmoveto
          -73 callgsubr
          -25 -17 27 0 vhcurveto
          57 callsubr
          81 callgsubr
          hintmask 01111011
          -68 callgsubr
        </CharString>
        <CharString name="T">
          47 0 -21 662 111 22 -20 hstemhm
          168 189 -169 169 -169 195 -195 222 hintmask 11100010
          344 3 rmoveto
          41 10 25 20 5 vvcurveto
          25 -23 57 0 vhcurveto
          -3 18 -1 31 35 vvcurveto
          85 6 108 0 vhcurveto
          4 -32 2 30 vvcurveto
          6 24 20 0 vhcurveto
          63 5 65 0 vhcurveto
          7 -46 21 0 vhcurveto
          22 23 3 0 31 36 -13 0 vhcurveto
          -40 39 7 -59 6 hhcurveto
          27 51 40 9 59 -31 117 -6 6 hvcurveto
          1 -1 -3 0 -5 hhcurveto
          hintmask 11100100
          -23 -62 -8 -36 hhcurveto
          -13 -10 1 3 -3 hvcurveto
          -12 11 -16 7 0 vvcurveto
          -5 -40 -16 0 0 -40 5 -4 -17 -125 -12 0 hvcurveto
          -13 4 -47 5 0 vvcurveto
          -7 -2 -39 -190 -5 vvcurveto
          -7 39 -42 45 vhcurveto
          0 36 127 64 2 0 -20 -24 -40 -2 -52 -2 -6 vhcurveto
          0 -16 -32 -4 -17 22 -9 -11 vvcurveto
          -3 -1 -2 -3 -3 vhcurveto
          -2 -2 0 -7 -11 -25 3 -41 -27 vvcurveto
          -10 -1 -8 -1 -15 callgsubr
          -10 -24 -4 -12 callgsubr
          -1 -1 -1 -9 35 -27 -9 vvcurveto
          0 -11 -26 -13 vhcurveto
          hintmask 11101000
          -1 0 -6 -10 hvcurveto
          -19 1 -32 -25 vvcurveto
          hintmask 11110000
          -15 0 -13 -2 -12 callgsubr
          -17 -51 -10 vvcurveto
          0 20 -20 122 vhcurveto
          0 18 19 22 5 vhcurveto
          endchar
        </CharString>
        <CharString name="Thorn">
          9 0 -21 801 -20 hstemhm
          23 212 -183 160 89 78 callgsubr
          440 rmoveto
          -9 26 -14 -4 -97 -25 -10 -4 -6 12 -7 -6 vvcurveto
          -12 -43 -16 -12 -12 -15 17 18 callsubr
          6 0 11 11 15 -1 16 13 vvcurveto
          9 1 6 2 3 vhcurveto
          2 1 0 2 2 vvcurveto
          9 -15 19 callgsubr
          -2 2 0 2 2 vvcurveto
          12 19 17 0 vhcurveto
          hintmask 11100100
          -72 callgsubr
          -1 13 -2 18 hvcurveto
          6 vlineto
          22 4 27 24 vvcurveto
          24 -8 14 -12 9 vhcurveto
          -75 16 rlineto
          20 callgsubr
          0 -12 -36 -14 vvcurveto
          hintmask 11011000
          -44 callgsubr
          52 17 2 11 rrcurveto
          -1 -1 -3 -4 -3 hhcurveto
          -6 -8 14 69 hvcurveto
          26 callsubr
        </CharString>
        <CharString name="U">
          57 -27 143 673 -20 66 callsubr
          86 173 -158 182 -182 198 hintmask 11100010
          537 138 39 callsubr
          7 27 21 7 vvcurveto
          -53 callgsubr
          8 -20 10 9 vvcurveto
          hintmask 11100100
          -74 callsubr
          -11 -16 12 -3 hhcurveto
          hintmask 11100010
          -4 -90 -40 -8 -8 hvcurveto
          -1 -1 -1 -3 vvcurveto
          -14 4 -36 7 -7 vhcurveto
          3 -3 1 -33 -29 vvcurveto
          -21 0 -19 -2 -4 vhcurveto
          -10 -26 -3 -33 0 -18 24 1 -17 vvcurveto
          -22 -11 -7 0 vhcurveto
          2 -5 0 -29 -28 vvcurveto
          -8 callgsubr
          hintmask 11100001
          -23 callsubr
          -30 -25 -26 -11 -44 -8 61 0 vhcurveto
          14 callgsubr
          hintmask 11100100
          49 callgsubr
          -62 callsubr
          hintmask 11100010
          5 -12 -12 callsubr
          22 24 168 0 vhcurveto
          12 -12 -31 15 -23 hhcurveto
          hintmask 11100100
          -6 -5 -1 -2 -4 hvcurveto
          -1 -2 -2 0 -3 hhcurveto
          hintmask 11100010
          -14 -22 10 0 hvcurveto
          -19 -111 -55 -6 hvcurveto
          hintmask 11001100
          -6 31 -120 -25 -48 callgsubr
          -16 -21 -9 -7 -21 0 14 -11 -30 0 -2 -29 -27 vvcurveto
          -23 1 -21 5 -5 vhcurveto
          1 -1 1 -6 -7 vvcurveto
          hintmask 11010100
          -32 -9 -74 -15 -15 vhcurveto
          hintmask 11100100
          -1 -1 -2 -2 -1 vvcurveto
          -9 18 -27 5 -1 vhcurveto
          0 11 -1 5 -15 callgsubr
          51 -65 3 -1 vhcurveto
          hintmask 11010100
          0 39 -37 189 vhcurveto
          0 41 47 21 10 vhcurveto
          20 9 62 14 0 0 51 67 18 vvcurveto
          endchar
        </CharString>
        <CharString name="Uacute">
          57 -27 143 852 -4 callsubr
          414 925 rmoveto
          -107 callgsubr
          123 -787 -31 callsubr
          hintmask 1110001000000000
          1 5 -28 -2 25 7 27 21 7 vvcurveto
          -53 callgsubr
          vvcurveto
          hintmask 1101001000000000
          8 -20 10 9 vvcurveto
          hintmask 1100011000000000
          -74 callsubr
          -11 -16 12 -3 hhcurveto
          -4 -90 -40 -8 -8 hvcurveto
          -1 -1 -1 -3 vvcurveto
          -14 4 -36 7 -7 vhcurveto
          3 -3 1 -33 -29 vvcurveto
          -21 0 -19 -2 -4 vhcurveto
          -10 -26 -3 -33 0 -18 24 1 -17 vvcurveto
          -22 -11 -7 0 vhcurveto
          2 -5 0 -29 -28 vvcurveto
          hintmask 1110000100000000
          -8 callgsubr
          -23 callsubr
          -30 -25 -26 -11 -44 -8 61 0 vhcurveto
          hintmask 1110000010000000
          14 callgsubr
          hintmask 1110000100000000
          49 callgsubr
          -62 callsubr
          5 -12 -12 callsubr
          -63 callgsubr
          -48 callgsubr
          hintmask 1110001000000000
          -16 -21 -9 -7 -21 0 14 -11 -30 0 -2 -29 -27 vvcurveto
          -23 1 -21 5 -5 vhcurveto
          1 -1 1 -6 -7 vvcurveto
          -32 -9 -74 -15 -15 vhcurveto
          -1 -1 -2 -2 -1 vvcurveto
          -9 18 -27 5 -1 vhcurveto
          0 11 -1 5 -15 callgsubr
          51 -65 3 -1 vhcurveto
          0 39 -37 189 vhcurveto
          0 41 47 21 10 vhcurveto
          20 9 62 14 0 0 51 67 18 vvcurveto
          endchar
        </CharString>
        <CharString name="Ucircumflex">
          57 -27 143 693 164 -124 124 66 callsubr
          86 173 -158 182 -182 198 -189 149 hintmask 1101001000000000
          446 841 -88 callgsubr
          -38 callgsubr
          -37 callgsubr
          -39 callsubr
          -38 callsubr
          -74 callgsubr
          hintmask 1011000100000000
          -75 callgsubr
          -92 callgsubr
          hintmask 1101001000000000
          -86 callsubr
          -80 callsubr
          91 -703 39 callsubr
          vvcurveto
          hintmask 1101000100000000
          7 27 21 7 vvcurveto
          -53 callgsubr
          8 -20 10 9 vvcurveto
          hintmask 1101000010000000
          -74 callsubr
          hhcurveto
          hintmask 1101001000000000
          -11 -16 12 -3 hhcurveto
          -4 -90 -40 -8 -8 hvcurveto
          hintmask 1101000100000000
          -1 -1 -1 -3 vvcurveto
          hintmask 1101001000000000
          -14 4 -36 7 -7 vhcurveto
          3 -3 1 -33 -29 vvcurveto
          hintmask 1101000001000000
          -21 0 -19 -2 -4 vhcurveto
          -10 -26 -3 -33 0 vvcurveto
          hintmask 1101000100000000
          -18 24 1 -17 vvcurveto
          -22 -11 -7 0 vhcurveto
          2 -5 0 -29 -28 vvcurveto
          -8 callgsubr
          -23 callsubr
          hintmask 1100011000000000
          -30 -25 -26 -11 vhcurveto
          hintmask 1100101000000000
          -44 -8 61 0 hvcurveto
          14 callgsubr
          49 callgsubr
          hintmask 1101001000000000
          -62 callsubr
          5 -12 -12 callsubr
          -63 callgsubr
          vvcurveto
          hintmask 1100101000000000
          -48 callgsubr
          -16 -21 -9 -7 -21 0 14 -11 -30 0 -2 -29 -27 vvcurveto
          -23 1 -21 5 -5 vhcurveto
          1 -1 1 -6 -7 vvcurveto
          -32 -9 -74 -15 -15 vhcurveto
          -1 -1 -2 -2 -1 vvcurveto
          -9 18 -27 5 -1 vhcurveto
          0 11 -1 5 -15 callgsubr
          51 -65 3 -1 vhcurveto
          0 39 -37 189 vhcurveto
          0 41 47 21 10 vhcurveto
          20 9 62 14 0 0 51 67 18 vvcurveto
          endchar
        </CharString>
        <CharString name="Udieresis">
          57 -27 143 829 -20 66 callsubr
          4 206 -134 183 -171 195 -182 182 -182 198 hintmask 1110010000000000
          256 891 -42 callgsubr
          -22 callsubr
          7 -31 6 -3 -15 -43 -13 0 vhcurveto
          hintmask 1110001000000000
          -88 callsubr
          -24 callsubr
          -47 callgsubr
          -104 callsubr
          hintmask 1110000100000000
          -56 callsubr
          hintmask 1110001000000000
          68 -702 39 callsubr
          7 27 21 7 vvcurveto
          hintmask 1110000010000000
          -53 callgsubr
          8 -20 10 9 -74 callsubr
          -11 -16 12 -3 hhcurveto
          -4 -90 -40 -8 -8 hvcurveto
          -1 -1 -1 -3 vvcurveto
          -14 4 -36 7 -7 vhcurveto
          3 -3 1 -33 -29 vvcurveto
          -21 0 -19 -2 -4 vhcurveto
          -10 -26 -3 -33 0 -18 24 1 -17 vvcurveto
          -22 -11 -7 0 vhcurveto
          2 -5 0 -29 -28 vvcurveto
          -55 vlineto
          0 -17 -33 -7 vvcurveto
          hintmask 1110000001000000
          -7 21 -25 0 vhcurveto
          hintmask 1100100100000000
          -13 -16 -14 0 vhcurveto
          -23 callsubr
          -30 -25 -26 -11 vhcurveto
          hintmask 1101010000000000
          -44 -8 61 0 hvcurveto
          20 11 56 16 vvcurveto
          hintmask 1110010000000000
          2 -1 2 0 vhcurveto
          49 callgsubr
          -62 callsubr
          5 -12 -12 callsubr
          hintmask 1101010000000000
          -63 callgsubr
          -48 callgsubr
          -16 -21 -9 -7 -21 0 14 -11 -30 0 -2 -29 -27 vvcurveto
          -23 1 -21 5 -5 vhcurveto
          1 -1 1 -6 -7 vvcurveto
          -32 -9 -74 -15 -15 vhcurveto
          -1 -1 -2 -2 -1 vvcurveto
          -9 18 -27 5 -1 vhcurveto
          0 11 -1 5 -15 callgsubr
          51 -65 3 -1 vhcurveto
          0 39 -37 189 vhcurveto
          0 41 47 21 10 vhcurveto
          20 9 62 14 0 0 51 67 18 vvcurveto
          endchar
        </CharString>
        <CharString name="Ugrave">
          57 -27 143 851 -4 callsubr
          384 844 rmoveto
          -19 19 -44 91 51 callsubr
          -50 10 -5 1 rrcurveto
          -23 -54 -30 -5 hvcurveto
          -3 39 -38 -2 vvcurveto
          1 hlineto
          2 7 1 5 hhcurveto
          4 2 0 -2 2 hvcurveto
          2 -2 1 -5 -5 vvcurveto
          -10 vlineto
          -3 0 -2 1 vhcurveto
          8 47 -45 9 hhcurveto
          39 28 20 7 hvcurveto
          153 -705 -31 callsubr
          hintmask 1110001000000000
          1 5 -28 -2 25 7 27 21 7 vvcurveto
          -53 callgsubr
          vvcurveto
          hintmask 1101001000000000
          8 -20 10 9 vvcurveto
          hintmask 1100011000000000
          -74 callsubr
          -11 -16 12 -3 hhcurveto
          -4 -90 -40 -8 -8 hvcurveto
          -1 -1 -1 -3 vvcurveto
          -14 4 -36 7 -7 vhcurveto
          3 -3 1 -33 -29 vvcurveto
          -21 0 -19 -2 -4 vhcurveto
          -10 -26 -3 -33 0 -18 24 1 -17 vvcurveto
          -22 -11 -7 0 vhcurveto
          2 -5 0 -29 -28 vvcurveto
          hintmask 1110000100000000
          -8 callgsubr
          -23 callsubr
          -30 -25 -26 -11 -44 -8 61 0 vhcurveto
          hintmask 1110000010000000
          14 callgsubr
          hintmask 1110000100000000
          49 callgsubr
          -62 callsubr
          5 -12 -12 callsubr
          -63 callgsubr
          -48 callgsubr
          hintmask 1110001000000000
          -16 -21 -9 -7 -21 0 14 -11 -30 0 -2 -29 -27 vvcurveto
          -23 1 -21 5 -5 vhcurveto
          1 -1 1 -6 -7 vvcurveto
          -32 -9 -74 -15 -15 vhcurveto
          -1 -1 -2 -2 -1 vvcurveto
          -9 18 -27 5 -1 vhcurveto
          0 11 -1 5 -15 callgsubr
          51 -65 3 -1 vhcurveto
          0 39 -37 189 vhcurveto
          0 41 47 21 10 vhcurveto
          20 9 62 14 0 0 51 67 18 vvcurveto
          endchar
        </CharString>
        <CharString name="V">
          78 -15 -21 796 -20 hstem
          134 152 82 139 vstem
          431 25 rmoveto
          24 24 116 0 vhcurveto
          6 -25 10 13 vvcurveto
          3 1 3 4 4 vhcurveto
          13 14 26 15 0 vvcurveto
          84 60 232 0 vhcurveto
          4 -27 7 10 vvcurveto
          18 37 19 callgsubr
          2 19 45 116 0 vvcurveto
          2 vlineto
          14 -71 1 0 vhcurveto
          -1 -7 -6 0 -6 hhcurveto
          -24 -14 6 0 hvcurveto
          1 -63 callsubr
          -1 hhcurveto
          -17 -77 -50 -12 hvcurveto
          -1 vlineto
          1 -4 1 -9 -11 -45 -9 -91 -16 -19 -25 -17 -5 vvcurveto
          -22 30 -21 0 vhcurveto
          2 -2 1 -2 -2 vvcurveto
          -14 -29 -20 0 vhcurveto
          -5 -3 -12 -136 0 vvcurveto
          -14 -5 -13 -14 -6 hhcurveto
          -5 -14 6 0 17 -12 71 0 hvcurveto
          16 20 12 25 vvcurveto
          8 -19 8 -7 10 vhcurveto
          -7 10 -7 148 0 5 -36 2 10 vvcurveto
          28 30 13 0 vhcurveto
          -2 6 0 18 19 vvcurveto
          28 1 31 0 vhcurveto
          7 -40 19 -14 vhcurveto
          -3 hlineto
          -1 -6 -6 0 -5 hhcurveto
          -24 -12 9 0 hvcurveto
          -31 -96 -54 -7 hvcurveto
          -6 50 -113 -18 0 -12 -22 -5 -25 callgsubr
          14 -15 41 -257 -5 -5 39 -15 -20 -9 -26 -18 -3 vvcurveto
          -15 15 -7 2 -10 vhcurveto
          0 14 -157 10 -9 vhcurveto
          0 78 -20 45 7 5 0 1 5 vhcurveto
          0 54 18 47 24 vhcurveto
          4 2 37 7 9 vvcurveto
          endchar
        </CharString>
        <CharString name="W">
          438 -18 -21 807 -20 hstem
          730 142 vstem
          815 130 rmoveto
          -11 11 -1 12 7 vvcurveto
          5 vlineto
          1 3 42 45 0 -27 callsubr
          5 -9 11 8 vvcurveto
          36 12 92 0 vhcurveto
          6 20 52 3 54 vhcurveto
          2 28 14 60 0 vvcurveto
          2 4 -30 6 9 vvcurveto
          16 40 22 0 vhcurveto
          15 48 105 -4 callgsubr
          vlineto
          11 -43 4 callgsubr
          -5 hlineto
          -25 -54 -6 0 hvcurveto
          -33 -11 -55 -41 8 callgsubr
          -2 -1 -7 -9 vvcurveto
          -27 7 -48 0 vhcurveto
          -7 -33 -12 -83 0 0 20 -13 -14 -25 callgsubr
          -7 -25 -19 0 vhcurveto
          -3 -10 -10 -128 10 callgsubr
          -5 -11 -12 0 vvcurveto
          -4 -4 0 -53 -8 -8 rrcurveto
          -63 callsubr
          -1 -7 -20 19 callgsubr
          -8 8 -3 63 0 vvcurveto
          -7 8 -5 12 2 vvcurveto
          11 17 4 callgsubr
          57 -17 101 0 vhcurveto
          -25 2 -5 7 8 vvcurveto
          4 1 4 1 3 vhcurveto
          3 11 14 17 0 vvcurveto
          11 callgsubr
          10 15 vvcurveto
          37 -3 63 -6 -1 vhcurveto
          -3 hlineto
          -12 -34 3 11 -27 hvcurveto
          -31 12 -23 3 0 vvcurveto
          -3 hlineto
          -31 -76 -63 0 hvcurveto
          -4 -3 -3 -80 -5 -20 rrcurveto
          -5 -19 -28 -40 0 vvcurveto
          -15 15 -18 -21 callgsubr
          vlineto
          -19 -12 -90 0 vhcurveto
          -1 -7 -14 -10 0 vvcurveto
          -43 -23 -82 0 vhcurveto
          -1 -1 -1 -1 -2 hhcurveto
          -8 -16 14 0 hvcurveto
          -5 6 -12 100 0 vvcurveto
          8 9 4 11 0 vvcurveto
          -7 33 -2 189 0 0 -38 15 8 vvcurveto
          16 31 15 0 vhcurveto
          -1 5 0 15 18 vvcurveto
          36 1 47 0 vhcurveto
          6 -95 19 -1 -49 -86 -67 -9 vhcurveto
          -4 29 -116 -10 0 -15 -34 -8 -10 38 -8 -11 12 callgsubr
          -24 -17 -11 -33 callgsubr
          17 -104 7 -14 vhcurveto
          0 2 -42 -31 vvcurveto
          -15 -1 -13 -1 -12 callgsubr
          31 -19 -20 0 -20 -29 -9 -9 21 -7 -5 0 12 -119 -4 vvcurveto
          -20 135 -30 5 vhcurveto
          67 25 44 41 hhcurveto
          9 -7 74 7 7 hvcurveto
          0 20 21 5 16 -19 10 4 vvcurveto
          9 1 6 23 23 vhcurveto
          0 11 114 6 11 vhcurveto
          0 14 13 6 1 2 -1 -1 vhcurveto
          7 -16 10 -145 -29 vvcurveto
          0 11 -9 10 vhcurveto
          3 hlineto
          0 12 -10 -12 0 -31 -24 -2 vvcurveto
          -21 62 -53 17 -8 vhcurveto
          0 36 -16 92 vhcurveto
          0 15 6 15 15 vhcurveto
          11 11 39 25 25 hhcurveto
          6 22 70 24 4 -1 3 -1 1 hvcurveto
          endchar
        </CharString>
        <CharString name="X">
          90 -24 -21 820 -20 hstem
          119 171 114 153 vstem
          519 164 rmoveto
          5 -27 3 0 vhcurveto
          -12 1 -1 20 0 vvcurveto
          4 3 5 15 0 vvcurveto
          -11 22 -28 85 10 callgsubr
          1 -10 5 4 vvcurveto
          -2 9 -2 16 0 vvcurveto
          18 88 204 0 vhcurveto
          21 31 4 9 15 vhcurveto
          1 -54 callsubr
          vvcurveto
          8 -6 10 callsubr
          21 46 67 15 vvcurveto
          10 -94 20 0 -41 -68 -51 0 vhcurveto
          -1 0 -3 -4 -19 5 -50 0 hvcurveto
          -34 -42 -96 0 vhcurveto
          -6 -6 -12 -1 0 vvcurveto
          -7 -24 85 0 hvcurveto
          3 -1 -4 0 -4 hhcurveto
          -6 -8 0 13 hvcurveto
          8 10 16 9 vvcurveto
          2 0 2 17 callsubr
          -7 6 -32 88 10 callgsubr
          8 -106 -2 callgsubr
          -32 -79 -60 -6 hvcurveto
          -16 77 -99 -40 vvcurveto
          -4 20 3 5 -3 vhcurveto
          9 -4 9 -17 -6 -5 -16 -16 -4 -18 68 -92 -44 vvcurveto
          0 -8 -24 -8 vhcurveto
          0 -29 47 -10 -1 -2 -1 -2 0 -65 -198 -32 -63 vhcurveto
          -4 -2 -8 -5 -5 hhcurveto
          0 -42 -76 -6 vvcurveto
          -10 55 -25 28 vhcurveto
          0 45 15 16 20 47 16 11 callsubr
          11 75 4 vvcurveto
          9 51 108 6 vhcurveto
          0 12 0 6 -6 vhcurveto
          0 22 -52 -18 0 -8 -22 -13 vvcurveto
          -6 1 -4 5 vhcurveto
          0 27 -3 -19 0 -7 -11 -2 vvcurveto
          0 2 -50 3 -12 callgsubr
          44 -23 89 5 22 16 17 18 vhcurveto
          0 58 20 12 vvcurveto
          2 vlineto
          -7 11 -47 89 -7 37 rrcurveto
          endchar
        </CharString>
        <CharString name="Y">
          70 -16 -21 58 -21 754 -20 hstem
          150 207 vstem
          357 82 rmoveto
          26 8 125 0 vhcurveto
          -2 hlineto
          -18 -7 21 0 hvcurveto
          7 23 32 8 0 vvcurveto
          21 89 68 132 0 0 -54 callsubr
          vvcurveto
          6 -9 12 0 vhcurveto
          21 37 6 0 vhcurveto
          14 14 1 26 9 vvcurveto
          3 vlineto
          11 26 62 88 0 vvcurveto
          14 -86 21 0 -24 -84 -26 -21 callgsubr
          -2 0 -22 -13 vvcurveto
          -9 vlineto
          -20 -22 -52 -2 -3 vhcurveto
          -4 -6 -12 -5 0 vvcurveto
          -3 -26 -34 -91 8 callgsubr
          -7 -19 -4 0 vvcurveto
          -14 -13 95 0 3 -16 -2 -4 3 hvcurveto
          -5 4 -2 8 5 vvcurveto
          2 vlineto
          2 5 19 17 0 vvcurveto
          11 callgsubr
          2 4 vvcurveto
          26 -13 90 0 vhcurveto
          -1 6 -115 10 0 vvcurveto
          -12 -26 -15 -2 -8 hhcurveto
          -5 -2 1 0 hvcurveto
          1 -1 -2 0 -2 hhcurveto
          -19 -44 -25 -4 -10 25 -30 2 -8 hvcurveto
          0 5 -43 8 vhcurveto
          0 35 -4 -12 -11 -23 -21 -8 12 callgsubr
          0 59 -140 4 -14 vhcurveto
          1 -3 0 -2 -3 -8 -3 -6 -5 -1 1 -63 callsubr
          34 -81 -47 0 -19 -19 -10 vvcurveto
          -2 1 -1 -45 callsubr
          0 22 -22 -9 vvcurveto
          -26 vlineto
          -40 -2 -77 -19 -27 -34 callgsubr
          -10 45 -37 80 vhcurveto
          0 28 6 13 16 vhcurveto
          0 27 15 25 vhcurveto
          0 17 3 5 vvcurveto
          2 vlineto
          17 -12 43 12 vvcurveto
          endchar
        </CharString>
        <CharString name="Yacute">
          70 -16 -21 58 -21 960 -20 hstem
          150 207 vstem
          399 917 rmoveto
          -107 callgsubr
          -42 -835 rmoveto
          26 8 125 0 vhcurveto
          -2 hlineto
          -18 -7 21 0 hvcurveto
          7 23 32 8 0 vvcurveto
          21 89 68 132 0 0 -54 callsubr
          vvcurveto
          6 -9 12 0 vhcurveto
          21 37 6 0 vhcurveto
          14 14 1 26 9 vvcurveto
          3 vlineto
          11 26 62 88 0 vvcurveto
          14 -86 21 0 -24 -84 -26 -21 callgsubr
          -2 0 -22 -13 vvcurveto
          -9 vlineto
          -20 -22 -52 -2 -3 vhcurveto
          -4 -6 -12 -5 0 vvcurveto
          -3 -26 -34 -91 8 callgsubr
          -7 -19 -4 0 vvcurveto
          -14 -13 95 0 3 -16 -2 -4 3 hvcurveto
          -5 4 -2 8 5 vvcurveto
          2 vlineto
          2 5 19 17 0 vvcurveto
          11 callgsubr
          2 4 vvcurveto
          26 -13 90 0 vhcurveto
          -1 6 -115 10 0 vvcurveto
          -12 -26 -15 -2 -8 hhcurveto
          -5 -2 1 0 hvcurveto
          1 -1 -2 0 -2 hhcurveto
          -19 -44 -25 -4 -10 25 -30 2 -8 hvcurveto
          0 5 -43 8 vhcurveto
          0 35 -4 -12 -11 -23 -21 -8 12 callgsubr
          0 59 -140 4 -14 vhcurveto
          1 -3 0 -2 -3 -8 -3 -6 -5 -1 1 -63 callsubr
          34 -81 -47 0 -19 -19 -10 vvcurveto
          -2 1 -1 -45 callsubr
          0 22 -22 -9 vvcurveto
          -26 vlineto
          -40 -2 -77 -19 -27 -34 callgsubr
          -10 45 -37 80 vhcurveto
          0 28 6 13 16 vhcurveto
          0 27 15 25 vhcurveto
          0 17 3 5 vvcurveto
          2 vlineto
          17 -12 43 12 vvcurveto
          endchar
        </CharString>
        <CharString name="Ydieresis">
          70 -16 -21 58 -21 943 -20 hstemhm
          150 207 -103 38 callsubr
          hintmask 11101000
          254 21 callsubr
          hintmask 11100100
          -59 callgsubr
          -89 callsubr
          -77 callsubr
          -43 callsubr
          -27 callgsubr
          6 21 27 10 hhcurveto
          3 7 5 5 5 hvcurveto
          hintmask 11110000
          -110 -756 rmoveto
          26 8 125 0 vhcurveto
          -2 hlineto
          -18 -7 21 0 hvcurveto
          7 23 32 8 0 vvcurveto
          21 89 68 132 0 0 -54 callsubr
          vvcurveto
          6 -9 12 0 vhcurveto
          21 37 6 0 vhcurveto
          14 14 1 26 9 vvcurveto
          3 vlineto
          11 26 62 88 0 vvcurveto
          14 -86 21 0 -24 -84 -26 -21 callgsubr
          -2 0 -22 -13 vvcurveto
          -9 vlineto
          -20 -22 -52 -2 -3 vhcurveto
          -4 -6 -12 -5 0 vvcurveto
          -3 -26 -34 -91 8 callgsubr
          -7 -19 -4 0 vvcurveto
          -14 -13 95 0 3 -16 -2 -4 3 hvcurveto
          -5 4 -2 8 5 vvcurveto
          2 vlineto
          hintmask 11101000
          2 5 19 17 0 vvcurveto
          11 callgsubr
          2 4 vvcurveto
          26 -13 90 0 vhcurveto
          -1 6 -115 10 0 vvcurveto
          -12 -26 -15 -2 -8 hhcurveto
          -5 -2 1 0 hvcurveto
          hintmask 11110000
          1 -1 -2 0 -2 hhcurveto
          -19 -44 -25 -4 -10 25 -30 2 -8 hvcurveto
          0 5 -43 8 vhcurveto
          0 35 -4 -12 -11 -23 -21 -8 12 callgsubr
          0 59 -140 4 -14 vhcurveto
          1 -3 0 -2 -3 -8 -3 -6 -5 -1 1 -63 callsubr
          34 -81 -47 0 -19 -19 -10 vvcurveto
          -2 1 -1 -45 callsubr
          0 22 -22 -9 vvcurveto
          -26 vlineto
          -40 -2 -77 -19 -27 -34 callgsubr
          -10 45 -37 80 vhcurveto
          0 28 6 13 16 vhcurveto
          0 27 15 25 vhcurveto
          0 17 3 5 vvcurveto
          2 vlineto
          17 -12 43 12 vvcurveto
          endchar
        </CharString>
        <CharString name="Z">
          32 -8 -21 27 -21 22 -21 779 -20 hstemhm
          hintmask 10010000
          509 80 rmoveto
          1 -10 -3 callsubr
          15 48 11 70 0 vvcurveto
          16 -63 41 -16 -4 -43 -101 -20 -26 vhcurveto
          -23 -17 -48 -1 0 vvcurveto
          -25 -7 14 0 53 93 188 0 hvcurveto
          23 50 9 26 vvcurveto
          1 -1 0 17 callsubr
          -6 7 -9 11 10 vvcurveto
          18 38 15 0 vhcurveto
          4 26 54 91 0 vvcurveto
          1 2 -7 6 5 1 -54 callsubr
          vvcurveto
          16 31 39 45 0 -27 callsubr
          5 -27 24 0 vhcurveto
          -8 8 -103 7 0 vvcurveto
          -7 -27 -25 0 hvcurveto
          -18 -62 20 0 hvcurveto
          1 -3 -10 1 -14 hhcurveto
          -38 -63 -4 0 hvcurveto
          -4 -3 -11 -12 -9 -2 rrcurveto
          -10 -2 -45 -4 0 vvcurveto
          -15 -15 -34 -124 -14 vvcurveto
          -9 50 -50 17 vhcurveto
          0 44 79 39 22 vhcurveto
          0 41 9 30 vhcurveto
          3 hlineto
          11 35 -2 -26 -8 -47 -1 -9 -8 hvcurveto
          0 -9 -43 -9 -16 vhcurveto
          -6 -4 -10 0 -5 hhcurveto
          0 -86 -155 -22 0 26 -16 -13 vvcurveto
          0 -9 -18 68 callsubr
          -44 -11 -1 -12 vhcurveto
          -6 -39 -82 -170 -12 vvcurveto
          -10 15 -49 26 -13 vhcurveto
          2 hlineto
          16 83 21 25 hhcurveto
          hintmask 00110000
          0 61 -14 25 4 3 0 1 2 vhcurveto
          0 43 24 19 vhcurveto
          hintmask 01010000
          9 19 -19 -7 2 hvcurveto
          3 hlineto
          hintmask 10010000
          18 81 1 14 14 hvcurveto
          0 34 79 9 vvcurveto
          endchar
        </CharString>
        <CharString name="Zcaron">
          32 -8 -21 27 -21 22 -21 647 129 45 1 callsubr
          hintmask 01010100
          136 931 -82 callsubr
          37 callsubr
          373 -851 rmoveto
          -9 -34 -79 0 vhcurveto
          -14 -14 -81 -1 -18 hhcurveto
          -3 hlineto
          7 -2 -19 19 -9 hhcurveto
          -19 -43 -24 0 hvcurveto
          -1 -2 -3 0 -4 hhcurveto
          -25 -61 14 0 hvcurveto
          -25 -83 -21 -16 hhcurveto
          -2 hlineto
          -26 13 -15 49 10 vvcurveto
          12 82 170 6 39 vhcurveto
          1 12 44 11 0 vvcurveto
          4 4 9 18 0 vvcurveto
          13 -26 10 callsubr
          22 86 155 0 vhcurveto
          hintmask 10011010
          5 10 0 6 4 hvcurveto
          hintmask 01010100
          9 16 9 43 0 vvcurveto
          9 8 47 1 8 vvcurveto
          26 -35 2 -11 vhcurveto
          -3 hlineto
          hintmask 00110100
          -30 -41 -9 0 hvcurveto
          -39 -22 -44 -79 0 vvcurveto
          -17 -50 50 9 14 34 124 15 15 hvcurveto
          0 45 4 10 2 vhcurveto
          9 2 11 12 4 3 rrcurveto
          0 63 4 38 14 10 -1 -1 3 vhcurveto
          0 62 -20 18 vhcurveto
          0 27 25 7 vhcurveto
          0 103 -7 8 -8 vhcurveto
          hintmask 10010100
          0 27 -24 -5 -25 callgsubr
          0 -39 -45 -16 -31 vhcurveto
          -1 -1 -1 -1 vvcurveto
          -5 7 -6 -1 -2 vhcurveto
          0 -54 -91 -4 -26 vhcurveto
          0 -38 -15 -18 vvcurveto
          -10 9 -11 6 -7 vhcurveto
          1 -1 1 0 -1 -26 -50 -9 -23 0 -93 -188 -53 vvcurveto
          0 7 -14 25 vhcurveto
          0 48 1 23 17 vhcurveto
          20 26 43 101 4 hhcurveto
          16 63 -41 -16 0 -11 -70 -15 -48 hvcurveto
          0 10 -10 -1 vvcurveto
          endchar
        </CharString>
        <CharString name="a">
          16 callgsubr
          559 -20 72 callsubr
          -127 162 hintmask 01011100
          265 185 -61 callgsubr
          vhcurveto
          hintmask 01011010
          -86 callgsubr
          -77 callgsubr
          4 -11 6 20 20 19 25 7 vvcurveto
          31 -54 34 -42 9 vhcurveto
          -33 8 -44 29 0 vvcurveto
          -41 -110 -34 -7 -12 hvcurveto
          -11 -7 -33 -69 -4 vvcurveto
          -10 16 -21 3 vhcurveto
          4 60 29 29 hhcurveto
          0 78 -6 13 -13 vhcurveto
          0 14 -22 -17 vvcurveto
          -51 callsubr
          hintmask 10111100
          -64 callgsubr
          -10 -17 -16 -14 -7 -3 vvcurveto
          -104 callgsubr
        </CharString>
        <CharString name="aacute">
          16 callgsubr
          761 -20 5 callsubr
          hintmask 10111001
          404 707 rmoveto
          -107 callgsubr
          -139 -522 rmoveto
          0 1 -1 -1 vvcurveto
          -10 -40 -33 -16 -7 -26 23 13 -86 callgsubr
          vvcurveto
          hintmask 01011001
          -77 callgsubr
          vvcurveto
          hintmask 10111010
          -105 callgsubr
          hintmask 10111100
          -104 callgsubr
        </CharString>
        <CharString name="acircumflex">
          16 callgsubr
          600 -20 61 124 72 callsubr
          -127 157 hintmask 01011101
          419 -1 callsubr
          hintmask 01011110
          -38 callgsubr
          -37 callgsubr
          -39 callsubr
          -38 callsubr
          -74 callgsubr
          -75 callgsubr
          -92 callgsubr
          -86 callsubr
          -80 callsubr
          -154 -437 -2 callsubr
          hintmask 01011101
          16 callsubr
          -2 -5 vhcurveto
          41 callsubr
          hintmask 10111110
          -65 callgsubr
          -77 callgsubr
          -105 callgsubr
          -104 callgsubr
        </CharString>
        <CharString name="acute">
          606 -21 165 -20 hstem
          399 707 rmoveto
          -107 callgsubr
          endchar
        </CharString>
        <CharString name="adieresis">
          16 callgsubr
          436 174 134 -20 hstemhm
          5 172 29 206 -146 127 -115 134 -134 150 hintmask 0101111000000000
          206 -42 callsubr
          -47 callgsubr
          hintmask 0101110001000000
          -104 callsubr
          -56 callsubr
          -154 -443 -61 callgsubr
          vhcurveto
          hintmask 0101110010000000
          -86 callgsubr
          -81 callgsubr
          hintmask 0101110100000000
          6 -9 2 6 vvcurveto
          7 9 13 2 4 vhcurveto
          3 7 0 50 0 4 -11 6 20 20 19 25 7 vvcurveto
          31 -54 34 -42 9 vhcurveto
          -33 8 -44 29 0 vvcurveto
          -41 -110 -34 -7 -12 hvcurveto
          -11 -7 -33 -69 -4 vvcurveto
          -10 16 -21 3 vhcurveto
          4 60 29 29 hhcurveto
          hintmask 0101110001000000
          0 78 -6 13 -13 vhcurveto
          0 14 -22 -17 vvcurveto
          hintmask 1011111000000000
          -51 callsubr
          -64 callgsubr
          -10 -17 -16 -14 -7 -3 vvcurveto
          -104 callgsubr
        </CharString>
        <CharString name="ae">
          177 -18 135 -130 -21 28 -21 27 -21 30 108 430 -20 hstemhm
          5 171 97 174 hintmask 10000111
          210 139 rmoveto
          -7 -27 23 13 12 13 6 0 hvcurveto
          -20 callgsubr
          -8 12 0 vhcurveto
          16 callsubr
          -3 -5 vhcurveto
          -12 -3 -22 -17 vvcurveto
          -11 1 -9 4 -4 vhcurveto
          1 0 -1 -1 -10 -39 -33 -16 hvcurveto
          234 261 rmoveto
          0 11 34 22 11 callsubr
          8 2 8 7 7 -2 -6 vhcurveto
          0 -9 -24 -15 vvcurveto
          -4 0 -3 2 -2 vhcurveto
          0 18 -10 -10 vvcurveto
          -2 -1 -3 -44 callsubr
          32 callsubr
          -6 43 0 hvcurveto
          3 3 1 9 10 vvcurveto
          17 -3 21 0 vhcurveto
          225 -240 rmoveto
          5 -19 8 -7 -3 -13 -16 0 vhcurveto
          -27 -27 -51 -9 0 vvcurveto
          -3 -13 -14 -1 -13 hhcurveto
          -28 -23 27 callgsubr
          117 15 21 21 hvcurveto
          20 21 27 42 65 vvcurveto
          2 -1 0 -2 vhcurveto
          -5 -10 -4 -8 hhcurveto
          -7 -5 3 10 4 4 13 4 60 callgsubr
          -14 13 -111 4 0 vvcurveto
          -31 -64 -29 -18 -23 hvcurveto
          -14 8 -12 4 -14 4 rrcurveto
          -33 7 -44 29 0 vvcurveto
          -41 -110 -34 -7 -12 hvcurveto
          -12 -7 -32 -69 -4 vvcurveto
          -10 15 -20 4 vhcurveto
          4 60 28 29 hhcurveto
          0 78 -6 13 -12 vhcurveto
          0 14 -23 -17 vvcurveto
          -51 callsubr
          -64 callgsubr
          -9 -17 -17 -15 -6 -4 vvcurveto
          -3 53 -69 64 vhcurveto
          0 66 43 10 13 vhcurveto
          0 10 16 5 vhcurveto
          0 12 -3 -1 vvcurveto
          1 -1 0 -2 -4 vvcurveto
          hintmask 00011111
          -11 -3 -20 -12 vvcurveto
          -5 1 -4 -45 callsubr
          hintmask 01001111
          0 62 -24 18 vhcurveto
          2 hlineto
          0 44 36 21 vhcurveto
          hintmask 00011111
          -11 15 35 -12 26 6 11 30 21 hhcurveto
          14 2 -27 -8 8 hvcurveto
          hintmask 00101111
          -1 11 callgsubr
          3 hhcurveto
          19 61 21 14 4 hvcurveto
          5 15 34 26 6 20 rrcurveto
          -11 callsubr
          3 3 19 -8 40 19 vvcurveto
          endchar
        </CharString>
        <CharString name="agrave">
          16 callgsubr
          759 -20 5 callsubr
          hintmask 10111001
          348 625 rmoveto
          -19 19 -44 91 51 callsubr
          -50 10 -5 1 rrcurveto
          -23 -54 -30 -5 hvcurveto
          -3 39 -38 -2 vvcurveto
          1 hlineto
          2 7 1 5 hhcurveto
          4 2 0 -2 2 hvcurveto
          2 -2 1 -5 -5 vvcurveto
          -10 vlineto
          -3 0 -2 1 vhcurveto
          8 47 -45 9 hhcurveto
          39 28 20 7 hvcurveto
          -83 -439 rmoveto
          0 1 -1 -1 vvcurveto
          -10 -40 -33 -16 -7 -26 23 13 -86 callgsubr
          vvcurveto
          hintmask 01011001
          -77 callgsubr
          vvcurveto
          hintmask 10111010
          -105 callgsubr
          hintmask 10111100
          -104 callgsubr
        </CharString>
        <CharString name="ampersand">
          85 -22 154 -125 125 -124 -21 34 -21 768 -20 hstemhm
          5 220 -194 194 -121 163 97 132 hintmask 0100100110000000
          322 566 rmoveto
          hintmask 0100101010000000
          -14 -6 -2 -5 vhcurveto
          hintmask 1000100110000000
          -3 -3 1 0 hvcurveto
          -8 -30 41 23 hvcurveto
          hintmask 1000101010000000
          22 43 35 14 vhcurveto
          hintmask 1000110010000000
          21 19 -38 -14 hvcurveto
          -22 -42 -26 -6 vvcurveto
          14 -401 rmoveto
          -16 -43 -17 -5 vhcurveto
          hintmask 0001110010000000
          -24 -39 24 27 hvcurveto
          17 -30 3 10 vvcurveto
          5 1 58 11 11 callsubr
          42 47 22 vhcurveto
          0 30 -10 -7 -7 -31 -25 -5 -18 66 -90 -6 vvcurveto
          73 -110 rmoveto
          12 26 -48 35 hhcurveto
          23 75 82 17 8 hvcurveto
          6 14 4 25 11 vvcurveto
          3 0 1 17 callsubr
          -3 3 -36 3 0 vvcurveto
          -19 -26 40 5 7 36 42 6 14 hvcurveto
          2 5 0 8 9 vvcurveto
          18 -2 20 0 vhcurveto
          2 -2 -7 0 -10 hhcurveto
          -31 -57 -6 0 hvcurveto
          -47 46 -28 68 0 vvcurveto
          10 3 90 85 23 hhcurveto
          5 2 11 14 25 -6 34 -3 -12 -15 14 0 8 2 19 9 2 13 11 0 19 -46 54 0 hvcurveto
          18 -17 -116 1 -21 hhcurveto
          -3 hlineto
          -18 -104 -69 -32 -31 hvcurveto
          hintmask 0010110010000000
          -14 -13 -12 -75 -40 vvcurveto
          -8 15 -3 10 -10 vhcurveto
          0 41 -79 -10 -9 -151 -119 -30 -7 12 -6 -28 -25 -26 -27 -11 vvcurveto
          -20 95 -169 68 vhcurveto
          8 59 22 27 28 4 -13 4 31 69 68 11 hhcurveto
          endchar
        </CharString>
        <CharString name="apple">
          117 -12 45 63 45 327 44 63 45 -45 163 hstemhm
          0 45 138 54 164 57 128 46 hintmask 1110111110000000
          434 738 rmoveto
          -60 hlineto
          -59 -61 -58 61 rlineto
          -59 hlineto
          90 -85 rlineto
          1 9 9 0 10 hhcurveto
          9 10 0 -1 9 hvcurveto
          288 -349 rmoveto
          174 -142 142 -174 -175 -141 -142 -174 -174 141 -142 175 174 142 142 174 vhcurveto
          -46 hmoveto
          -150 -121 -121 -149 -150 -121 121 150 149 121 122 150 149 121 -122 -149 vhcurveto
          -128 -100 rmoveto
          134 -221 -10 85 vvcurveto
          32 32 23 48 vhcurveto
          hintmask 1111011110000000
          35 39 -13 -29 33 hvcurveto
          11 43 rlineto
          12 -24 -42 31 -55 hhcurveto
          -57 -74 -24 -79 hvcurveto
          -112 218 -14 -83 vvcurveto
          -35 -36 -24 -54 -36 -45 12 29 -47 vhcurveto
          -9 -47 rlineto
          -18 37 44 -21 48 hhcurveto
          81 74 33 75 hvcurveto
          endchar
        </CharString>
        <CharString name="aring">
          16 callgsubr
          767 -20 72 callsubr
          -120 155 hintmask 01011100
          276 650 -40 callsubr
          vvcurveto
          hintmask 01011010
          -103 callgsubr
          51 -403 -2 callsubr
          18 62 26 14 vhcurveto
          hintmask 10111100
          1 1 -2 -5 hvcurveto
          -62 callgsubr
          -77 callgsubr
          -105 callgsubr
          -104 callgsubr
        </CharString>
        <CharString name="asciicircum">
          -160 226 69 callgsubr
          335 258 -88 callgsubr
          -38 callgsubr
          -37 callgsubr
          -39 callsubr
          -38 callsubr
          hintmask 01100000
          -74 callgsubr
          -75 callgsubr
          -92 callgsubr
          -86 callsubr
          -80 callsubr
          endchar
        </CharString>
        <CharString name="asciitilde">
          -213 277 -21 110 -20 hstem
          282 316 48 callsubr
          -85 callsubr
          endchar
        </CharString>
        <CharString name="asterisk">
          -219 525 194 84 -20 hstemhm
          13 167 -167 206 -97 58 -58 157 hintmask 11000100
          175 614 rmoveto
          18 37 -53 5 hhcurveto
          18 26 44 18 hvcurveto
          hintmask 11010000
          6 -60 14 20 vvcurveto
          7 62 25 0 vhcurveto
          4 5 1 15 0 vvcurveto
          15 -35 34 -5 vhcurveto
          -3 -45 -45 -8 hhcurveto
          hintmask 11001000
          -3 -7 1 5 hvcurveto
          13 15 47 6 vvcurveto
          6 -26 6 -12 vhcurveto
          -3 hlineto
          -10 -1 -27 -12 -3 -3 rrcurveto
          -1 vlineto
          -7 8 -31 -19 vvcurveto
          -10 -2 -7 -6 vhcurveto
          -16 -36 50 -7 hhcurveto
          0 -14 -5 -11 -11 vhcurveto
          -8 -8 -12 -35 -10 -4 68 -17 -6 0 2 -3 -3 vvcurveto
          -2 -1 -1 -44 callsubr
          hintmask 11100000
          -16 -11 -48 -11 -4 vvcurveto
          -45 31 -19 7 vhcurveto
          3 42 41 7 hhcurveto
          0 7 0 2 -2 vhcurveto
          1 -1 0 -1 -3 -15 -11 -44 -4 vvcurveto
          0 9 -11 16 20 32 8 6 vhcurveto
          0 -10 38 22 vvcurveto
          9 2 6 4 vhcurveto
          endchar
        </CharString>
        <CharString name="at">
          563 -232 130 -113 113 104 -21 648 122 -94 94 -94 121 hstemhm
          23 141 -111 111 -41 197 -8 172 89 122 159 165 -165 207 -148 160 -130 130 hintmask 1010011001110000
          hintmask 1011000010110000
          572 184 rmoveto
          hintmask 1011000101110000
          33 callgsubr
          -10 -39 -33 -16 -8 -26 23 12 13 -54 callgsubr
          -7 12 0 vhcurveto
          19 61 26 15 1 1 -3 -4 vhcurveto
          41 callsubr
          -12 1 -10 4 -4 vhcurveto
          447 306 rmoveto
          61 -120 111 -12 vhcurveto
          -1 hlineto
          -4 -5 -4 -2 -5 hhcurveto
          -14 -13 14 0 hvcurveto
          -3 3 -1 7 7 vvcurveto
          6 1 6 0 vhcurveto
          22 -152 57 -142 vhcurveto
          -7 -9 -27 -25 -13 -7 16 -7 hhcurveto
          -59 -124 -52 22 callsubr
          -3 -7 -17 0 vvcurveto
          -28 -137 -130 -14 -12 4 -11 0 hvcurveto
          -11 -17 -8 0 -27 -15 -32 0 vhcurveto
          -21 vlineto
          -29 -39 -71 -93 -12 24 9 -25 -25 -30 -10 -6 vvcurveto
          -133 49 -108 14 29 37 -94 0 vhcurveto
          -18 19 82 -56 29 hhcurveto
          6 15 17 4 4 hvcurveto
          1 -11 callsubr
          2 hhcurveto
          8 12 -4 0 hvcurveto
          5 -5 4 -27 51 callsubr
          8 -1 10 hhcurveto
          29 49 7 0 10 38 35 0 hvcurveto
          22 22 5 54 0 vvcurveto
          9 -2 4 -5 vhcurveto
          -9 -18 -11 -34 -75 -41 29 -12 46 callsubr
          -1 -63 callsubr
          -1 hhcurveto
          -21 -85 106 59 3 -4 1 -5 -6 -6 -1 0 hvcurveto
          hintmask 0111001001110000
          -8 -1 20 6 hvcurveto
          2 vlineto
          hintmask 1011001001110000
          9 20 17 17 vvcurveto
          4 -13 15 -4 5 vhcurveto
          -5 4 0 55 0 vvcurveto
          41 22 97 2 10 vhcurveto
          6 27 67 77 51 callsubr
          -1 2 3 vvcurveto
          10 12 -3 callsubr
          hintmask 1011000010110000
          42 8 13 23 24 96 43 16 hvcurveto
          hintmask 1010101001101000
          53 17 28 48 hhcurveto
          105 73 -36 0 hvcurveto
          43 -12 -28 10 hhcurveto
          18 50 -50 -11 11 hvcurveto
          4 -4 2 -8 -8 vvcurveto
          -12 -3 -11 0 vhcurveto
          -15 23 -1 11 -12 vhcurveto
          56 -55 2 -124 -33 vvcurveto
          -7 vlineto
          -11 -30 -18 -10 vvcurveto
          -20 15 -18 0 vhcurveto
          -42 -42 -63 0 vhcurveto
          -7 -4 -55 -46 -22 hhcurveto
          -33 -43 40 23 hvcurveto
          14 -5 5 12 2 -29 4 13 vvcurveto
          28 32 20 0 2 1 10 14 vhcurveto
          16 -1 21 15 6 1 5 3 -27 callsubr
          hintmask 1011001001100010
          6 -9 2 5 vvcurveto
          7 9 14 2 4 vhcurveto
          3 7 0 50 0 4 -11 6 20 20 19 25 7 vvcurveto
          31 -54 34 -42 9 vhcurveto
          -32 7 -45 29 0 vvcurveto
          -41 -110 -33 -7 -12 hvcurveto
          hintmask 1011001001100100
          -11 -7 -33 -69 -5 vvcurveto
          hintmask 1011001001101000
          -9 16 -21 4 vhcurveto
          4 60 29 28 hhcurveto
          0 79 -6 12 -13 vhcurveto
          0 14 -23 -17 vvcurveto
          -3 -14 -17 -20 vhcurveto
          -4 -10 13 -6 hhcurveto
          -60 -109 -69 -14 -11 hvcurveto
          0 -34 -67 -101 0 48 -10 -17 -17 -15 -6 -3 vvcurveto
          hintmask 1011001001110000
          -3 52 -70 64 vhcurveto
          0 80 35 22 30 vhcurveto
          0 11 16 5 vhcurveto
          0 11 -4 -45 callsubr
          -16 vlineto
          -8 2 -7 7 vhcurveto
          16 -3 -100 46 hhcurveto
          4 hlineto
          11 30 -3 -28 0 65 -24 9 hvcurveto
          0 103 23 9 vvcurveto
          0 2 41 29 vhcurveto
          15 hlineto
          10 12 0 3 3 hvcurveto
          0 94 126 29 vvcurveto
          11 15 98 9 10 vhcurveto
          2 2 1 7 12 vvcurveto
          42 -11 89 -13 13 vhcurveto
          0 12 24 20 16 -42 13 31 vvcurveto
          endchar
        </CharString>
        <CharString name="atilde">
          16 callgsubr
          371 65 123 110 -110 146 5 callsubr
          hintmask 1011011001000000
          363 64 callgsubr
          hintmask 0101011001000000
          -85 callsubr
          -98 -459 rmoveto
          0 1 -1 -1 vvcurveto
          -10 -40 -33 -16 -7 -26 23 13 -86 callgsubr
          vvcurveto
          hintmask 1011011010000000
          -77 callgsubr
          vvcurveto
          hintmask 1011011100000000
          -105 callgsubr
          hintmask 1011101100000000
          -104 callgsubr
        </CharString>
        <CharString name="b">
          -64 1 -21 23 -21 412 135 246 -20 hstemhm
          48 127 -127 154 -126 140 42 131 -109 155 hintmask 1011010100000000
          268 210 rmoveto
          0 -1 -68 -10 -10 vhcurveto
          -20 -19 -24 -7 -10 hhcurveto
          -1 -1 2 4 hvcurveto
          11 4 21 10 5 -16 11 9 8 18 8 8 vvcurveto
          8 -5 29 0 vhcurveto
          2 1 2 4 15 -3 31 25 vvcurveto
          hintmask 1011100010000000
          17 1 15 4 6 vhcurveto
          2 1 23 36 31 hhcurveto
          hintmask 1011100100000000
          0 4 -3 -2 vvcurveto
          hintmask 1011100010000000
          -1 vlineto
          0 -5 -16 -2 -6 vhcurveto
          -3 vlineto
          -10 3 -27 -16 vvcurveto
          -5 0 -3 -1 -2 vhcurveto
          0 20 -13 -16 -16 -21 -2 -5 vvcurveto
          hintmask 1011100100000000
          0 -1 -4 -5 vvcurveto
          -9 2 -13 8 -7 vhcurveto
          -84 -193 rmoveto
          0 50 -37 22 11 68 41 28 28 vhcurveto
          22 22 1 29 9 hhcurveto
          hintmask 1011001100000000
          12 28 66 26 4 0 3 -2 2 hvcurveto
          -3 3 -1 14 17 26 2 35 23 vvcurveto
          14 -1 9 -2 3 vhcurveto
          -1 hlineto
          -3 -10 -2 -9 hhcurveto
          hintmask 1011100100000000
          -9 -7 2 7 25 27 23 0 hvcurveto
          34 -74 95 -26 -27 -75 -54 -25 -25 vhcurveto
          -2 -2 -2 -1 -2 hhcurveto
          -7 -1 18 0 hvcurveto
          hintmask 1011001100000000
          26 41 26 18 callsubr
          3 1 6 7 vvcurveto
          hintmask 0111100100000000
          14 -4 18 0 vhcurveto
          76 23 90 0 vhcurveto
          10 -81 34 -40 -14 -62 -38 -6 -3 vhcurveto
          -4 vlineto
          -17 9 -58 -26 0 28 -7 -13 vvcurveto
          -14 -17 -20 -9 -1 -1 -5 -7 vhcurveto
          -24 6 -57 -38 vvcurveto
          -18 -1 -14 68 callsubr
          -14 -15 -1 -10 12 -10 -10 0 3 -73 -60 vvcurveto
          -34 -1 -29 -3 -9 vhcurveto
          -15 -45 -11 -14 -4 vvcurveto
          -11 74 -98 29 vhcurveto
          10 40 36 9 hhcurveto
          1 1 -1 0 hvcurveto
          endchar
        </CharString>
        <CharString name="backslash">
          -146 -84 -21 958 -20 hstem
          237 505 rmoveto
          -15 23 -24 128 0 vvcurveto
          1 5 -23 20 30 vvcurveto
          4 0 4 1 2 callgsubr
          4 0 5 5 vvcurveto
          32 -15 42 0 vhcurveto
          2 11 -69 30 0 vvcurveto
          1 -4 -4 0 -5 hhcurveto
          -36 -54 -18 -5 -1 hvcurveto
          -1 vlineto
          -12 40 -99 5 -40 vhcurveto
          0 17 -9 8 -12 vhcurveto
          2 -2 0 -5 -5 vvcurveto
          -7 -1 -8 0 vhcurveto
          -2 -2 -2 -3 -1 -4 rrcurveto
          -5 vlineto
          -13 6 -16 0 vhcurveto
          22 -4 1 -31 -5 callsubr
          -1 -2 -2 vvcurveto
          -5 vlineto
          -47 63 -192 0 vhcurveto
          16 -9 4 -14 -11 -3 -1 -2 -3 vvcurveto
          -2 -6 -1 -5 0 12 callgsubr
          -13 19 -54 -1 -5 vhcurveto
          -4 vlineto
          -21 19 -54 3 -1 vhcurveto
          21 -3 2 -21 8 callgsubr
          -9 -11 -14 0 12 callgsubr
          -16 25 -45 -32 -3 -1 -3 -2 vvcurveto
          -2 -10 77 -36 29 -5 rrcurveto
          1 hlineto
          8 60 12 10 1 hvcurveto
          0 -71 176 21 vvcurveto
          3 vlineto
          20 -30 110 -11 12 vhcurveto
          -21 23 14 57 -36 92 rrcurveto
          0 -31 22 12 -27 callsubr
          2 9 11 6 2 10 rrcurveto
          4 0 4 -4 6 vhcurveto
          endchar
        </CharString>
        <CharString name="bar">
          -270 -51 -21 899 -20 hstemhm
          40 145 -132 132 -132 144 -144 159 hintmask 11100000
          215 -31 rmoveto
          -9 25 -1 112 0 7 -20 0 19 12 29 18 8 vvcurveto
          15 -11 22 0 vhcurveto
          hintmask 11001000
          -4 5 -2 30 40 57 3 76 50 vvcurveto
          29 -1 19 -3 3 vhcurveto
          0 -1 1 2 vvcurveto
          hintmask 11000100
          15 17 68 28 6 callsubr
          15 -89 6 -16 vhcurveto
          hintmask 11100000
          -15 -60 -34 -4 hvcurveto
          5 callgsubr
          vvcurveto
          hintmask 11010000
          0 6 -37 -33 vvcurveto
          -21 -2 -19 -8 -7 vhcurveto
          hintmask 11100000
          -2 -2 -1 -11 -16 -39 4 -68 -53 vvcurveto
          -34 -2 -26 -5 -9 vhcurveto
          0 -12 -25 -4 -14 34 -4 -27 vvcurveto
          -12 -12 -1 -4 -3 vhcurveto
          -63 callsubr
          -5 -7 -25 4 -57 -36 vvcurveto
          -13 0 -11 -2 -5 vhcurveto
          0 -15 -70 -14 25 callsubr
          endchar
        </CharString>
        <CharString name="braceleft">
          -245 68 callgsubr
          10 149 -97 119 -107 136 hintmask 11001000
          208 -96 rmoveto
          12 40 22 9 hvcurveto
          hintmask 11010000
          4 -22 15 -18 27 vhcurveto
          19 callsubr
          9 12 44 4 93 6 7 -51 26 23 vvcurveto
          hintmask 11001000
          11 55 47 5 vvcurveto
          19 -10 29 0 vhcurveto
          125 vlineto
          14 15 17 10 vvcurveto
          hintmask 11100000
          7 -11 29 0 vhcurveto
          hintmask 11010000
          31 callgsubr
          vvcurveto
          -38 vlineto
          -27 1 -38 -35 vvcurveto
          -43 -1 -37 -2 -6 vhcurveto
          -6 -14 -56 -66 -15 vvcurveto
          hintmask 11001000
          -16 85 -71 -12 vvcurveto
          hintmask 11100000
          -1 vlineto
          -5 -1 -17 -10 vhcurveto
          -8 -5 4 -5 hhcurveto
          hintmask 11010000
          -3 -2 -1 -3 -3 hvcurveto
          -1 -1 -1 -4 -7 -26 8 -63 -34 vvcurveto
          -9 -1 -7 -1 -15 callgsubr
          -11 -66 -31 vvcurveto
          -18 135 -73 22 vhcurveto
          endchar
        </CharString>
        <CharString name="braceright">
          -245 68 callgsubr
          60 136 -107 119 -97 149 78 callsubr
          hvcurveto
          hintmask 11010000
          -3 22 -15 18 -27 vhcurveto
          40 callgsubr
          -26 -21 -4 callgsubr
          -1 0 -9 -12 -44 -4 -93 -6 -8 51 -25 -23 vvcurveto
          hintmask 11100000
          -11 -56 -47 -5 vvcurveto
          -19 10 -29 0 vhcurveto
          -125 vlineto
          -14 -14 -17 -10 vvcurveto
          hintmask 11001000
          -8 11 -28 0 vhcurveto
          hintmask 11010000
          -80 -62 -60 0 vhcurveto
          -9 38 -11 0 29 141 77 15 vhcurveto
          20 -12 40 13 vvcurveto
          38 vlineto
          27 -1 38 35 vvcurveto
          43 1 37 2 6 vhcurveto
          6 14 56 65 16 vvcurveto
          hintmask 11100000
          15 -85 72 11 vvcurveto
          hintmask 11001000
          1 vlineto
          5 1 17 10 vhcurveto
          8 5 -3 5 hhcurveto
          hintmask 11010000
          2 3 1 2 2 hvcurveto
          2 2 0 5 8 28 -7 58 33 vvcurveto
          9 1 8 1 4 vhcurveto
          0 11 67 31 vvcurveto
          17 -135 73 -22 vhcurveto
          endchar
        </CharString>
        <CharString name="bracketleft">
          -279 68 callgsubr
          28 119 -105 134 hintmask 11010000
          174 -96 rmoveto
          12 40 22 9 4 -22 15 -18 27 hvcurveto
          19 callsubr
          3 5 23 5 62 40 vvcurveto
          18 -1 13 -3 3 vhcurveto
          -3 2 -2 23 24 vvcurveto
          26 2 27 5 5 vhcurveto
          4 4 1 6 7 vvcurveto
          18 -9 22 0 vhcurveto
          125 vlineto
          hintmask 11100000
          14 14 17 10 vvcurveto
          7 -11 29 0 vhcurveto
          31 callgsubr
          0 -1 -7 -11 vvcurveto
          -6 0 -7 1 -7 vhcurveto
          2 -12 0 -14 -16 -42 -4 -52 -29 vvcurveto
          -14 1 -9 3 3 1 -9 -13 vhcurveto
          -29 -5 -52 -33 vvcurveto
          -16 1 -11 3 -3 vhcurveto
          11 -11 7 -9 -3 -25 callgsubr
          -5 -1 -18 -10 vhcurveto
          -8 -3 4 -4 hhcurveto
          hintmask 11010000
          -2 -1 -1 -3 -3 hvcurveto
          -2 -2 0 -7 -12 -27 3 -49 -31 vvcurveto
          -13 0 -11 -2 -5 vhcurveto
          0 -10 -66 -31 vvcurveto
          -18 132 -73 22 vhcurveto
          endchar
        </CharString>
        <CharString name="bracketright">
          -279 68 callgsubr
          60 134 -105 119 78 callsubr
          -3 23 -15 17 -27 hvcurveto
          40 callgsubr
          -25 -21 0 vhcurveto
          -6 vlineto
          -20 -4 -64 -41 vvcurveto
          -19 1 -15 3 -3 vhcurveto
          2 -3 2 -23 -24 vvcurveto
          -26 -2 -27 -5 -5 vhcurveto
          -3 -3 -2 -6 -6 vvcurveto
          -17 10 -24 0 vhcurveto
          -125 vlineto
          hintmask 11010000
          -14 -15 -17 -10 vvcurveto
          -8 11 -28 0 vhcurveto
          -80 -62 -60 0 vhcurveto
          -9 38 -11 0 vhcurveto
          hintmask 11100000
          29 141 77 15 hvcurveto
          20 -12 40 13 0 1 7 11 vvcurveto
          6 0 6 -1 8 vhcurveto
          -1 11 -1 13 15 41 4 52 30 vvcurveto
          15 -1 10 -3 -3 -1 8 13 vhcurveto
          29 5 52 34 vvcurveto
          16 -1 12 -3 3 vhcurveto
          -11 11 -7 9 3 vvcurveto
          hintmask 11010000
          1 vlineto
          5 1 17 10 vhcurveto
          8 3 -3 4 hhcurveto
          hintmask 11100000
          2 1 1 2 3 hvcurveto
          2 2 0 8 12 28 -3 46 32 vvcurveto
          13 0 11 2 5 vhcurveto
          0 10 67 31 vvcurveto
          17 -131 73 -23 vhcurveto
          endchar
        </CharString>
        <CharString name="breve">
          603 -21 172 -20 hstem
          99 721 rmoveto
          -6 16 -34 0 14 6 -14 -5 -10 -2 -2 0 vhcurveto
          -21 11 -16 18 -12 vhcurveto
          6 -4 12 3 7 -3 8 -3 5 -8 9 -2 rrcurveto
          -2 10 10 0 10 hhcurveto
          22 21 3 8 17 hvcurveto
          22 10 15 15 22 9 callgsubr
          23 62 2 vvcurveto
          3 -27 16 -36 vhcurveto
          -2 -37 -85 -40 hhcurveto
          -15 -29 7 29 -9 hvcurveto
          0 -13 49 28 callgsubr
        </CharString>
        <CharString name="brokenbar">
          -270 -49 -21 897 -20 hstemhm
          38 145 -130 130 -130 152 hintmask 11100000
          46 57 rmoveto
          -3 -3 rlineto
          -2 -2 -1 -11 -16 vvcurveto
          -5 -22 -6 -35 -9 25 callsubr
          2 vlineto
          hintmask 11001000
          61 callgsubr
          hintmask 11010000
          6 callsubr
          hintmask 11001000
          4 -6 1 -9 vhcurveto
          -26 -50 -11 -12 hhcurveto
          -15 -62 -7 -4 hvcurveto
          5 callgsubr
          0 6 -37 -33 vvcurveto
          -10 0 -10 -7 -24 vhcurveto
          495 vmoveto
          -3 -3 rlineto
          -2 -2 -1 -11 -16 vvcurveto
          -1 -5 -1 -8 -8 -27 5 -37 -7 vvcurveto
          -3 2 -1 3 vhcurveto
          11 31 17 39 10 10 0 9 hhcurveto
          32 25 2 21 hvcurveto
          2 vlineto
          hintmask 11010000
          61 callgsubr
          hintmask 11001000
          6 callsubr
          15 -89 6 -16 -15 -60 -34 -4 vhcurveto
          5 callgsubr
          0 6 -37 -33 vvcurveto
          -10 0 -10 -7 -24 vhcurveto
          endchar
        </CharString>
        <CharString name="bullet">
          -258 184 -21 215 -20 hstem
          20 185 vstem
          223 218 rmoveto
          12 12 2 43 0 15 -38 17 9 vvcurveto
          10 6 4 callgsubr
          22 -72 21 0 -9 -17 -6 0 vhcurveto
          -5 -5 -43 -38 -17 hhcurveto
          -11 -11 -56 -34 -12 1 -8 4 -4 hvcurveto
          0 41 -36 21 -7 vhcurveto
          0 38 -9 25 vhcurveto
          8 28 40 16 hhcurveto
          3 11 9 6 7 hvcurveto
          endchar
        </CharString>
        <CharString name="c">
          -95 -6 -21 570 -20 hstemhm
          5 174 -156 189 hintmask 11010000
          327 hmoveto
          19 20 49 72 6 vvcurveto
          5 57 callgsubr
          -41 callsubr
          hintmask 11100000
          -9 9 -2 14 15 22 5 24 12 vvcurveto
          4 -1 3 17 callsubr
          -1 1 0 1 1 vvcurveto
          9 26 27 -52 callgsubr
          -74 -81 -5 hvcurveto
          -7 9 -11 -5 vvcurveto
          -63 callsubr
          0 vhcurveto
          -14 -14 -28 -107 -7 vvcurveto
          hintmask 11010000
          -72 18 -44 -46 vvcurveto
          0 12 -6 12 5 4 1 3 4 vhcurveto
          -18 callgsubr
          4 7 -9 -10 vhcurveto
          -12 -20 -8 -3 vvcurveto
          -11 98 -80 40 vhcurveto
          0 20 7 7 7 vhcurveto
          0 103 8 6 5 vhcurveto
          endchar
        </CharString>
        <CharString name="caron">
          589 1 callsubr
          hintmask 01000000
          87 -26 callgsubr
          hintmask 10100000
          -64 callsubr
          37 callsubr
          endchar
        </CharString>
        <CharString name="ccedilla">
          -95 -125 -21 131 166 -142 -21 555 -20 hstemhm
          5 174 -156 189 hintmask 10111000
          231 -12 rmoveto
          17 74 8 4 5 hvcurveto
          19 20 49 72 7 vvcurveto
          4 57 callgsubr
          hintmask 11010100
          -41 callsubr
          hintmask 11011000
          -9 9 -2 14 15 22 5 24 12 5 -3 2 3 vvcurveto
          9 26 28 -52 callgsubr
          -75 -81 -5 hvcurveto
          -7 9 -12 -4 -25 callgsubr
          -14 -14 -28 -107 -7 vvcurveto
          hintmask 11010100
          -72 18 -44 -46 vvcurveto
          0 12 -6 12 5 4 1 3 4 vhcurveto
          -18 callgsubr
          4 7 -9 -10 vhcurveto
          -12 -20 -8 -3 vvcurveto
          -11 84 -68 53 vhcurveto
          -67 callgsubr
          hintmask 10111000
          8 11 19 callgsubr
          endchar
        </CharString>
        <CharString name="cedilla">
          -95 -125 -21 137 -20 hstem
          190 -15 rmoveto
          -67 callgsubr
          8 11 19 callgsubr
          2 -6 -8 1 -6 hhcurveto
          -7 -7 -1 -5 -7 hvcurveto
          endchar
        </CharString>
        <CharString name="cent">
          -94 -64 -21 86 -21 172 157 292 -20 hstemhm
          10 174 -156 189 hintmask 11110100
          284 -54 rmoveto
          -6 6 -1 26 10 vvcurveto
          4 vlineto
          27 3 25 3 3 3 rrcurveto
          20 20 48 71 7 vvcurveto
          5 11 34 0 vhcurveto
          11 -10 27 0 -14 -15 -9 0 vhcurveto
          -12 -14 -22 -3 -22 hhcurveto
          -29 -28 6 0 hvcurveto
          -10 -11 -20 -5 0 vvcurveto
          -9 -10 17 4 hvcurveto
          hintmask 11111000
          13 9 10 22 vvcurveto
          9 -24 5 -10 9 vhcurveto
          -6 6 -2 15 0 5 21 18 7 vvcurveto
          1 -1 1 0 vhcurveto
          -8 8 -3 14 15 23 6 24 13 3 -3 3 3 vvcurveto
          9 25 27 0 vhcurveto
          4 4 37 13 0 vvcurveto
          6 11 -17 0 hvcurveto
          -26 -17 -2 -68 0 vvcurveto
          -9 64 -23 0 32 73 54 6 3 -29 39 0 vhcurveto
          -1 3 -1 8 10 vvcurveto
          29 4 46 0 vhcurveto
          9 -70 17 -36 6 vhcurveto
          0 -1 26 2 vvcurveto
          2 7 17 -4 callgsubr
          vlineto
          7 -36 7 0 -12 -50 -9 -33 callgsubr
          -9 -12 -7 vvcurveto
          -1 -6 callsubr
          2 -2 0 -13 -11 vvcurveto
          -22 vlineto
          -15 -6 0 -5 0 vvcurveto
          -3 -3 -7 0 -6 hhcurveto
          hintmask 11110100
          -9 hlineto
          -22 -74 -81 -5 hvcurveto
          -7 9 -11 -5 vvcurveto
          -63 callsubr
          0 vhcurveto
          -14 -15 -28 -106 -7 -72 18 -45 -45 vvcurveto
          0 12 -6 12 5 4 1 3 4 vhcurveto
          -18 callgsubr
          4 7 -9 -10 vhcurveto
          -12 -20 -8 -4 vvcurveto
          -10 85 -74 40 vhcurveto
          0 -2 -40 -4 -10 -34 callgsubr
          -7 38 -7 3 22 41 18 -33 callgsubr
          3 7 4 vvcurveto
          2 vlineto
          endchar
        </CharString>
        <CharString name="circumflex">
          590 69 callgsubr
          421 -1 callsubr
          -38 callgsubr
          -37 callgsubr
          -39 callsubr
          -38 callsubr
          hintmask 01100000
          -74 callgsubr
          -75 callgsubr
          -92 callgsubr
          -86 callsubr
          -80 callsubr
          endchar
        </CharString>
        <CharString name="colon">
          -313 21 -21 533 63 callgsubr
          401 rmoveto
          10 10 1 37 0 12 -30 13 7 vvcurveto
          9 5 -12 callsubr
          19 -59 16 0 -10 -12 -4 0 vhcurveto
          -5 -5 -35 -31 -15 hhcurveto
          -6 -11 -51 -27 -8 1 -6 2 -2 hvcurveto
          0 35 -30 17 -6 vhcurveto
          0 30 -7 22 vhcurveto
          7 23 33 13 hhcurveto
          3 8 7 5 6 hvcurveto
          -166 -311 rmoveto
          12 54 30 14 0 vvcurveto
          4 12 33 10 20 hhcurveto
          3 4 0 -1 2 hvcurveto
          18 -4 19 -11 3 -3 rrcurveto
          -1 vlineto
          -5 -3 -11 -10 vvcurveto
          -4 1 54 callgsubr
          -3 -4 vvcurveto
          -17 -11 -34 -2 -4 vhcurveto
          -3 -4 -32 -9 -10 -18 rrcurveto
          -8 -5 -9 -2 -12 hhcurveto
          -12 -13 2 2 -10 hvcurveto
          -2 -2 1 -2 hhcurveto
          -3 1 -36 15 1 8 rrcurveto
          0 -2 10 10 vvcurveto
          3 0 3 1 3 vhcurveto
          0 -17 23 8 -27 callsubr
          endchar
        </CharString>
        <CharString name="comma">
          -311 -92 -7 callgsubr
          hintmask 11100000
          117 -103 -106 callgsubr
          hintmask 11010000
          -97 callsubr
          endchar
        </CharString>
        <CharString name="copyright">
          174 -54 82 -70 70 -60 78 -78 99 -69 -21 492 120 -93 93 -76 76 hstemhm
          14 110 -91 185 104 58 -58 85 65 170 -55 75 hintmask 0001010001101000
          472 156 rmoveto
          -28 -53 -51 -10 vhcurveto
          -3 -3 9 -8 -7 -29 -19 -37 hhcurveto
          -14 -49 29 17 -10 hvcurveto
          -22 33 -9 37 6 2 14 6 15 vvcurveto
          7 -14 8 1 3 vhcurveto
          -11 callsubr
          3 4 15 -3 27 7 23 11 24 18 vvcurveto
          hintmask 0010010010011000
          6 -5 11 1 vvcurveto
          18 67 59 28 11 callsubr
          38 11 59 21 24 -38 -3 vhcurveto
          -3 -10 -8 -10 -9 17 -5 -4 0 0 -4 -5 vvcurveto
          -8 -1 -13 -5 -8 vhcurveto
          -4 -6 -21 -24 -7 -2 rrcurveto
          0 -22 -8 -28 vhcurveto
          -7 10 rlineto
          7 8 1 25 11 9 -8 3 9 vvcurveto
          9 -3 14 -10 -16 -21 -22 -16 vhcurveto
          -1 0 -3 -1 vvcurveto
          hintmask 0100010010010100
          -1 0 0 -1 vvcurveto
          hintmask 1000001001101000
          -7 -6 -18 -22 -6 12 -3 -11 -11 -15 -5 -8 -8 12 -5 -2 vvcurveto
          hintmask 0000110010101000
          -3 -6 0 -8 -11 vvcurveto
          -24 vlineto
          -22 8 -44 35 6 36 33 32 -11 callsubr
          3 vhcurveto
          2 hlineto
          3 28 -14 -10 10 hvcurveto
          2 -3 15 -24 -2 vvcurveto
          -108 -205 rmoveto
          hintmask 1000010010101000
          4 6 17 16 8 5 -10 4 hhcurveto
          37 78 34 0 hvcurveto
          1 1 34 22 0 vvcurveto
          0 2 46 18 vhcurveto
          10 hlineto
          6 8 0 2 1 hvcurveto
          0 60 79 18 vvcurveto
          7 6 65 5 6 vhcurveto
          2 1 0 5 8 vvcurveto
          26 -6 56 -8 8 vhcurveto
          0 7 15 13 10 -26 9 18 vvcurveto
          32 -53 54 -22 17 vhcurveto
          -18 2 rlineto
          44 callgsubr
          hintmask 0010010010101000
          -41 callgsubr
          vvcurveto
          hintmask 1000001010101000
          -19 callsubr
          hintmask 1000000110100100
          -37 callsubr
          hhcurveto
          2 -142 -17 22 -14 hhcurveto
          -13 -53 67 36 2 -3 1 -4 -3 -4 -1 0 hvcurveto
          -5 0 13 4 hvcurveto
          1 vlineto
          6 12 10 11 vvcurveto
          3 -9 9 -2 4 vhcurveto
          -3 2 0 34 0 vvcurveto
          27 14 61 1 6 vhcurveto
          4 17 42 49 10 callgsubr
          1 -1 1 1 vvcurveto
          7 7 6 0 27 5 9 14 15 61 28 10 vhcurveto
          33 11 17 30 hhcurveto
          66 46 -23 0 hvcurveto
          27 -7 -18 6 hhcurveto
          11 32 -31 -7 7 hvcurveto
          3 -2 1 -6 -4 vvcurveto
          -8 -2 -7 0 vhcurveto
          -9 14 -1 7 -8 vhcurveto
          35 -35 1 -77 -21 vvcurveto
          -4 vlineto
          -7 -15 -15 -6 vvcurveto
          -13 9 -11 0 vhcurveto
          -27 -48 -63 0 vhcurveto
          endchar
        </CharString>
        <CharString name="currency">
          79 103 -21 22 -21 99 101 -88 88 187 97 89 -20 21 -20 hstemhm
          109 115 -103 103 180 94 hintmask 1001101011000000
          383 314 rmoveto
          -11 0 -3 -5 -5 -24 -11 -4 hvcurveto
          -13 -3 -7 -12 -48 -13 10 -4 hhcurveto
          -1 -1 rlineto
          -1 hlineto
          -5 -20 26 14 1 -2 0 -1 hvcurveto
          -2 hlineto
          hintmask 1010110011000000
          -3 0 5 1 hvcurveto
          3 5 4 4 vvcurveto
          1 -3 3 -2 2 vhcurveto
          14 vlineto
          11 5 22 1 3 vhcurveto
          1 7 16 18 0 vvcurveto
          1 -1 0 18 callsubr
          3 3 0 10 2 3 5 vhcurveto
          hintmask 0110101101000000
          6 23 11 4 vhcurveto
          13 4 7 11 hhcurveto
          26 18 -9 0 hvcurveto
          11 -3 -7 2 hhcurveto
          4 13 -12 -4 2 hvcurveto
          1 1 -2 -2 -3 -1 -2 0 hvcurveto
          -3 6 -1 2 -3 vhcurveto
          14 -14 0 -30 -7 12 callgsubr
          -3 -6 -5 -3 vvcurveto
          -4 3 -5 0 vhcurveto
          -10 -18 -25 0 vhcurveto
          hintmask 1010101101000000
          -64 -129 rmoveto
          3 3 10 10 5 3 -6 2 hhcurveto
          10 17 4 5 14 hvcurveto
          5 -4 2 -4 0 vvcurveto
          -7 -3 -13 0 17 callgsubr
          4 -11 31 -27 10 -25 rrcurveto
          -2 0 -3 -45 callsubr
          -6 41 -5 30 8 8 0 1 5 77 callgsubr
          2 39 24 9 vvcurveto
          0 0 1 -33 callgsubr
          -102 113 -6 15 vhcurveto
          2 vlineto
          -1 1 rlineto
          9 11 24 34 9 vvcurveto
          4 4 39 3 2 callgsubr
          0 3 5 16 -4 33 -5 5 hvcurveto
          0 5 9 8 6 -16 5 11 vvcurveto
          11 -10 15 -11 13 vhcurveto
          27 35 71 79 0 vvcurveto
          0 0 1 0 vhcurveto
          9 -40 24 -6 2 vhcurveto
          -1 hlineto
          1 -5 -8 0 -8 hhcurveto
          -29 -41 -5 -6 hvcurveto
          -63 callsubr
          -3 -2 vvcurveto
          -10 -25 -31 -27 -4 -11 rrcurveto
          -2 vlineto
          2 -10 rlineto
          6 -21 -27 5 -25 -3 -3 -10 -10 -5 -3 6 -2 hhcurveto
          -12 -18 -5 -5 -14 hvcurveto
          -6 5 -6 7 -3 9 rrcurveto
          -1 3 -1 3 3 vvcurveto
          3 -1 4 -2 4 vhcurveto
          -9 25 -22 27 0 vvcurveto
          -3 8 -59 3 10 callgsubr
          0 0 -1 -2 -3 -1 -3 hhcurveto
          -28 -10 -35 -29 1 -4 rrcurveto
          -1 vlineto
          3 -9 57 -63 15 -29 rrcurveto
          0 16 -1 8 -8 vhcurveto
          4 -1 0 -3 2 -3 rrcurveto
          -7 -6 -4 -6 -1 vvcurveto
          -5 1 -4 -21 callgsubr
          -6 -3 0 -10 -5 -13 0 vhcurveto
          -7 vlineto
          -11 -15 -27 -36 -4 9 4 -10 -9 -12 -4 -2 vvcurveto
          -51 19 -41 5 4 4 -5 -5 4 -34 callgsubr
          -2 -3 0 -3 -4 -1 rrcurveto
          -9 -7 -15 -2 0 vvcurveto
          -16 -29 -56 -63 -3 -9 rrcurveto
          -1 vlineto
          -1 -4 35 -29 28 -10 rrcurveto
          3 3 -1 2 1 0 0 1 hhcurveto
          0 59 3 2 8 vhcurveto
          0 22 28 9 24 vhcurveto
          2 4 1 4 3 vvcurveto
          3 1 2 1 4 vhcurveto
          4 11 9 8 7 5 rrcurveto
          -2 vlineto
          -1 1 3 0 4 18 17 -4 17 hhcurveto
          9 10 1 2 11 hvcurveto
          endchar
        </CharString>
        <CharString name="d">
          -55 -28 -21 39 182 627 -20 hstemhm
          13 169 -149 149 73 138 -138 157 hintmask 11110010
          255 234 rmoveto
          -10 -25 -52 -14 -7 -20 17 0 vhcurveto
          -5 5 -2 11 12 vvcurveto
          18 4 20 0 vhcurveto
          16 -14 -10 32 18 23 13 10 vvcurveto
          2 vlineto
          -1 3 0 4 5 vvcurveto
          20 6 35 3 3 vhcurveto
          5 5 31 20 10 hhcurveto
          2 1 -1 -2 hvcurveto
          -1 vlineto
          -1 -5 0 -8 -10 -20 1 -26 -21 vvcurveto
          hintmask 11110100
          -21 -1 -17 68 callsubr
          -13 -26 -8 -7 21 -8 -12 vvcurveto
          154 -262 rmoveto
          13 13 28 7 6 vvcurveto
          6 -15 28 0 vhcurveto
          -23 22 -5 123 0 vvcurveto
          -19 -8 22 0 16 37 30 0 hvcurveto
          -4 38 -1 37 33 vvcurveto
          72 6 53 0 vhcurveto
          5 -12 6 0 vhcurveto
          hintmask 11101010
          36 16 75 25 vvcurveto
          4 0 3 17 callsubr
          1 -1 -4 0 -3 hhcurveto
          -9 -11 0 18 17 33 16 0 hvcurveto
          31 14 74 0 vhcurveto
          9 -90 0 0 -26 -91 -55 -6 -7 25 -71 0 vhcurveto
          -17 -12 -6 0 vhcurveto
          4 -16 2 -25 -22 vvcurveto
          -25 -2 -22 -3 -79 -34 -20 -9 -9 vhcurveto
          -12 -12 -63 -41 -5 -5 rrcurveto
          -5 -4 -27 -91 -25 -8 20 -12 -10 -18 -27 -7 -4 0 -1 -20 -20 vvcurveto
          -18 1 -18 4 -15 callgsubr
          26 -13 -12 -11 -25 43 callgsubr
          16 59 -3 21 hhcurveto
          10 14 73 8 8 65 callsubr
          -7 -42 -10 -21 vhcurveto
          0 17 -35 22 -22 vhcurveto
          0 55 -14 16 vhcurveto
          0 44 6 15 15 vhcurveto
          endchar
        </CharString>
        <CharString name="dagger">
          -64 209 -21 329 116 -116 237 hstemhm
          169 104 hintmask 11010000
          301 526 rmoveto
          3 17 -9 11 hhcurveto
          -83 callsubr
          -6 8 -1 15 0 vvcurveto
          19 7 13 callgsubr
          hintmask 10110000
          -25 -30 22 -10 hhcurveto
          -24 -14 -9 0 hvcurveto
          -14 -6 -46 -31 vvcurveto
          -13 0 -11 4 -4 vhcurveto
          -26 1 -76 4 0 vvcurveto
          0 -35 0 -7 -8 vhcurveto
          0 -14 -42 -57 vvcurveto
          -2 7 -2 7 6 6 1 3 2 callgsubr
          1 12 1 16 hhcurveto
          33 50 -3 -6 4 hvcurveto
          0 3 -4 5 -11 callsubr
          1 3 vhcurveto
          -2 -17 -2 -12 -2 -2 rrcurveto
          0 -6 -20 -5 -5 13 -34 -8 vvcurveto
          -8 -5 -139 -21 callgsubr
          vlineto
          -12 1 -34 7 -7 vhcurveto
          30 callgsubr
          44 3 67 6 5 vhcurveto
          0 4 4 8 vvcurveto
          7 -3 10 -12 12 vhcurveto
          101 vlineto
          endchar
        </CharString>
        <CharString name="daggerdbl">
          -64 56 239 -110 110 222 116 -116 237 hstemhm
          174 99 hintmask 10101000
          301 526 rmoveto
          3 17 -9 11 hhcurveto
          -83 callsubr
          -6 8 -1 15 0 vvcurveto
          19 7 13 callgsubr
          hintmask 01011000
          -25 -30 22 -10 hhcurveto
          -24 -14 -9 0 hvcurveto
          -14 -6 -46 -31 vvcurveto
          -13 0 -11 4 -4 vhcurveto
          -26 1 -76 4 0 vvcurveto
          0 -35 0 -7 -8 vhcurveto
          0 -14 -42 -57 vvcurveto
          -2 7 -2 7 6 6 1 3 2 callgsubr
          1 12 1 16 hhcurveto
          33 50 -3 -6 4 hvcurveto
          0 3 -4 5 -11 callsubr
          1 3 vhcurveto
          -2 -17 -2 -12 -2 -2 rrcurveto
          0 -6 -20 -5 -5 13 -34 -8 vvcurveto
          -4 -1 -53 -1 -59 vhcurveto
          -44 -59 1 0 0 -35 0 -7 -8 hvcurveto
          0 -14 -42 -57 vvcurveto
          -2 7 -2 7 6 6 1 3 2 callgsubr
          1 12 1 16 hhcurveto
          20 44 0 -1 34 hvcurveto
          -1 -34 0 -24 0 vvcurveto
          -4 vlineto
          -12 1 -34 7 -7 vhcurveto
          hintmask 10101000
          30 callgsubr
          55 26 vlineto
          3 17 -9 11 hhcurveto
          hintmask 01101000
          -83 callsubr
          -3 4 2 47 2 41 3 2 rlinecurve
          0 4 4 8 vvcurveto
          7 -3 10 -12 12 vhcurveto
          101 vlineto
          endchar
        </CharString>
        <CharString name="degree">
          -340 557 -21 170 -20 hstem
          110 600 -40 callsubr
          -103 callgsubr
          endchar
        </CharString>
        <CharString name="dieresis">
          612 -21 142 -20 hstemhm
          203 38 callsubr
          hintmask 11100000
          203 -42 callsubr
          hintmask 11010000
          -89 callsubr
          -77 callsubr
          -43 callsubr
          -27 callgsubr
          6 21 27 10 hhcurveto
          3 7 5 5 5 hvcurveto
          endchar
        </CharString>
        <CharString name="divide">
          33 112 -21 224 115 0 91 134 -20 hstemhm
          hintmask 11010000
          349 601 rmoveto
          6 -19 17 0 vhcurveto
          8 4 4 callgsubr
          6 -31 6 -3 -14 -44 -13 0 vhcurveto
          -15 -9 -17 -18 -2 -4 rrcurveto
          -63 callsubr
          -5 -6 vvcurveto
          -15 2 -24 2 -3 vhcurveto
          -47 callsubr
          6 hlineto
          -47 callgsubr
          3 -4 1 -5 -5 vvcurveto
          -7 vlineto
          -2 0 17 callsubr
          hintmask 10110000
          -2 2 17 -6 15 hhcurveto
          15 33 13 6 10 hvcurveto
          0 21 16 45 vvcurveto
          -7 -473 rmoveto
          -28 callgsubr
          -28 callsubr
          -73 callsubr
          7 callsubr
          vhcurveto
          -4 -4 -38 -58 callgsubr
          46 196 rmoveto
          5 74 callgsubr
          3 0 2 2 hvcurveto
          8 9 16 -2 callgsubr
          20 4 -8 0 hvcurveto
          -17 callsubr
          30 10 vvcurveto
          24 -9 19 callgsubr
          -14 -33 6 -23 hhcurveto
          -10 -9 -1 -4 -3 hvcurveto
          -2 -2 -17 -1 -21 hhcurveto
          -40 -57 3 5 -5 hvcurveto
          0 -20 6 -6 vhcurveto
          -5 -33 -13 -8 hhcurveto
          -8 -140 36 callsubr
          -34 -1 -7 -7 hvcurveto
          0 -18 -41 -57 vvcurveto
          -2 8 56 callsubr
          hhcurveto
          44 67 -3 -6 6 hvcurveto
          0 4 -4 7 7 10 3 13 12 vhcurveto
          endchar
        </CharString>
        <CharString name="dollar">
          19 -107 231 -142 142 517 125 -125 213 hstemhm
          328 196 hintmask 10101000
          hintmask 01011000
          274 -107 rmoveto
          9 69 27 7 hvcurveto
          14 -7 24 14 vvcurveto
          5 1 4 3 1 vhcurveto
          70 27 105 137 45 vvcurveto
          102 -15 52 -8 17 vhcurveto
          -4 10 -40 55 -36 28 rrcurveto
          1 -2 -4 1 -5 hhcurveto
          -10 -12 -2 0 hvcurveto
          13 -4 -98 66 -11 hhcurveto
          -1 hlineto
          -9 -8 -7 -3 -6 hhcurveto
          -16 -5 26 0 30 57 56 24 46 63 -57 -22 -2 1 0 2 13 49 31 15 8 hvcurveto
          2 vlineto
          10 -11 46 -4 callgsubr
          14 1 14 13 vvcurveto
          26 -2 21 0 vhcurveto
          11 -34 3 -26 -17 -14 -1 -2 -25 -20 -4 0 vhcurveto
          hintmask 10011000
          -10 -16 3 5 6 4 60 10 26 hvcurveto
          5 3 -59 15 -20 hhcurveto
          -19 -44 -31 0 hvcurveto
          4 -4 0 -33 -19 vvcurveto
          -13 vlineto
          -61 -10 -25 -18 0 vvcurveto
          -69 -69 -45 -150 -13 vvcurveto
          -12 73 -99 15 vhcurveto
          0 24 5 4 vhcurveto
          0 21 -4 -9 0 -7 -26 -5 vvcurveto
          -5 16 -22 8 vhcurveto
          2 5 11 3 8 hhcurveto
          15 73 -47 0 hvcurveto
          0 36 -48 -21 vvcurveto
          -18 -42 -64 -40 -24 -54 22 3 -12 callgsubr
          -26 56 7 0 1 13 9 vvcurveto
          4 0 4 -1 vhcurveto
          0 -37 -5 -13 -7 vhcurveto
          0 -53 -35 -8 vvcurveto
          -64 14 -93 8 -8 vhcurveto
          0 46 -32 111 -8 vhcurveto
          0 -5 -39 -8 -21 vhcurveto
          0 30 -29 42 vhcurveto
          endchar
        </CharString>
        <CharString name="dotaccent">
          -267 606 186 hstem
          49 140 vstem
          3 callgsubr
          -4 4 -1 8 8 vvcurveto
          17 5 20 -4 callgsubr
          vlineto
          7 -31 6 0 -78 -38 -43 -9 -34 callgsubr
          1 -6 1 -5 -6 -21 -8 -18 -16 vvcurveto
          -13 43 -48 71 vhcurveto
          endchar
        </CharString>
        <CharString name="dotlessi">
          -267 -17 -21 573 -20 hstemhm
          24 178 -162 162 40 callsubr
          226 2 -67 callsubr
          hintmask 11001000
          10 -1 7 -1 -16 -12 11 0 22 27 17 0 vhcurveto
          hintmask 11100000
          -53 callsubr
          vhcurveto
          hintmask 11010000
          -26 -82 -55 -7 hvcurveto
          -20 23 -35 -32 vvcurveto
          hintmask 11000100
          -91 callsubr
        </CharString>
        <CharString name="e">
          -13 callsubr
          422 -20 hstemhm
          hintmask 10010000
          260 362 -55 callgsubr
          hintmask 01110000
          -106 callsubr
          -102 callgsubr
          -90 callgsubr
        </CharString>
        <CharString name="eacute">
          -13 callsubr
          634 -20 hstemhm
          hintmask 01110000
          342 707 rmoveto
          -107 callgsubr
          -82 -345 -55 callgsubr
          -106 callsubr
          -102 callgsubr
          hintmask 10010000
          -90 callgsubr
        </CharString>
        <CharString name="ecircumflex">
          -13 callsubr
          473 -20 21 -7 callsubr
          256 158 hintmask 10011010
          390 -1 callsubr
          hintmask 10010110
          -38 callgsubr
          -37 callgsubr
          -39 callsubr
          -38 callsubr
          -74 callgsubr
          -75 callgsubr
          -92 callgsubr
          -86 callsubr
          -80 callsubr
          -130 -260 -55 callgsubr
          -106 callsubr
          hintmask 01111010
          -102 callgsubr
          -90 callgsubr
        </CharString>
        <CharString name="edieresis">
          -13 callsubr
          617 -20 hstemhm
          187 206 -134 155 hintmask 10011000
          187 -42 callsubr
          -47 callgsubr
          hintmask 10010100
          -104 callsubr
          -56 callsubr
          -140 -266 -55 callgsubr
          hintmask 10011000
          17 -3 19 -33 callgsubr
          11 33 21 11 callsubr
          8 2 8 7 7 -2 -6 vhcurveto
          0 -9 -24 -15 vvcurveto
          -4 0 -3 2 -2 vhcurveto
          0 19 -10 -10 vvcurveto
          -2 -1 -3 -44 callsubr
          161 -294 rmoveto
          -11 callsubr
          3 3 19 -8 40 19 vvcurveto
          5 vlineto
          hintmask 10010100
          5 -20 8 -7 -3 -12 -16 0 vhcurveto
          -27 -27 -51 -9 0 vvcurveto
          -3 -13 -13 -1 -11 hhcurveto
          -24 -18 5 3 -3 hvcurveto
          -22 22 -16 48 0 vvcurveto
          11 18 16 2 vhcurveto
          3 31 -32 7 hhcurveto
          hintmask 01111000
          7 105 15 21 20 hvcurveto
          21 21 26 42 65 vvcurveto
          2 -1 0 -2 vhcurveto
          -5 -9 -4 -8 hhcurveto
          -7 -5 3 10 4 4 13 3 3 hvcurveto
          6 5 24 11 0 vvcurveto
          -102 callgsubr
          -90 callgsubr
        </CharString>
        <CharString name="egrave">
          -13 callsubr
          632 -20 hstemhm
          hintmask 01110000
          317 625 rmoveto
          -19 19 -44 91 51 callsubr
          -50 10 -5 1 rrcurveto
          -23 -54 -30 -5 hvcurveto
          -3 39 -38 -2 vvcurveto
          1 hlineto
          2 7 1 5 hhcurveto
          4 2 0 -2 2 hvcurveto
          2 -2 1 -5 -5 vvcurveto
          -10 vlineto
          -3 0 -2 1 vhcurveto
          8 47 -45 9 hhcurveto
          39 28 20 7 hvcurveto
          -57 -262 -55 callgsubr
          -106 callsubr
          -102 callgsubr
          hintmask 10010000
          -90 callgsubr
        </CharString>
        <CharString name="eight">
          23 -1 -21 34 -21 25 -21 688 91 hstemhm
          5 207 -157 178 91 196 -180 163 hintmask 01010101
          hintmask 01011010
          340 582 rmoveto
          -22 -31 -49 -13 -42 -24 56 0 8 20 19 0 vhcurveto
          hintmask 01011001
          17 -17 27 0 vhcurveto
          17 37 28 10 17 27 -18 -13 vhcurveto
          -14 -7 -8 -6 vvcurveto
          -2 1 -1 -45 callsubr
          10 -10 11 -16 -12 vvcurveto
          -11 -403 rmoveto
          hintmask 01010110
          -42 -29 -32 -21 callgsubr
          -4 -6 -2 -6 hhcurveto
          -16 -18 11 0 hvcurveto
          -8 9 -3 26 0 5 -27 17 16 vvcurveto
          17 30 41 0 vhcurveto
          2 1 0 2 2 vvcurveto
          11 -19 20 0 vhcurveto
          35 36 23 5 vhcurveto
          1 hlineto
          17 -18 30 -15 7 -9 rrcurveto
          3 -4 6 -16 -19 vvcurveto
          hintmask 00111010
          0 -18 -32 -12 vvcurveto
          -2 -6 callsubr
          7 -7 9 -16 -4 vvcurveto
          49 -188 rmoveto
          18 107 90 49 4 -12 18 0 hvcurveto
          19 39 12 0 2 1 12 14 19 -2 23 -3 3 vhcurveto
          -11 11 6 77 -27 27 rrcurveto
          -32 32 -47 7 12 vvcurveto
          40 59 14 0 13 31 95 81 19 -84 67 -13 -6 -22 -3 0 vhcurveto
          -20 -5 34 0 hvcurveto
          -4 4 -34 3 0 vvcurveto
          -83 -67 -18 0 hvcurveto
          -41 -16 -82 -104 -2 -8 rrcurveto
          -1 -3 -1 -17 -20 vvcurveto
          -41 3 -57 11 -11 vhcurveto
          39 -39 52 -12 -31 vvcurveto
          0 -3 -17 -5 vhcurveto
          -12 -25 16 -10 hhcurveto
          -15 -85 -146 -27 -53 23 -76 11 hvcurveto
          hintmask 10011010
          0 5 1 7 11 15 -2 -9 10 vhcurveto
          2 -2 1 -2 -3 vvcurveto
          hintmask 01011010
          -12 -19 -14 -2 vvcurveto
          -11 58 -43 28 4 5 2 2 2 vhcurveto
          0 58 -21 49 vhcurveto
          0 50 2 5 6 vhcurveto
          0 10 15 14 vhcurveto
          7 14 -10 3 hhcurveto
          endchar
        </CharString>
        <CharString name="ellipsis">
          228 -2 172 -154 -21 26 -21 172 -20 hstemhm
          286 153 hintmask 10001000
          453 40 -72 callsubr
          hintmask 00111000
          0 callgsubr
          -443 50 rmoveto
          12 54 29 14 0 vvcurveto
          4 12 33 10 21 hhcurveto
          3 3 0 -1 3 hvcurveto
          18 -4 18 -11 3 -3 rrcurveto
          -2 vlineto
          -5 -2 -11 -9 vvcurveto
          -4 0 54 callgsubr
          -4 -4 vvcurveto
          -17 -10 -33 -3 -4 vhcurveto
          -3 -4 -32 -9 -9 -18 rrcurveto
          hintmask 10001000
          -8 -5 -10 -2 -12 hhcurveto
          -12 -14 2 2 -10 hvcurveto
          -2 -1 1 -2 hhcurveto
          -3 1 -34 14 8 -27 callsubr
          0 -2 10 9 vvcurveto
          3 0 4 1 3 vhcurveto
          0 -17 23 8 -27 callsubr
          723 -16 rmoveto
          -15 -53 -30 -12 0 vvcurveto
          hintmask 00111000
          -3 -11 -31 -8 -21 hhcurveto
          -5 -4 0 1 -3 hvcurveto
          -18 5 -18 12 -2 4 rrcurveto
          hintmask 01011000
          1 vlineto
          5 3 12 10 vvcurveto
          4 0 3 -2 3 vhcurveto
          -4 7 -14 -1 -4 5 rrcurveto
          -1 1 -1 3 4 vvcurveto
          17 13 35 3 3 vhcurveto
          4 4 31 7 11 18 rrcurveto
          7 4 10 2 10 hhcurveto
          15 18 -5 -3 11 hvcurveto
          3 -1 33 -16 -8 -25 callgsubr
          0 1 -8 -8 vvcurveto
          -4 0 -5 -1 -12 callgsubr
          15 -24 -9 -25 callgsubr
          endchar
        </CharString>
        <CharString name="emdash">
          185 209 -13 callgsubr
          495 218 rmoveto
          7 31 -9 17 hhcurveto
          5 3 0 2 2 hvcurveto
          10 9 22 -2 callgsubr
          23 7 -8 22 callsubr
          3 2 0 5 hhcurveto
          13 17 4 0 hvcurveto
          25 28 30 10 vvcurveto
          24 -10 19 callgsubr
          -19 -40 6 -29 hhcurveto
          -14 -10 -1 -4 -6 hvcurveto
          -2 -2 -22 -1 -26 hhcurveto
          -51 -71 3 5 -7 hvcurveto
          hintmask 01100000
          0 -25 6 -7 vhcurveto
          -7 -42 -13 -10 hhcurveto
          -10 -176 5 0 hvcurveto
          -6 hlineto
          -14 -43 -1 -7 -10 hvcurveto
          0 -23 -41 -57 vvcurveto
          -2 11 -2 12 11 10 1 3 8 vhcurveto
          1 2 21 1 26 hhcurveto
          hintmask 10000000
          55 85 -3 -6 7 hvcurveto
          hintmask 01100000
          0 5 -4 10 9 11 3 13 16 vhcurveto
          endchar
        </CharString>
        <CharString name="endash">
          -155 209 -13 callgsubr
          252 218 rmoveto
          4 15 -9 9 hhcurveto
          2 2 0 2 1 hvcurveto
          5 9 11 -2 callgsubr
          11 4 -8 22 callsubr
          11 callgsubr
          3 hhcurveto
          6 9 4 0 hvcurveto
          25 14 30 10 vvcurveto
          24 -5 19 callgsubr
          -10 -20 6 -14 hhcurveto
          -7 -5 -1 -4 -3 hvcurveto
          -2 -1 -11 -1 -13 hhcurveto
          -26 -35 3 5 -4 hvcurveto
          hintmask 01100000
          0 -12 6 -4 vhcurveto
          -3 -21 -13 -5 hhcurveto
          -5 -88 5 0 hvcurveto
          -3 hlineto
          -7 -22 -1 -7 -5 hvcurveto
          0 -11 -41 -57 vvcurveto
          -2 5 -2 6 6 5 1 3 2 callgsubr
          1 10 1 13 hhcurveto
          hintmask 10000000
          28 42 -3 -6 4 hvcurveto
          hintmask 01100000
          0 2 -4 5 5 5 3 13 8 vhcurveto
          endchar
        </CharString>
        <CharString name="equal">
          60 212 116 -100 -21 213 116 5 -20 hstemhm
          hintmask 10100000
          44 callsubr
          -34 callsubr
          3 3 19 1 23 hhcurveto
          40 53 -4 -4 5 hvcurveto
          hintmask 10010000
          -33 callsubr
          hintmask 10100000
          -44 -75 3 6 -6 hvcurveto
          0 -4 3 -7 -7 -10 -3 -12 -12 vhcurveto
          55 113 rmoveto
          -49 callgsubr
          -19 -1 -23 hhcurveto
          -40 -53 4 4 -4 hvcurveto
          hintmask 01100000
          75 callgsubr
          -6 -33 -12 -8 hhcurveto
          -8 -140 5 0 0 -48 0 -8 -8 hvcurveto
          0 -19 -42 61 callsubr
          2 16 1 21 hhcurveto
          hintmask 10100000
          42 callgsubr
          endchar
        </CharString>
        <CharString name="eth">
          -50 -29 -21 61 -21 830 -20 hstemhm
          14 168 -149 149 70 160 hintmask 11110100
          216 172 rmoveto
          -6 -21 17 0 hvcurveto
          -5 5 -2 11 12 vvcurveto
          18 4 20 0 vhcurveto
          15 -13 -8 28 vvcurveto
          3 vlineto
          17 22 14 10 vvcurveto
          2 vlineto
          -1 2 0 4 4 vvcurveto
          20 7 37 2 3 vhcurveto
          5 5 29 19 11 hhcurveto
          3 1 -1 -3 hvcurveto
          -1 -4 0 -7 -8 -20 1 -28 -23 vvcurveto
          -20 -1 -17 -3 -15 callgsubr
          -13 -26 -9 -6 20 -8 -12 vvcurveto
          -10 -24 -52 -15 vhcurveto
          248 500 rmoveto
          7 25 0 0 vhcurveto
          16 -5 37 6 callgsubr
          -7 -27 -7 0 vhcurveto
          -19 32 -30 34 0 vvcurveto
          -13 -75 22 -42 hhcurveto
          -12 -24 -28 -6 hvcurveto
          -1 vlineto
          9 -8 22 -23 18 -16 3 -3 9 -33 7 -22 rrcurveto
          -6 -3 -37 -10 0 vvcurveto
          0 -36 -13 -4 -9 vhcurveto
          -4 vlineto
          -11 1 -30 13 -34 vhcurveto
          -1 2 0 1 6 15 5 8 6 vhcurveto
          2 2 20 7 17 3 rrcurveto
          -17 vlineto
          -26 -2 -20 -3 -79 -33 -20 -9 -9 vhcurveto
          -13 -12 -63 -41 -4 -5 rrcurveto
          -5 -4 -27 -91 -25 vvcurveto
          hintmask 11101100
          -8 19 -12 -10 -18 -27 -7 -4 0 -1 -18 -19 vvcurveto
          -19 1 -20 5 -15 callgsubr
          25 -13 -12 -11 -24 43 callgsubr
          15 60 -3 21 hhcurveto
          10 13 73 8 9 65 callsubr
          -8 -42 -10 -22 vhcurveto
          0 18 -35 21 -21 vhcurveto
          0 56 -15 15 vhcurveto
          0 44 7 16 15 vhcurveto
          13 13 27 7 6 vvcurveto
          6 -15 28 0 vhcurveto
          -23 22 -4 123 0 vvcurveto
          -20 -8 21 0 17 37 30 0 hvcurveto
          -3 37 -2 37 33 vvcurveto
          72 6 54 0 vhcurveto
          5 -12 6 0 vhcurveto
          36 17 65 24 vvcurveto
          4 -1 3 17 callsubr
          -5 5 0 13 -1 10 rrcurveto
          6 49 10 6 vvcurveto
          endchar
        </CharString>
        <CharString name="exclam">
          -282 16 -21 192 45 544 -20 hstemhm
          5 180 -152 166 -152 138 hintmask 11110000
          114 187 rmoveto
          -55 -32 -47 -18 -18 hvcurveto
          -3 -3 -1 -7 -9 vvcurveto
          -28 13 -49 5 -5 vhcurveto
          -23 23 48 -3 25 hhcurveto
          15 hlineto
          33 callsubr
          hvcurveto
          4 -2 8 6 vvcurveto
          3 0 2 2 2 vhcurveto
          8 8 11 2 9 6 5 -1 2 hhcurveto
          5 17 34 12 0 -8 75 -8 hvcurveto
          -29 -33 34 -7 hhcurveto
          -108 542 rmoveto
          -41 27 -95 -41 -7 -19 -21 -13 -5 33 -13 -17 vvcurveto
          hintmask 11101000
          -10 -17 -22 0 vhcurveto
          -1 -1 -1 -2 -2 vvcurveto
          -12 13 -27 0 vhcurveto
          5 -15 0 -124 0 vvcurveto
          -11 36 -18 6 44 44 42 0 vhcurveto
          hintmask 11100100
          0 -5 30 23 vvcurveto
          12 1 9 4 4 vhcurveto
          0 14 22 6 7 vhcurveto
          2 1 0 2 2 9 -13 13 4 60 22 70 7 6 -18 10 10 vvcurveto
          2 1 3 2 2 vhcurveto
          31 31 5 128 5 vvcurveto
          5 -33 2 -14 4 vhcurveto
          4 -14 -49 15 -5 hhcurveto
          -23 -84 -31 -16 hvcurveto
          endchar
        </CharString>
        <CharString name="exclamdown">
          -282 -216 -21 543 45 193 -20 hstemhm
          35 166 -153 138 -138 180 hintmask 11100100
          119 351 rmoveto
          56 31 47 18 18 hvcurveto
          3 3 1 7 9 vvcurveto
          29 -12 48 -5 5 vhcurveto
          24 -25 -51 3 -23 hhcurveto
          -12 hlineto
          -2 0 -2 -2 hvcurveto
          hintmask 11110000
          -5 2 -7 -6 vvcurveto
          hintmask 11101000
          -3 -1 -2 -1 -2 vhcurveto
          -8 -8 -10 -1 -8 -7 -6 1 -3 hhcurveto
          -5 -16 -34 -13 0 7 -75 8 hvcurveto
          29 33 -34 7 hhcurveto
          108 -542 rmoveto
          41 -26 96 40 7 18 22 12 5 -33 14 16 vvcurveto
          hintmask 11110000
          10 18 22 41 callgsubr
          2 2 vvcurveto
          12 -13 27 0 vhcurveto
          -5 16 0 123 0 vvcurveto
          11 -36 18 -6 -43 -44 -41 0 vhcurveto
          hintmask 11101000
          0 4 -30 -23 vvcurveto
          -12 -1 -10 -3 -12 callgsubr
          -14 -23 -7 -6 vhcurveto
          -2 -2 0 -2 -2 -9 13 -13 -4 -60 -21 -70 -7 -6 18 -9 -10 vvcurveto
          -2 -1 -3 -3 -3 vhcurveto
          -30 -30 -6 -128 -6 vvcurveto
          -5 33 -2 14 -4 vhcurveto
          -4 15 48 -14 5 hhcurveto
          23 84 30 16 hvcurveto
          endchar
        </CharString>
        <CharString name="f">
          -122 80 callgsubr
          45 callsubr
          hintmask 11100010
          256 -71 rmoveto
          -8 15 -1 56 29 vvcurveto
          17 vlineto
          hintmask 11101000
          6 -35 -5 23 12 34 20 64 callsubr
          hintmask 11100100
          -84 callgsubr
          hintmask 11101000
          -25 callsubr
          hintmask 11100100
          -14 callsubr
          hintmask 11110000
          -1 callgsubr
        </CharString>
        <CharString name="fi">
          35 -126 -21 535 218 0 185 -120 106 hstemhm
          47 165 -148 148 -98 121 101 163 -142 142 hintmask 1010100100000000
          467 606 rmoveto
          10 45 43 18 6 hvcurveto
          hintmask 1101100100000000
          2 5 0 6 5 vvcurveto
          15 -4 19 callgsubr
          -3 3 -15 4 -2 2 rrcurveto
          -4 4 -1 8 8 vvcurveto
          17 5 19 -4 callgsubr
          vlineto
          8 -31 5 0 -79 -37 -43 -8 -34 callgsubr
          1 -6 1 -6 -6 -21 -8 -17 -17 vvcurveto
          -12 43 -48 71 vhcurveto
          -123 -217 rmoveto
          -1 -1 -5 0 -7 -19 -34 2 -14 hhcurveto
          -7 -19 -4 -9 hvcurveto
          0 -3 -65 -66 vvcurveto
          -57 2 -59 9 -20 -34 callgsubr
          -7 -34 -20 -12 -23 35 5 -6 vvcurveto
          -17 vlineto
          -29 1 -56 8 -15 17 callgsubr
          -17 -84 -57 -24 -45 -70 20 5 5 10 24 0 22 5 32 0 14 -23 4 callgsubr
          27 17 43 35 49 -12 55 14 vvcurveto
          2 0 1 1 vhcurveto
          hintmask 1010100100000000
          14 4 19 25 hvcurveto
          33 -7 44 25 vvcurveto
          8 1 7 2 2 vhcurveto
          9 9 38 -7 33 vvcurveto
          6 -15 2 -19 -30 -38 -5 0 vhcurveto
          -1 -4 -2 -1 -2 hhcurveto
          -3 -1 2 3 hvcurveto
          hintmask 1101001100000000
          20 29 77 6 6 vhcurveto
          3 4 32 9 0 vvcurveto
          2 2 1 8 11 35 -9 66 2 vvcurveto
          8 16 49 37 37 vhcurveto
          22 22 59 27 10 hhcurveto
          hintmask 1101100100000000
          4 20 -10 7 hhcurveto
          0 30 14 8 17 21 -24 -5 vhcurveto
          -23 vlineto
          -27 -1 -42 -8 -7 vhcurveto
          -2 -2 -2 0 -2 -11 -16 20 -24 hhcurveto
          -7 -32 -33 -9 hvcurveto
          0 -1 -13 -17 vvcurveto
          -27 2 -35 12 -7 vhcurveto
          hintmask 1101010100000000
          -9 15 22 -12 36 hhcurveto
          0 70 0 14 6 vhcurveto
          11 19 19 8 10 hhcurveto
          0 94 -4 -9 -40 -23 -54 -50 vvcurveto
          -9 0 -9 2 -8 vhcurveto
          hintmask 1101001100000000
          0 -27 -17 -21 vvcurveto
          0 11 -11 16 1 1 -7 -11 vhcurveto
          -34 -5 -75 -53 vvcurveto
          -27 1 -21 4 -9 vhcurveto
          0 20 -42 -16 vvcurveto
          -2 0 -2 -1 -1 vhcurveto
          hintmask 1101010010000000
          -2 -3 -84 -25 -19 -10 rrcurveto
          -1 -3 -3 -1 -4 hhcurveto
          hintmask 1101100100000000
          -29 -61 26 10 15 15 106 0 hvcurveto
          8 25 3 13 vvcurveto
          13 -28 12 1 5 vhcurveto
          4 15 2 26 26 vvcurveto
          53 -6 58 0 vhcurveto
          7 14 6 25 vvcurveto
          endchar
        </CharString>
        <CharString name="five">
          -21 -10 162 213 96 164 125 29 -20 hstemhm
          17 195 -164 164 67 175 -175 197 hintmask 11111010
          299 13 rmoveto
          4 4 2 13 0 vvcurveto
          13 33 14 0 6 28 -7 0 vhcurveto
          14 19 32 13 13 hvcurveto
          50 50 11 99 25 3 -25 -7 30 vvcurveto
          hintmask 11111001
          3 22 29 0 vhcurveto
          42 -27 50 -11 5 vhcurveto
          -11 6 -48 53 0 vvcurveto
          -11 11 -101 3 0 vvcurveto
          -10 -13 -36 -4 hhcurveto
          -26 -2 22 8 hvcurveto
          3 vlineto
          50 23 65 7 7 vhcurveto
          4 5 36 5 29 hhcurveto
          12 12 -1 -2 7 hvcurveto
          25 -6 40 -10 0 vvcurveto
          1 hlineto
          14 39 109 15 4 -22 45 -11 -6 -40 -22 0 hvcurveto
          -6 -6 -45 -1 -48 hhcurveto
          -56 -59 2 0 hvcurveto
          5 -5 -9 2 -12 hhcurveto
          -35 -54 -18 -3 -3 hvcurveto
          -4 -4 -2 -139 -28 -94 rrcurveto
          -1 vlineto
          hintmask 11110110
          -9 31 -3 -19 vvcurveto
          hintmask 11111010
          -19 -31 -17 -7 vvcurveto
          hintmask 11110110
          0 14 -76 17 vhcurveto
          0 61 15 23 85 50 -47 17 callsubr
          6 -6 5 -29 -20 vvcurveto
          -9 -2 -8 -44 callsubr
          -13 -13 -25 -5 -7 -8 -4 -3 -5 -35 -12 -12 rrcurveto
          0 -27 -15 -35 vhcurveto
          -34 -42 22 -6 hhcurveto
          -7 -43 -56 -8 hvcurveto
          -6 13 -17 -14 vvcurveto
          -4 -2 -4 -3 -4 -34 callgsubr
          -9 56 -47 10 vhcurveto
          14 hlineto
          16 24 -1 -10 9 hvcurveto
          -2 2 8 -1 9 hhcurveto
          38 82 15 8 8 hvcurveto
          endchar
        </CharString>
        <CharString name="fl">
          134 80 callgsubr
          1 -20 45 callsubr
          177 151 -122 122 -122 142 -142 153 hintmask 1110000110000000
          588 -15 rmoveto
          21 callgsubr
          vvcurveto
          hintmask 1110010010000000
          30 -11 84 109 30 9 61 29 vvcurveto
          hintmask 1110001010000000
          5 -29 -4 19 -70 callgsubr
          hintmask 1110010010000000
          -5 29 -2 -12 -24 -26 -4 -11 0 4 -127 -58 vvcurveto
          -17 0 -10 -85 callgsubr
          -332 -56 rmoveto
          -8 15 -1 56 29 vvcurveto
          17 vlineto
          hintmask 1110001010000000
          6 -35 -5 23 12 34 20 64 callsubr
          hintmask 1110100000010000
          -84 callgsubr
          hintmask 1110100000100000
          -25 callsubr
          hintmask 1101100010000000
          -14 callsubr
          hintmask 1110100001000000
          -1 callgsubr
        </CharString>
        <CharString name="four">
          48 1 -21 200 122 473 -20 hstemhm
          293 148 -148 164 -164 188 hintmask 11110000
          284 312 rmoveto
          -7 -7 -16 -3 -18 hhcurveto
          -31 -37 8 6 5 20 73 23 38 hvcurveto
          0 22 12 11 0 -9 21 4 vvcurveto
          0 23 52 7 8 vhcurveto
          0 18 6 9 2 1 0 17 callsubr
          1 -1 0 -3 -5 -23 -8 -61 -17 vvcurveto
          -3 vlineto
          1 -6 5 -7 -9 vvcurveto
          -8 -4 -10 -12 -12 vhcurveto
          -3 -3 -1 -3 -3 -12 17 -11 -2 vvcurveto
          -10 vlineto
          -9 0 -11 -4 -4 vhcurveto
          236 -105 rmoveto
          10 55 26 53 0 vvcurveto
          1 2 1 2 3 vvcurveto
          12 -13 14 -7 vhcurveto
          -1 0 -1 -1 hhcurveto
          -12 -15 -35 -5 -23 hhcurveto
          -13 -9 1 3 31 35 11 0 hvcurveto
          4 4 1 19 17 vvcurveto
          14 -1 13 0 vhcurveto
          6 -23 -2 16 vvcurveto
          17 27 23 41 callgsubr
          2 2 vvcurveto
          10 -9 10 callsubr
          -1 18 0 16 16 vvcurveto
          hintmask 11100100
          99 14 55 -4 callgsubr
          vlineto
          hintmask 11101000
          11 -75 25 -19 vhcurveto
          -29 -53 -32 -44 hhcurveto
          -16 -18 -56 0 -12 -30 -4 0 -17 -57 -152 0 hvcurveto
          -4 -13 -9 4 -7 -8 rrcurveto
          -7 -7 -56 -137 0 vvcurveto
          6 -6 1 -9 -7 vvcurveto
          -6 -1 -5 0 vhcurveto
          -11 -36 -8 0 vhcurveto
          -13 -18 -51 -14 vvcurveto
          1 -3 rlineto
          4 -4 1 -8 -9 vvcurveto
          -14 -3 -16 -33 callgsubr
          13 -16 9 -18 callgsubr
          1 vhcurveto
          0 100 21 108 37 25 -6 -31 -8 -48 0 1 -5 vhcurveto
          -44 -15 -56 -11 vvcurveto
          -1 1 -1 -21 callgsubr
          30 53 -33 21 hhcurveto
          20 119 24 19 hvcurveto
          9 -22 38 23 0 -1 22 22 vvcurveto
          22 1 23 2 2 vhcurveto
          0 58 12 2 11 vhcurveto
          endchar
        </CharString>
        <CharString name="foursuperior">
          -161 335 -21 120 73 284 -20 hstemhm
          170 114 -89 89 -89 113 hintmask 11101000
          190 513 -9 callsubr
          hintmask 11100100
          -24 callgsubr
          hintmask 11110000
          0 3 0 -6 -14 -4 -37 -10 12 callgsubr
          -3 3 -5 -5 vvcurveto
          -5 -2 -6 -7 -7 vhcurveto
          -2 -2 -1 -2 -1 -8 10 -6 -1 vvcurveto
          -6 vlineto
          -6 0 -6 -2 -3 vhcurveto
          142 -63 rmoveto
          6 33 15 32 0 vvcurveto
          -18 callgsubr
          2 vvcurveto
          7 -7 9 -5 vhcurveto
          0 0 -1 -1 vhcurveto
          -7 -9 -21 -3 -14 hhcurveto
          -7 -6 1 1 19 21 7 0 hvcurveto
          3 2 0 11 11 vvcurveto
          8 0 8 18 callsubr
          -14 -1 10 vvcurveto
          10 16 14 0 1 0 2 1 6 -6 -12 callsubr
          11 0 10 9 vvcurveto
          60 8 33 0 vhcurveto
          7 -45 15 -11 vhcurveto
          hintmask 11100100
          -18 -32 -19 -26 hhcurveto
          -10 -10 -34 0 -7 -18 -2 0 -11 -34 -92 22 callsubr
          -7 -6 2 -4 -5 rrcurveto
          -4 -4 -34 -82 0 vvcurveto
          4 -4 1 -5 -4 vvcurveto
          -4 -1 -3 0 vhcurveto
          -7 -22 -4 0 vhcurveto
          -8 -10 -31 -8 12 callgsubr
          3 -2 0 -5 -6 vvcurveto
          -8 -2 -10 -33 callgsubr
          8 -9 6 vhcurveto
          0 1 0 0 vhcurveto
          -78 callsubr
          endchar
        </CharString>
        <CharString name="fraction">
          -45 -7 -21 812 -20 hstem
          166 208 rmoveto
          20 20 23 87 18 17 98 210 10 hhcurveto
          9 60 129 21 21 hvcurveto
          6 7 18 13 11 vvcurveto
          9 2 20 18 callsubr
          4 12 3 0 vvcurveto
          7 2 10 31 0 vvcurveto
          6 -29 3 -28 -22 -20 -2 -5 -5 vhcurveto
          -9 -10 -21 -25 -13 12 callgsubr
          -2 1 -76 -162 -21 -3 -48 -137 -25 hhcurveto
          -7 -62 -103 -10 -23 -83 -130 -5 -5 hvcurveto
          0 -30 -32 -2 -4 vhcurveto
          -2 -4 -5 -28 -3 -5 rrcurveto
          -3 -6 -20 -38 0 0 -31 -43 -10 vvcurveto
          -10 33 -3 28 19 16 1 3 3 vhcurveto
          3 3 13 13 12 vvcurveto
          5 26 40 10 2 vhcurveto
          0 10 3 16 vvcurveto
          4 -1 5 -1 5 vhcurveto
          0 54 112 12 12 vhcurveto
          endchar
        </CharString>
        <CharString name="g">
          -55 -269 -21 22 -21 307 -21 551 -20 hstemhm
          5 177 55 162 -149 174 hintmask 10111100
          237 237 rmoveto
          -34 13 -14 -7 vvcurveto
          -2 -31 -29 -11 -6 -17 10 callsubr
          -2 3 -1 13 13 vvcurveto
          16 1 10 callsubr
          hintmask 10111010
          2 -16 13 5 hvcurveto
          5 4 15 2 vvcurveto
          3 4 11 11 0 vvcurveto
          2 2 0 6 6 vvcurveto
          12 -2 10 callsubr
          -1 7 -1 9 8 vvcurveto
          15 2 14 4 3 vhcurveto
          5 11 18 27 23 hhcurveto
          0 12 -8 -6 vvcurveto
          -5 -4 -12 -2 -5 vhcurveto
          -4 vlineto
          -11 3 -30 -22 vvcurveto
          -10 -1 -8 -2 -6 -34 callgsubr
          -4 8 -5 -18 -6 -20 -11 -4 vvcurveto
          161 -407 rmoveto
          6 3 20 61 80 5 -25 10 8 20 25 11 6 vvcurveto
          3 vlineto
          5 1 11 12 vvcurveto
          26 -2 33 -9 9 vhcurveto
          -1 1 0 6 8 vvcurveto
          46 10 139 5 24 vhcurveto
          1 vlineto
          6 -15 13 0 vhcurveto
          36 18 75 24 36 vhcurveto
          1 vlineto
          7 -28 16 -11 vhcurveto
          -25 -46 -26 -15 -7 -10 -31 -10 -24 -1 43 -10 -46 -35 -26 -48 hhcurveto
          -19 -87 -95 -10 hvcurveto
          -7 22 -15 -9 vvcurveto
          0 -4 -11 -10 -10 vhcurveto
          -5 -5 -7 -1 -5 hhcurveto
          -3 hlineto
          hintmask 10111100
          -63 callsubr
          -1 hvcurveto
          hintmask 10111010
          0 -14 -77 -39 vvcurveto
          hintmask 10111100
          -4 6 -53 8 -8 vhcurveto
          7 -7 7 -10 -12 vvcurveto
          hintmask 10111010
          -12 -12 -3 -3 vvcurveto
          -32 81 -87 21 vhcurveto
          0 61 0 2 5 vhcurveto
          8 20 49 58 20 1 rrcurveto
          0 12 -10 -9 -9 -28 -21 -11 0 8 -48 -33 vvcurveto
          -22 -60 -56 -21 -15 -55 25 25 -21 vhcurveto
          0 -1 1 -2 -63 callsubr
          -1 -1 vhcurveto
          -4 -3 -42 -48 -14 vvcurveto
          0 12 -82 13 -13 vhcurveto
          0 13 -9 7 -12 vhcurveto
          0 16 -21 20 vhcurveto
          2 2 1 2 hhcurveto
          28 7 56 -4 8 8 rrcurveto
          0 8 24 7 7 vhcurveto
          0 14 7 5 vhcurveto
          8 10 -27 5 hhcurveto
          hintmask 01111100
          0 64 27 17 26 vhcurveto
          0 38 37 12 7 vhcurveto
          endchar
        </CharString>
</ttFont>
